<?xml version="1.0" encoding="utf-8"?>
<!-- Generator: Adobe Illustrator 19.0.1, SVG Export Plug-In . SVG Version: 6.00 Build 0)  -->
<svg version="1.1" id="Layer_1" xmlns="http://www.w3.org/2000/svg" xmlns:xlink="http://www.w3.org/1999/xlink" x="0px" y="0px"
	 viewBox="0 0 25.4 21.2" style="enable-background:new 0 0 25.4 21.2;" xml:space="preserve">
<style type="text/css">
	.st0{fill:#FFFFFF;}
</style>
<path class="st0" d="M7.7,9.6c2.2,0,4-1.8,4-4c0-0.6-0.1-1.2-0.4-1.8c-0.1-0.2-0.3-0.3-0.5-0.2c-0.2,0.1-0.3,0.3-0.2,0.5
	C10.9,4.6,11,5.1,11,5.6c0,1.8-1.5,3.2-3.2,3.2c-1.8,0-3.2-1.5-3.2-3.2c0-1.8,1.5-3.2,3.2-3.2c0.6,0,1.3,0.2,1.8,0.5
	C9.7,3,9.9,3,10.1,2.8c0.1-0.2,0.1-0.4-0.1-0.5C9.3,1.8,8.5,1.6,7.7,1.6c-2.2,0-4,1.8-4,4C3.7,7.8,5.5,9.6,7.7,9.6"/>
<path class="st0" d="M7.4,4c0.2,0,0.4,0,0.7,0c0,0,0.1,0,0.1,0c0.2,0,0.3-0.1,0.4-0.3c0-0.2-0.1-0.4-0.3-0.4c-0.3-0.1-0.6-0.1-1,0
	C7.1,3.3,6.9,3.5,7,3.7C7,3.9,7.2,4,7.4,4"/>
<path class="st0" d="M8.5,7.8c0.1,0,0.1,0,0.1,0c0.9-0.4,1.4-1.2,1.4-2.2c0-0.3-0.1-0.7-0.2-1C9.8,4.5,9.6,4.4,9.4,4.4
	C9.2,4.5,9.1,4.8,9.2,4.9c0.1,0.2,0.1,0.4,0.1,0.7c0,0.6-0.4,1.2-1,1.5C8.2,7.2,8.1,7.4,8.2,7.6C8.3,7.7,8.4,7.8,8.5,7.8"/>
<path class="st0" d="M7.7,6.3c0.4,0,0.7-0.3,0.7-0.7S8.1,4.9,7.7,4.9C7.3,4.9,7,5.2,7,5.6S7.3,6.3,7.7,6.3 M7.7,5.6
	C7.7,5.6,7.8,5.6,7.7,5.6C7.8,5.6,7.7,5.6,7.7,5.6C7.7,5.6,7.7,5.6,7.7,5.6C7.7,5.6,7.7,5.6,7.7,5.6"/>
<path class="st0" d="M7.7,12c-0.9,0-1.6,0.7-1.6,1.6c0,0.9,0.7,1.6,1.6,1.6c0.9,0,1.6-0.7,1.6-1.6C9.3,12.8,8.6,12,7.7,12 M7.7,14.5
	c-0.5,0-0.8-0.4-0.8-0.8c0-0.5,0.4-0.8,0.8-0.8c0.5,0,0.8,0.4,0.8,0.8C8.6,14.1,8.2,14.5,7.7,14.5"/>
<path class="st0" d="M23.8,8H15c-0.7,0-1.4,0.5-1.5,1.2h-0.9V8.5c0.5-0.8,0.8-1.8,0.8-2.9c0-3.1-2.5-5.6-5.6-5.6
	C4.6,0,2.1,2.5,2.1,5.6c0,1.1,0.3,2,0.8,2.9v11.2c0,0.9,0.7,1.6,1.6,1.6h6.4c0.9,0,1.6-0.7,1.6-1.6v-3.2h0.9
	c0.2,0.7,0.8,1.2,1.5,1.2h8.8c0.9,0,1.6-0.7,1.6-1.6V9.6C25.4,8.7,24.7,8,23.8,8 M7.7,0.8c2.7,0,4.8,2.2,4.8,4.8
	c0,2.7-2.2,4.8-4.8,4.8c-2.7,0-4.8-2.2-4.8-4.8C2.9,2.9,5.1,0.8,7.7,0.8 M11.8,19.7c0,0.5-0.4,0.8-0.8,0.8H4.5
	c-0.5,0-0.8-0.4-0.8-0.8V9.5c1,1.1,2.5,1.7,4,1.7c1.6,0,3-0.7,4-1.7V19.7z M12.5,10h0.9v5.7h-0.9V10z M24.6,16
	c0,0.5-0.4,0.8-0.8,0.8H15c-0.5,0-0.8-0.4-0.8-0.8V9.6c0-0.5,0.4-0.8,0.8-0.8h8.8c0.5,0,0.8,0.4,0.8,0.8V16z"/>
<path class="st0" d="M23.4,9.6h-0.8c-0.2,0-0.4,0.2-0.4,0.4c0,0.2,0.2,0.4,0.4,0.4h0.8c0.2,0,0.4-0.2,0.4-0.4
	C23.8,9.8,23.6,9.6,23.4,9.6"/>
<path class="st0" d="M21,9.6h-4.4c-0.2,0-0.4,0.2-0.4,0.4c0,0.2,0.2,0.4,0.4,0.4H21c0.2,0,0.4-0.2,0.4-0.4C21.4,9.8,21.2,9.6,21,9.6
	"/>
</svg>
