<?xml version="1.0" encoding="utf-8"?>
<!-- Generator: Adobe Illustrator 19.0.1, SVG Export Plug-In . SVG Version: 6.00 Build 0)  -->
<svg version="1.1" id="Слой_1" xmlns="http://www.w3.org/2000/svg" xmlns:xlink="http://www.w3.org/1999/xlink" x="0px" y="0px"
	 viewBox="0 0 18.3 22.2" style="enable-background:new 0 0 18.3 22.2;" xml:space="preserve">
<style type="text/css">
	.st0{clip-path:url(#SVGID_2_);fill:#FFFFFF;}
</style>
<g>
	<defs>
		<rect id="SVGID_1_" width="18.3" height="22.2"/>
	</defs>
	<clipPath id="SVGID_2_">
		<use xlink:href="#SVGID_1_"  style="overflow:visible;"/>
	</clipPath>
	<path class="st0" d="M16.9,17l-3.7-0.9c-0.5-0.4-0.5-0.8-0.5-1.1v0c0.5-0.6,1-1.2,1.2-2c0.1,0,0.2,0,0.3,0c1,0,1.9-0.8,1.9-1.9
		c0-0.1,0-0.1,0-0.2c0.7-0.3,1.2-1,1.2-1.7c0-0.5-0.2-1-0.6-1.3C17,7.5,17.2,7,17.2,6.5c0-0.9-0.6-1.6-1.4-1.8C16,4.4,16,4.1,16,3.8
		c0-1-0.8-1.9-1.9-1.9c-0.1,0-0.3,0-0.4,0.1c-0.1-0.9-0.9-1.6-1.9-1.6c-0.4,0-0.8,0.1-1.2,0.4C10.3,0.3,9.8,0,9.2,0
		C8.6,0,8,0.3,7.6,0.8C7.3,0.5,6.9,0.4,6.5,0.4C5.5,0.4,4.8,1.1,4.6,2c-0.1,0-0.3-0.1-0.4-0.1c-1,0-1.9,0.8-1.9,1.9
		c0,0.3,0.1,0.6,0.2,0.9c-0.8,0.2-1.4,1-1.4,1.8c0,0.5,0.2,1,0.6,1.3C1.4,8.2,1.1,8.7,1.1,9.2c0,0.8,0.5,1.5,1.2,1.7
		c0,0.1,0,0.1,0,0.2c0,1,0.8,1.9,1.9,1.9c0.1,0,0.2,0,0.3,0c0.3,0.8,0.7,1.4,1.2,2v0c0,0.4,0,0.8-0.5,1.1L1.5,17
		c-0.9,0.2-1.5,1-1.5,1.8V21c0,0.6,0.6,1.1,1.2,1.1h15.9c0.7,0,1.2-0.5,1.2-1.1v-2.2C18.3,17.9,17.7,17.2,16.9,17 M4.9,11.1V8
		c0-0.6,0.5-1.2,1.2-1.2h3.5v0c0,0.4-0.4,0.8-0.8,0.8C8.6,7.7,8.4,7.8,8.4,8c0,0.2,0.2,0.4,0.4,0.4c0.8,0,1.5-0.7,1.5-1.5V6.5
		c0-0.1,0-0.2-0.1-0.3C10.1,6.2,10,6.1,9.9,6.1H6.1C5.1,6.1,4.2,7,4.2,8v3.1c0,0.4,0,0.8,0.1,1.2c0,0-0.1,0-0.1,0
		c-0.6,0-1.2-0.5-1.2-1.2c0-0.1,0-0.2,0.1-0.3c0-0.1,0-0.2,0-0.3c-0.1-0.1-0.1-0.1-0.2-0.2c-0.5-0.1-0.9-0.6-0.9-1.1
		c0-0.4,0.2-0.8,0.6-1C2.6,8.1,2.7,8,2.7,7.8S2.6,7.6,2.5,7.5c-0.4-0.2-0.6-0.6-0.6-1c0-0.6,0.5-1.2,1.2-1.2c0,0,0,0,0.1,0
		c0,0,0,0,0.1,0c0.2,0,0.3-0.1,0.4-0.2c0.1-0.1,0-0.3-0.1-0.4C3.2,4.5,3,4.1,3,3.8c0-0.6,0.5-1.2,1.2-1.2c0.2,0,0.4,0.1,0.6,0.2
		c0.1,0.1,0.3,0.1,0.4,0c0.1-0.1,0.2-0.2,0.2-0.4l0,0c0-0.1,0-0.1,0-0.2c0-0.6,0.5-1.2,1.2-1.2c0.4,0,0.7,0.2,0.9,0.5
		c0.1,0.1,0.2,0.2,0.3,0.1c0.1,0,0.2-0.1,0.3-0.2C8.2,1,8.7,0.7,9.2,0.7c0.5,0,0.9,0.3,1.1,0.8c0,0.1,0.2,0.2,0.3,0.2
		c0.1,0,0.3,0,0.3-0.1c0.2-0.3,0.6-0.5,0.9-0.5c0.6,0,1.2,0.5,1.2,1.2c0,0,0,0.1,0,0.2l0,0c0,0.1,0,0.3,0.2,0.4
		c0.1,0.1,0.3,0.1,0.4,0c0.2-0.1,0.4-0.2,0.6-0.2c0.6,0,1.2,0.5,1.2,1.2c0,0.3-0.2,0.7-0.4,0.9c-0.1,0.1-0.2,0.3-0.1,0.4
		c0.1,0.1,0.2,0.2,0.4,0.2c0,0,0,0,0.1,0c0,0,0.1,0,0.1,0c0.6,0,1.2,0.5,1.2,1.2c0,0.4-0.2,0.8-0.6,1c-0.1,0.1-0.2,0.2-0.2,0.3
		s0.1,0.3,0.2,0.3c0.4,0.2,0.6,0.6,0.6,1c0,0.6-0.4,1-0.9,1.1c-0.1,0-0.2,0.1-0.2,0.2c-0.1,0.1-0.1,0.2,0,0.3c0,0.1,0.1,0.2,0.1,0.3
		c0,0.6-0.5,1.2-1.2,1.2c0,0-0.1,0-0.1,0c0.1-0.4,0.1-0.8,0.1-1.2V8c0-1-0.8-1.9-1.9-1.9h-0.8c-0.2,0-0.4,0.2-0.4,0.4
		c0,0.2,0.2,0.4,0.4,0.4h0.8c0.6,0,1.2,0.5,1.2,1.2v3.1c0,2.5-1.9,4.6-4.2,4.6S4.9,13.6,4.9,11.1 M12.4,16.4l-3.2,1.9L6,16.4
		c0.3-0.3,0.4-0.6,0.5-0.9c0.8,0.6,1.7,0.9,2.7,0.9c1,0,2-0.3,2.7-0.9C12,15.8,12.1,16.1,12.4,16.4 M3.4,21.4v-0.8
		c0-0.2-0.2-0.4-0.4-0.4s-0.4,0.2-0.4,0.4v0.8H1.2c-0.3,0-0.5-0.2-0.5-0.4v-2.2c0-0.6,0.4-1,0.9-1.1l3.4-0.8l1,4.6H3.4z M11.6,21.4
		H6.8l-0.5-2.5l2.1,1.3c0.2,0.1,0.5,0.2,0.8,0.2c0.3,0,0.5-0.1,0.8-0.2l0.6-0.3c0.2-0.1,0.2-0.3,0.1-0.5c-0.1-0.2-0.3-0.2-0.5-0.1
		l-0.6,0.3c-0.3,0.2-0.6,0.2-0.8,0L6,18l-0.2-0.8L9,19.1c0.1,0.1,0.3,0.1,0.4,0l3.1-1.9L12.3,18l-1,0.6c-0.2,0.1-0.2,0.3-0.1,0.5
		c0.1,0.1,0.2,0.2,0.3,0.2c0.1,0,0.1,0,0.2-0.1l0.4-0.3L11.6,21.4z M17.6,21c0,0.2-0.2,0.4-0.5,0.4h-1.4v-0.8c0-0.2-0.2-0.4-0.4-0.4
		c-0.2,0-0.4,0.2-0.4,0.4v0.8h-2.6l1-4.6l3.4,0.8c0.5,0.1,0.9,0.6,0.9,1.1V21z"/>
	<path class="st0" d="M7.7,11.8c0,0.8,0.7,1.5,1.5,1.5c0.8,0,1.5-0.7,1.5-1.5c0-0.2-0.2-0.4-0.4-0.4c-0.2,0-0.4,0.2-0.4,0.4
		c0,0.4-0.4,0.8-0.8,0.8c-0.4,0-0.8-0.4-0.8-0.8c0-0.4,0.4-0.8,0.8-0.8c0.2,0,0.4-0.2,0.4-0.4c0-0.2-0.2-0.4-0.4-0.4
		C8.3,10.3,7.7,11,7.7,11.8"/>
	<path class="st0" d="M9.2,14.9c1.7,0,3-1.2,3-2.7c0-0.2-0.2-0.4-0.4-0.4c-0.2,0-0.4,0.2-0.4,0.4c0,1.1-1,1.9-2.3,1.9
		s-2.3-0.9-2.3-1.9c0-0.2-0.2-0.4-0.4-0.4c-0.2,0-0.4,0.2-0.4,0.4C6.1,13.7,7.5,14.9,9.2,14.9"/>
	<path class="st0" d="M6.5,9.9h0.4v0.4c0,0.2,0.2,0.4,0.4,0.4c0.2,0,0.4-0.2,0.4-0.4V9.9H8c0.2,0,0.4-0.2,0.4-0.4
		c0-0.2-0.2-0.4-0.4-0.4H7.6V8.8c0-0.2-0.2-0.4-0.4-0.4c-0.2,0-0.4,0.2-0.4,0.4v0.4H6.5c-0.2,0-0.4,0.2-0.4,0.4
		C6.1,9.7,6.3,9.9,6.5,9.9"/>
	<path class="st0" d="M10.3,9.9h0.4v0.4c0,0.2,0.2,0.4,0.4,0.4c0.2,0,0.4-0.2,0.4-0.4V9.9h0.4c0.2,0,0.4-0.2,0.4-0.4
		c0-0.2-0.2-0.4-0.4-0.4h-0.4V8.8c0-0.2-0.2-0.4-0.4-0.4c-0.2,0-0.4,0.2-0.4,0.4v0.4h-0.4c-0.2,0-0.4,0.2-0.4,0.4
		C10,9.7,10.1,9.9,10.3,9.9"/>
</g>
</svg>
