<?xml version="1.0" encoding="utf-8"?>
<!-- Generator: Adobe Illustrator 19.0.1, SVG Export Plug-In . SVG Version: 6.00 Build 0)  -->
<svg version="1.1" id="Слой_1" xmlns="http://www.w3.org/2000/svg" xmlns:xlink="http://www.w3.org/1999/xlink" x="0px" y="0px"
	 viewBox="0 0 18.1 18.4" style="enable-background:new 0 0 18.1 18.4;" xml:space="preserve">
<style type="text/css">
	.st0{clip-path:url(#SVGID_2_);fill:#FFFFFF;}
</style>
<g>
	<defs>
		<rect id="SVGID_1_" y="0" width="18.1" height="18.4"/>
	</defs>
	<clipPath id="SVGID_2_">
		<use xlink:href="#SVGID_1_"  style="overflow:visible;"/>
	</clipPath>
	<path class="st0" d="M6.3,8.9C5.6,8.1,4.7,7.7,3.7,7.7S1.8,8.1,1.1,8.9c-1.4,1.6-1.4,4.2,0,5.8l2.6,3l2.6-3
		C7.7,13.1,7.7,10.5,6.3,8.9 M5.8,14.3l-2.2,2.4l-2.2-2.4c-1.2-1.4-1.2-3.6,0-5c0.6-0.7,1.3-1,2.2-1s1.6,0.4,2.2,1
		C7.1,10.7,7.1,12.9,5.8,14.3"/>
	<path class="st0" d="M14.8,7.5l2-2.2c1.1-1.2,1.1-3.2,0-4.4c-0.5-0.6-1.2-0.9-2-0.9c-0.8,0-1.5,0.3-2,0.9c-1.1,1.2-1.1,3.2,0,4.4
		L14.8,7.5z M13.3,1.3c0.4-0.5,1-0.7,1.5-0.7c0.6,0,1.1,0.3,1.5,0.7c0.9,1,0.9,2.6,0,3.6l-1.5,1.7l-1.5-1.7
		C12.4,3.9,12.4,2.3,13.3,1.3"/>
	<path class="st0" d="M16,16.7c-0.2,0-0.3,0.1-0.4,0.2c0,0.2-0.1,0.3-0.2,0.4c-0.1,0.1-0.1,0.3,0.1,0.4c0.1,0,0.1,0.1,0.2,0.1
		c0.1,0,0.2,0,0.2-0.1c0.2-0.2,0.3-0.4,0.3-0.7C16.3,17,16.2,16.8,16,16.7"/>
	<path class="st0" d="M9.7,9.5c-0.1,0-0.3,0-0.4-0.1C9.1,9.4,9,9.5,8.9,9.6C8.8,9.8,8.9,10,9.1,10c0.2,0.1,0.4,0.1,0.6,0.1h0.1
		c0.2,0,0.3-0.1,0.3-0.3c0-0.2-0.1-0.3-0.3-0.3H9.7z"/>
	<path class="st0" d="M8.9,7.6c0.1,0,0.1,0,0.2,0c0.1-0.1,0.3-0.1,0.4-0.2c0.2,0,0.3-0.2,0.3-0.3c0-0.2-0.2-0.3-0.3-0.3
		C9.2,6.8,9,6.9,8.8,7C8.6,7.1,8.6,7.3,8.7,7.4C8.7,7.5,8.8,7.6,8.9,7.6"/>
	<path class="st0" d="M5.4,17.8H4.8c-0.2,0-0.3,0.1-0.3,0.3s0.1,0.3,0.3,0.3h0.6c0.2,0,0.3-0.1,0.3-0.3S5.6,17.8,5.4,17.8"/>
	<path class="st0" d="M10.9,12.3C10.9,12.3,10.8,12.3,10.9,12.3c-0.2,0-0.4,0.2-0.4,0.3c0,0.2,0.1,0.3,0.3,0.3c0,0,0,0,0,0h0.6
		c0.2,0,0.3-0.1,0.3-0.3c0-0.2-0.1-0.3-0.3-0.3H10.9z"/>
	<path class="st0" d="M10.7,7.4h0.6c0.2,0,0.3-0.1,0.3-0.3c0-0.2-0.1-0.3-0.3-0.3h-0.6c-0.2,0-0.3,0.1-0.3,0.3
		C10.4,7.2,10.6,7.4,10.7,7.4"/>
	<path class="st0" d="M14.5,12.3c-0.2,0-0.3,0.1-0.3,0.3c0,0.2,0.1,0.3,0.3,0.3h0.6c0.2,0,0.3-0.1,0.3-0.3c0-0.2-0.1-0.3-0.3-0.3
		H14.5z"/>
	<path class="st0" d="M15.6,9.8c0-0.2-0.1-0.3-0.3-0.3h-0.6c-0.2,0-0.3,0.1-0.3,0.3c0,0.2,0.1,0.3,0.3,0.3h0.6
		C15.5,10.1,15.6,10,15.6,9.8"/>
	<path class="st0" d="M12.7,12.9h0.6c0.2,0,0.3-0.1,0.3-0.3s-0.1-0.3-0.3-0.3h-0.6c-0.2,0-0.3,0.1-0.3,0.3S12.5,12.9,12.7,12.9"/>
	<path class="st0" d="M13.2,7.4c0.2,0,0.3-0.1,0.3-0.3c0-0.2-0.1-0.3-0.3-0.3h-0.6c-0.2,0-0.3,0.1-0.3,0.3c0,0.2,0.1,0.3,0.3,0.3
		H13.2z"/>
	<path class="st0" d="M11,9.5c-0.2,0-0.3,0.1-0.3,0.3c0,0.2,0.1,0.3,0.3,0.3h0.6c0.2,0,0.3-0.1,0.3-0.3c0-0.2-0.1-0.3-0.3-0.3H11z"
		/>
	<path class="st0" d="M13.8,9.8c0-0.2-0.1-0.3-0.3-0.3h-0.6c-0.2,0-0.3,0.1-0.3,0.3c0,0.2,0.1,0.3,0.3,0.3h0.6
		C13.6,10.1,13.8,10,13.8,9.8"/>
	<path class="st0" d="M18.1,10.9c0-0.2-0.2-0.3-0.4-0.3c-0.2,0-0.3,0.2-0.3,0.4c0,0.1,0,0.1,0,0.2c0,0.1,0,0.2,0,0.3
		c0,0.2,0,0.3,0.2,0.4c0,0,0.1,0,0.1,0c0.1,0,0.3-0.1,0.3-0.2c0-0.2,0.1-0.3,0.1-0.5C18.1,11.1,18.1,11,18.1,10.9"/>
	<path class="st0" d="M12.8,17.8h-0.6c-0.2,0-0.3,0.1-0.3,0.3s0.1,0.3,0.3,0.3h0.6c0.2,0,0.3-0.1,0.3-0.3S12.9,17.8,12.8,17.8"/>
	<path class="st0" d="M10.9,17.8h-0.6c-0.2,0-0.3,0.1-0.3,0.3s0.1,0.3,0.3,0.3h0.6c0.2,0,0.3-0.1,0.3-0.3S11.1,17.8,10.9,17.8"/>
	<path class="st0" d="M14.3,15.4c0-0.2-0.1-0.3-0.3-0.3h-0.6c-0.2,0-0.3,0.1-0.3,0.3c0,0.2,0.1,0.3,0.3,0.3H14
		C14.2,15.7,14.3,15.5,14.3,15.4"/>
	<path class="st0" d="M12.5,15.4c0-0.2-0.1-0.3-0.3-0.3h-0.6c-0.2,0-0.3,0.1-0.3,0.3c0,0.2,0.1,0.3,0.3,0.3h0.6
		C12.3,15.7,12.5,15.5,12.5,15.4"/>
	<path class="st0" d="M14.6,17.8H14c-0.2,0-0.3,0.1-0.3,0.3s0.1,0.3,0.3,0.3h0.6l0-0.3v0.3c0.2,0,0.3-0.1,0.3-0.3
		S14.8,17.8,14.6,17.8"/>
	<path class="st0" d="M15.7,16.2c0.1,0,0.1,0,0.2-0.1c0.1-0.1,0.2-0.3,0.1-0.4c-0.2-0.2-0.4-0.4-0.6-0.5c-0.2-0.1-0.3,0-0.4,0.1
		c-0.1,0.1,0,0.3,0.1,0.4c0.1,0.1,0.3,0.2,0.4,0.3C15.5,16.2,15.6,16.2,15.7,16.2"/>
	<path class="st0" d="M16.8,12.2c-0.1,0.1-0.3,0.1-0.4,0.1h-0.1c-0.2,0-0.3,0.1-0.3,0.3c0,0.2,0.1,0.3,0.3,0.3h0.1
		c0.2,0,0.4,0,0.7-0.1c0.2-0.1,0.2-0.2,0.2-0.4C17.2,12.2,17,12.1,16.8,12.2"/>
	<path class="st0" d="M8.5,9.2c0.2-0.1,0.2-0.2,0.2-0.4c0-0.1-0.1-0.2-0.1-0.3c0,0,0-0.1,0-0.1C8.6,8.1,8.5,8,8.3,8
		C8.2,7.9,8,8.1,8,8.2c0,0.1,0,0.1,0,0.2C8,8.6,8,8.8,8.1,9C8.1,9.1,8.2,9.2,8.5,9.2C8.4,9.2,8.4,9.2,8.5,9.2"/>
	<path class="st0" d="M7.2,17.8H6.6c-0.2,0-0.3,0.1-0.3,0.3s0.1,0.3,0.3,0.3h0.6c0.2,0,0.3-0.1,0.3-0.3S7.4,17.8,7.2,17.8"/>
	<path class="st0" d="M10.3,15.5c0.1,0,0.2-0.1,0.3-0.2c0.1-0.2,0-0.3-0.2-0.4c-0.1-0.1-0.3-0.2-0.4-0.3c-0.1-0.1-0.3-0.1-0.4,0
		c-0.1,0.1-0.1,0.3,0,0.4c0.2,0.2,0.4,0.3,0.6,0.4C10.2,15.5,10.3,15.5,10.3,15.5"/>
	<path class="st0" d="M17.3,9.8c-0.2-0.1-0.5-0.2-0.7-0.2c-0.2,0-0.3,0.1-0.3,0.3c0,0.2,0.1,0.3,0.3,0.3c0.2,0,0.3,0.1,0.5,0.1
		c0.1,0,0.1,0,0.2,0c0.1,0,0.2-0.1,0.3-0.2C17.5,10,17.4,9.8,17.3,9.8"/>
	<path class="st0" d="M9.1,17.8H8.5c-0.2,0-0.3,0.1-0.3,0.3s0.1,0.3,0.3,0.3h0.6c0.2,0,0.3-0.1,0.3-0.3S9.2,17.8,9.1,17.8"/>
	<path class="st0" d="M9.8,13.8c0-0.2,0.1-0.3,0.2-0.4c0.1-0.1,0.1-0.3-0.1-0.4c-0.1-0.1-0.3-0.1-0.4,0.1c-0.2,0.2-0.3,0.4-0.3,0.7
		c0,0.2,0.1,0.3,0.2,0.4c0,0,0,0,0.1,0C9.7,14,9.8,13.9,9.8,13.8"/>
	<path class="st0" d="M14.9,4.6c0.9,0,1.7-0.8,1.7-1.7c0-0.9-0.8-1.7-1.7-1.7c-0.9,0-1.7,0.8-1.7,1.7C13.2,3.9,14,4.6,14.9,4.6
		 M14.9,1.8c0.6,0,1.1,0.5,1.1,1.1C16,3.5,15.5,4,14.9,4c-0.6,0-1.1-0.5-1.1-1.1C13.8,2.3,14.3,1.8,14.9,1.8"/>
	<path class="st0" d="M3.7,9.5c-1,0-1.8,0.8-1.8,1.8c0,1,0.8,1.8,1.8,1.8c1,0,1.8-0.8,1.8-1.8C5.5,10.4,4.7,9.5,3.7,9.5 M3.7,12.6
		c-0.7,0-1.2-0.6-1.2-1.2s0.6-1.2,1.2-1.2c0.7,0,1.2,0.6,1.2,1.2S4.4,12.6,3.7,12.6"/>
</g>
</svg>
