<?xml version="1.0" encoding="utf-8"?>
<!-- Generator: Adobe Illustrator 19.0.1, SVG Export Plug-In . SVG Version: 6.00 Build 0)  -->
<svg version="1.1" id="Слой_1" xmlns="http://www.w3.org/2000/svg" xmlns:xlink="http://www.w3.org/1999/xlink" x="0px" y="0px"
	 viewBox="0 0 18.6 22.5" style="enable-background:new 0 0 18.6 22.5;" xml:space="preserve">
<style type="text/css">
	.st0{clip-path:url(#SVGID_2_);fill:#FFFFFF;}
</style>
<g>
	<defs>
		<rect id="SVGID_1_" y="0" width="18.6" height="22.5"/>
	</defs>
	<clipPath id="SVGID_2_">
		<use xlink:href="#SVGID_1_"  style="overflow:visible;"/>
	</clipPath>
	<path class="st0" d="M8.1,6.4c-0.2,0-0.4,0.2-0.4,0.4v0.1C7.8,7,7.7,7,7.7,7L2.1,8.7C1.8,8.9,1.6,9.2,1.6,9.6v1.9
		c0,0.4,0.2,0.7,0.6,0.8c0,0,0.1,0,0.1,0c0.2,0,0.3-0.1,0.3-0.3c0.1-0.2,0-0.4-0.2-0.5c0,0-0.1-0.1-0.1-0.1v0c0-0.1,0-0.1,0.1-0.1
		l1.5-0.5l3.8,1.2c0,0,0.1,0.1,0.1,0.1v0c0,0.1,0,0.1-0.1,0.1l-5.5,1.7c-0.4,0.1-0.6,0.4-0.6,0.8v1.9c0,0.4,0.2,0.7,0.6,0.8
		c0,0,0.1,0,0.1,0c0.2,0,0.3-0.1,0.3-0.3c0.1-0.2,0-0.4-0.2-0.5c0,0-0.1-0.1-0.1-0.1v0c0-0.1,0-0.1,0.1-0.1l1.5-0.5l3.8,1.2
		c0,0,0.1,0.1,0.1,0.1v0c0,0.1,0,0.1-0.1,0.1l-5.5,1.7c-0.4,0.1-0.6,0.4-0.6,0.8v1.9c0,0.2,0.2,0.4,0.4,0.4c0.2,0,0.4-0.2,0.4-0.4
		c0-0.1,0-0.1,0.1-0.1l5.5-1.7c0.4-0.1,0.6-0.4,0.6-0.8c0,0,0,0,0,0c0,0,0,0,0,0v-1.9c0-0.4-0.2-0.7-0.6-0.8l-2.8-0.9L7.9,15
		c0.4-0.1,0.6-0.4,0.6-0.8c0,0,0,0,0,0s0,0,0,0v-1.9c0-0.4-0.2-0.7-0.6-0.8l-2.8-0.9l2.8-0.9c0.4-0.1,0.6-0.4,0.6-0.8V6.8
		C8.5,6.6,8.3,6.4,8.1,6.4 M7.7,19.6l-5.4,1.7v-1.1c0-0.1,0-0.1,0.1-0.1l5.4-1.7v1.1v0v0C7.8,19.5,7.7,19.6,7.7,19.6 M7.7,14.3
		l-3.9,1.2c0,0-0.1,0-0.1,0L2.3,16v-1.1c0-0.1,0-0.1,0.1-0.1l5.4-1.7v1.1v0v0C7.8,14.2,7.7,14.3,7.7,14.3 M7.8,8.8
		c0,0.1,0,0.1-0.1,0.1l-3.9,1.2c0,0-0.1,0-0.1,0l-1.4,0.4V9.6c0-0.1,0-0.1,0.1-0.1l5.4-1.7V8.8z"/>
	<path class="st0" d="M4.1,12.9c0,0,0.1,0,0.1,0c0.2,0,0.3-0.1,0.3-0.3c0.1-0.2,0-0.4-0.2-0.5L3.6,12c-0.2-0.1-0.4,0-0.5,0.2
		c-0.1,0.2,0,0.4,0.2,0.5L4.1,12.9z"/>
	<path class="st0" d="M4.1,18.2c0,0,0.1,0,0.1,0c0.2,0,0.3-0.1,0.3-0.3c0.1-0.2,0-0.4-0.2-0.5l-0.8-0.2c-0.2-0.1-0.4,0-0.5,0.2
		c-0.1,0.2,0,0.4,0.2,0.5L4.1,18.2z"/>
	<path class="st0" d="M12.7,6.5c0,0,0.1,0,0.1,0c0.2,0,0.3-0.1,0.3-0.3c0.1-0.2,0-0.4-0.2-0.5l-0.8-0.2c-0.2-0.1-0.4,0-0.5,0.2
		c-0.1,0.2,0,0.4,0.2,0.5L12.7,6.5z"/>
	<path class="st0" d="M12.7,11.8c0,0,0.1,0,0.1,0c0.2,0,0.3-0.1,0.3-0.3c0.1-0.2,0-0.4-0.2-0.5l-0.8-0.2c-0.2-0.1-0.4,0-0.5,0.2
		c-0.1,0.2,0,0.4,0.2,0.5L12.7,11.8z"/>
	<path class="st0" d="M17,13.1L17,13.1L17,13.1v-1.9c0-0.4-0.2-0.7-0.6-0.8l-2.8-0.9l2.8-0.9C16.8,8.4,17,8.1,17,7.7v0v0V5.8
		c0-0.4-0.2-0.7-0.6-0.8l-2.8-0.9l2.8-0.9C16.8,3.1,17,2.8,17,2.4V0.4C17,0.2,16.9,0,16.7,0s-0.4,0.2-0.4,0.4v0.1
		c0,0.1,0,0.1-0.1,0.1l-5.5,1.7c-0.4,0.1-0.6,0.4-0.6,0.8v1.9c0,0.4,0.2,0.7,0.6,0.8c0,0,0.1,0,0.1,0c0.2,0,0.3-0.1,0.3-0.3
		c0.1-0.2,0-0.4-0.2-0.5c0,0-0.1-0.1-0.1-0.1v0c0-0.1,0-0.1,0.1-0.1l1.5-0.5l3.8,1.2c0,0,0.1,0.1,0.1,0.1v0c0,0.1,0,0.1-0.1,0.1
		l-5.5,1.7c-0.4,0.1-0.6,0.4-0.6,0.8v1.9c0,0.4,0.2,0.7,0.6,0.8c0,0,0.1,0,0.1,0c0.2,0,0.3-0.1,0.3-0.3c0.1-0.2,0-0.4-0.2-0.5
		c0,0-0.1-0.1-0.1-0.1v0c0-0.1,0-0.1,0.1-0.1l1.5-0.5l3.8,1.2c0,0,0.1,0.1,0.1,0.1v0c0,0.1,0,0.1-0.1,0.1L10.7,13
		c-0.4,0.1-0.6,0.4-0.6,0.8v1.9c0,0.2,0.2,0.4,0.4,0.4c0.2,0,0.4-0.2,0.4-0.4c0-0.1,0-0.1,0.1-0.1l5.5-1.7
		C16.8,13.8,17,13.4,17,13.1 M10.8,4.2V3.1c0-0.1,0-0.1,0.1-0.1l5.4-1.7v1.1c0,0.1,0,0.1-0.1,0.1l-3.9,1.2c0,0-0.1,0-0.1,0L10.8,4.2
		z M10.8,9.5V8.5c0-0.1,0-0.1,0.1-0.1l5.4-1.7v1.1c0,0,0,0,0,0c0,0,0,0,0,0c0,0.1,0,0.1-0.1,0.1l-3.9,1.2c0,0-0.1,0-0.1,0L10.8,9.5z
		 M16.2,13.2l-5.4,1.7v-1.1c0-0.1,0-0.1,0.1-0.1l5.4-1.7V13c0,0,0,0,0,0c0,0,0,0,0,0C16.3,13.1,16.3,13.2,16.2,13.2"/>
	<path class="st0" d="M2.3,3.8c1.1,0,2,0.9,2,2c0,0.2,0.2,0.4,0.4,0.4C4.8,6.2,5,6,5,5.8c0-1.1,0.9-2,2-2c0.2,0,0.4-0.2,0.4-0.4
		c0-0.2-0.2-0.4-0.4-0.4c-1.1,0-2-0.9-2-2c0-0.2-0.2-0.4-0.4-0.4c-0.2,0-0.4,0.2-0.4,0.4c0,1.1-0.9,2-2,2c-0.2,0-0.4,0.2-0.4,0.4
		C1.9,3.7,2.1,3.8,2.3,3.8 M4.6,2.5c0.2,0.4,0.6,0.7,1,1c-0.4,0.2-0.7,0.6-1,1c-0.2-0.4-0.6-0.7-1-1C4.1,3.2,4.4,2.9,4.6,2.5"/>
	<path class="st0" d="M16.3,18.3c-1.1,0-2-0.9-2-2c0-0.2-0.2-0.4-0.4-0.4c-0.2,0-0.4,0.2-0.4,0.4c0,1.1-0.9,2-2,2
		c-0.2,0-0.4,0.2-0.4,0.4s0.2,0.4,0.4,0.4c1.1,0,2,0.9,2,2c0,0.2,0.2,0.4,0.4,0.4c0.2,0,0.4-0.2,0.4-0.4c0-1.1,0.9-2,2-2
		c0.2,0,0.4-0.2,0.4-0.4S16.5,18.3,16.3,18.3 M14,19.6c-0.2-0.4-0.6-0.7-1-1c0.4-0.2,0.7-0.6,1-1c0.2,0.4,0.6,0.7,1,1
		C14.5,18.9,14.2,19.2,14,19.6"/>
	<path class="st0" d="M18.2,15.9h-0.4v-0.4c0-0.2-0.2-0.4-0.4-0.4c-0.2,0-0.4,0.2-0.4,0.4v0.4h-0.4c-0.2,0-0.4,0.2-0.4,0.4
		c0,0.2,0.2,0.4,0.4,0.4h0.4v0.4c0,0.2,0.2,0.4,0.4,0.4c0.2,0,0.4-0.2,0.4-0.4v-0.4h0.4c0.2,0,0.4-0.2,0.4-0.4
		C18.6,16.1,18.4,15.9,18.2,15.9"/>
	<path class="st0" d="M1.9,7.3c0.2,0,0.4-0.2,0.4-0.4S2.1,6.6,1.9,6.6H1.5V6.2c0-0.2-0.2-0.4-0.4-0.4C0.9,5.8,0.8,6,0.8,6.2v0.4H0.4
		C0.2,6.6,0,6.8,0,7s0.2,0.4,0.4,0.4h0.4v0.4c0,0.2,0.2,0.4,0.4,0.4c0.2,0,0.4-0.2,0.4-0.4V7.3H1.9z"/>
</g>
</svg>
