<?xml version="1.0" encoding="utf-8"?>
<!-- Generator: Adobe Illustrator 19.0.1, SVG Export Plug-In . SVG Version: 6.00 Build 0)  -->
<svg version="1.1" id="Слой_1" xmlns="http://www.w3.org/2000/svg" xmlns:xlink="http://www.w3.org/1999/xlink" x="0px" y="0px"
	 viewBox="0 0 18.3 17.7" style="enable-background:new 0 0 18.3 17.7;" xml:space="preserve">
<style type="text/css">
	.st0{clip-path:url(#SVGID_2_);fill:#FFFFFF;}
</style>
<g>
	<defs>
		<rect id="SVGID_1_" y="0" width="18.3" height="17.7"/>
	</defs>
	<clipPath id="SVGID_2_">
		<use xlink:href="#SVGID_1_"  style="overflow:visible;"/>
	</clipPath>
	<path class="st0" d="M8.3,15.7c0,0-0.1-0.1-0.2-0.1v0l-0.7-0.1l-0.3-0.6c-0.1-0.1-0.2-0.2-0.4-0.1c-0.1,0-0.1,0.1-0.1,0.1l-0.3,0.6
		l-0.7,0.1c-0.2,0-0.3,0.2-0.3,0.3c0,0.1,0,0.1,0.1,0.2L6,16.7l-0.1,0.7c0,0.2,0.1,0.3,0.2,0.3c0.1,0,0.1,0,0.2,0l0.6-0.3l0.6,0.3
		c0.1,0.1,0.3,0,0.4-0.1c0-0.1,0-0.1,0-0.2l-0.1-0.7l0.5-0.5C8.4,16,8.4,15.8,8.3,15.7 M7.3,16.4c-0.1,0.1-0.1,0.2-0.1,0.3l0,0.3
		l-0.2-0.1c-0.1-0.1-0.2-0.1-0.3,0l-0.2,0.1l0-0.3c0-0.1,0-0.2-0.1-0.3l-0.2-0.2l0.3,0c0.1,0,0.2-0.1,0.2-0.2l0.1-0.2L7,15.9
		c0,0.1,0.1,0.2,0.2,0.2l0.3,0L7.3,16.4z"/>
	<path class="st0" d="M12.2,14.4c0,0-0.1-0.1-0.2-0.1v0L11,14.1l-0.5-1c-0.1-0.1-0.3-0.2-0.4-0.1C10,13,10,13,9.9,13.1l-0.5,1
		l-1.1,0.2c-0.2,0-0.3,0.2-0.3,0.3c0,0.1,0,0.1,0.1,0.2L9,15.6l-0.2,1.2c0,0.2,0.1,0.3,0.2,0.3c0.1,0,0.1,0,0.2,0l1-0.5l1,0.5
		c0.1,0.1,0.3,0,0.4-0.1c0-0.1,0-0.1,0-0.2l-0.2-1.2l0.8-0.8C12.4,14.7,12.3,14.5,12.2,14.4 M10.9,15.3c-0.1,0.1-0.1,0.2-0.1,0.3
		l0.1,0.7l-0.6-0.3c-0.1-0.1-0.2-0.1-0.3,0l-0.6,0.3l0.1-0.7c0-0.1,0-0.2-0.1-0.3L9,14.8l0.7-0.1c0.1,0,0.2-0.1,0.2-0.2l0.3-0.6
		l0.3,0.6c0,0.1,0.1,0.2,0.2,0.2l0.7,0.1L10.9,15.3z"/>
	<path class="st0" d="M18,1.5h-1.4l0.9-0.9H18c0.2,0,0.3-0.1,0.3-0.3C18.3,0.1,18.2,0,18,0H0.3C0.1,0,0,0.1,0,0.3
		c0,0.2,0.1,0.3,0.3,0.3h1.4L0.8,1.5H0.3C0.1,1.5,0,1.6,0,1.8C0,2,0.1,2.1,0.3,2.1h0.9l0,1.1L0.7,3.8c-0.5,0.5-0.5,1.4,0,1.9
		l1.2,1.2C2,6.9,2.1,6.9,2.1,6.9h0c0,0,0.1,0,0.1,0l3.4,4.8l-1.7,5c-0.1,0.2,0,0.3,0.2,0.4c0.2,0.1,0.3,0,0.4-0.2L6,12.3L7,13.7
		c0.1,0.1,0.3,0.2,0.4,0.1c0.1-0.1,0.2-0.3,0.1-0.4l-1.2-1.7l1.8-5.5c0,0,0-0.1,0-0.1h1.8c0,0,0,0.1,0,0.1l1.3,3.6L10,11.5
		C9.9,11.7,9.9,11.9,10,12c0.1,0.1,0.3,0.1,0.4-0.1c0,0,0,0,0,0l1-1.5l2.3,6.5c0,0.1,0.2,0.2,0.3,0.2c0,0,0.1,0,0.1,0
		c0.2-0.1,0.2-0.2,0.2-0.4l-2.5-6.9L14.6,6l1.9,0.7L14.4,15c0,0.2,0.1,0.3,0.2,0.4h0c0,0,0,0,0.1,0c0.1,0,0.3-0.1,0.3-0.2l2-8.2
		c0,0,0,0,0.1,0c0.1,0,0.2-0.1,0.3-0.2L18,5.1c0.2-0.7-0.1-1.4-0.8-1.7l0,0V2.1H18c0.2,0,0.3-0.1,0.3-0.3C18.3,1.6,18.2,1.5,18,1.5
		 M16.7,0.6l-0.8,0.8l-0.8-0.8H16.7z M15.2,1.5h-1.6l0.8-0.8L15.2,1.5z M13.7,0.6l-0.8,0.8l-0.8-0.8H13.7z M12.2,1.5h-1.6l0.8-0.8
		L12.2,1.5z M10.7,0.6L9.9,1.4L9.1,0.6H10.7z M9.2,1.5H7.6l0.8-0.8L9.2,1.5z M7.7,0.6L6.9,1.4L6.1,0.6H7.7z M6.2,1.5H4.6l0.8-0.8
		L6.2,1.5z M4.7,0.6L3.9,1.4L3.1,0.6H4.7z M2.4,0.7l0.8,0.8H1.6L2.4,0.7z M2.1,6.2l-1-1c-0.3-0.3-0.3-0.7,0-1l0.7-0.7
		c0.1-0.1,0.3-0.2,0.5-0.2h0c0.2,0,0.4,0.1,0.5,0.2l1,1L2.1,6.2z M5.8,11L2.7,6.5l1.2-1.3l3.1,2c0,0,0,0,0.1,0L5.8,11z M7.5,6
		L7.3,6.6L4.4,4.7l0.1-0.1c0.1-0.1,0.1-0.3,0-0.4L3.2,3.1C2.9,2.8,2.6,2.7,2.3,2.7c-0.2,0-0.3,0-0.4,0.1l0-0.7h6.9v0.6H8.5
		C7.8,2.7,7.2,3.3,7.2,4v1.7C7.2,5.9,7.3,6,7.5,6 M10.2,5.4H7.8V4c0-0.4,0.3-0.7,0.7-0.7h1c0.4,0,0.7,0.3,0.7,0.7V5.4z M14.5,3.9
		L14,5.5c0,0.1,0,0.2,0,0.2c0,0,0,0,0,0l-2.4,3.4L10.5,6c0.2,0,0.3-0.1,0.3-0.3V4c0-0.7-0.6-1.3-1.3-1.3H9.3V2.1h7.2v1.1l-0.3-0.1
		C15.5,2.8,14.8,3.2,14.5,3.9 M17.4,4.9l-0.5,1.3l-2.3-0.8l0.5-1.3c0.1-0.4,0.5-0.6,0.9-0.4c0,0,0,0,0,0L17,4
		C17.3,4.1,17.5,4.5,17.4,4.9"/>
</g>
</svg>
