<?xml version="1.0" encoding="utf-8"?>
<!-- Generator: Adobe Illustrator 19.0.1, SVG Export Plug-In . SVG Version: 6.00 Build 0)  -->
<svg version="1.1" id="Слой_1" xmlns="http://www.w3.org/2000/svg" xmlns:xlink="http://www.w3.org/1999/xlink" x="0px" y="0px"
	 viewBox="0 0 41.6 38.3" style="enable-background:new 0 0 41.6 38.3;" xml:space="preserve">
<style type="text/css">
	.st0{clip-path:url(#SVGID_2_);fill:#863A81;}
</style>
<g>
	<defs>
		<rect id="SVGID_1_" y="0" width="41.6" height="38.3"/>
	</defs>
	<clipPath id="SVGID_2_">
		<use xlink:href="#SVGID_1_"  style="overflow:visible;"/>
	</clipPath>
	<path class="st0" d="M40.9,30.6c-0.4,0-0.7,0.3-0.7,0.7V37h-39v-16c0-0.4-0.3-0.7-0.7-0.7c-0.4,0-0.7,0.3-0.7,0.7v16.6
		c0,0.4,0.3,0.7,0.7,0.7h40.3c0.4,0,0.7-0.3,0.7-0.7v-6.4C41.6,30.9,41.3,30.6,40.9,30.6"/>
	<path class="st0" d="M40.9,4.6h-5.4V2.4c0-1.3-1.1-2.4-2.4-2.4c-1.3,0-2.4,1.1-2.4,2.4v2.2H10.9V2.4C10.9,1.1,9.9,0,8.5,0
		C7.2,0,6.1,1.1,6.1,2.4v2.2H0.7C0.3,4.6,0,4.9,0,5.3v13.2c0,0.4,0.3,0.7,0.7,0.7c0.4,0,0.7-0.3,0.7-0.7v-4.7h39v14.9
		c0,0.4,0.3,0.7,0.7,0.7c0.4,0,0.7-0.3,0.7-0.7V5.3C41.6,4.9,41.3,4.6,40.9,4.6 M32,2.4c0-0.6,0.5-1.1,1.1-1.1
		c0.6,0,1.1,0.5,1.1,1.1v5.4c0,0.5-0.4,1-0.9,1.1c0,0-0.1,0-0.1,0c0,0,0,0,0,0c0,0,0,0,0,0c0,0,0,0-0.1,0c0,0,0,0,0,0c0,0,0,0-0.1,0
		c0,0,0,0,0,0c0,0,0,0-0.1,0c0,0,0,0,0,0c0,0,0,0-0.1,0c0,0,0,0,0,0c0,0,0,0-0.1,0c0,0,0,0,0,0c0,0-0.1,0-0.1,0c0,0,0,0,0,0
		c-0.1,0-0.1-0.1-0.2-0.1C32.1,8.5,32,8.2,32,7.9V2.4z M7.5,5.3V2.4c0-0.6,0.5-1.1,1.1-1.1c0.6,0,1.1,0.5,1.1,1.1v5.5
		C9.6,8.5,9.1,9,8.5,9C7.9,9,7.5,8.5,7.5,7.9V5.3z M40.3,12.5h-39V5.9h4.8v2c0,1.3,1.1,2.4,2.4,2.4c1.3,0,2.4-1.1,2.4-2.4v-2h19.8v2
		c0,1.3,1.1,2.4,2.4,2.4c0,0,0,0,0,0h0c0,0,0.1,0,0.1,0c0,0,0,0,0,0c0,0,0.1,0,0.1,0c0,0,0,0,0,0h0l0,0c0,0,0.1,0,0.1,0c0,0,0,0,0,0
		c0,0,0.1,0,0.1,0c0,0,0,0,0,0c0,0,0.1,0,0.1,0c0,0,0,0,0,0c0,0,0.1,0,0.1,0c0,0,0,0,0,0c0,0,0.1,0,0.1,0c0,0,0.1,0,0.1,0
		c0,0,0,0,0,0c0,0,0.1,0,0.1,0l0,0c0,0,0.1,0,0.1,0c0,0,0,0,0,0c0,0,0.1,0,0.1,0c0,0,0,0,0,0c0,0,0,0,0.1,0s0,0,0,0c0,0,0,0,0,0
		c0.6-0.4,1-1.1,1-2v-2h4.8V12.5z"/>
	<path class="st0" d="M11.9,18H7.7C7.3,18,7,18.3,7,18.6v4.2c0,0.4,0.3,0.7,0.7,0.7h4.2c0.4,0,0.7-0.3,0.7-0.7v-4.2
		C12.5,18.3,12.2,18,11.9,18 M11.2,22.2H8.3v-2.9h2.9V22.2z"/>
	<path class="st0" d="M19.3,18h-4.2c-0.4,0-0.7,0.3-0.7,0.7v4.2c0,0.4,0.3,0.7,0.7,0.7h4.2c0.4,0,0.7-0.3,0.7-0.7v-4.2
		C20,18.3,19.7,18,19.3,18 M18.6,22.2h-2.9v-2.9h2.9V22.2z"/>
	<path class="st0" d="M26.7,18h-4.2c-0.4,0-0.7,0.3-0.7,0.7v4.2c0,0.4,0.3,0.7,0.7,0.7h4.2c0.4,0,0.7-0.3,0.7-0.7v-4.2
		C27.4,18.3,27.1,18,26.7,18 M26.1,22.2h-2.9v-2.9h2.9V22.2z"/>
	<path class="st0" d="M34.1,18h-4.2c-0.4,0-0.7,0.3-0.7,0.7v4.2c0,0.4,0.3,0.7,0.7,0.7h4.2c0.4,0,0.7-0.3,0.7-0.7v-4.2
		C34.8,18.3,34.5,18,34.1,18 M33.5,22.2h-2.9v-2.9h2.9V22.2z"/>
	<path class="st0" d="M11.9,26.1H7.7c-0.4,0-0.7,0.3-0.7,0.7V31c0,0.4,0.3,0.7,0.7,0.7h4.2c0.4,0,0.7-0.3,0.7-0.7v-4.2
		C12.5,26.4,12.2,26.1,11.9,26.1 M11.2,30.4H8.3v-2.9h2.9V30.4z"/>
	<path class="st0" d="M19.3,26.1h-4.2c-0.4,0-0.7,0.3-0.7,0.7V31c0,0.4,0.3,0.7,0.7,0.7h4.2c0.4,0,0.7-0.3,0.7-0.7v-4.2
		C20,26.4,19.7,26.1,19.3,26.1 M18.6,30.4h-2.9v-2.9h2.9V30.4z"/>
	<path class="st0" d="M28.8,27.7c-0.1-0.4-0.5-0.7-0.9-0.7l-1.4-0.2l-0.6-1.3c-0.2-0.4-0.5-0.6-1-0.6c-0.4,0-0.8,0.2-1,0.6l-0.6,1.3
		l-1.4,0.2c-0.4,0.1-0.7,0.3-0.9,0.7c-0.1,0.4,0,0.8,0.3,1.1l1,1L22,31.2c-0.1,0.4,0.1,0.8,0.4,1c0.2,0.1,0.4,0.2,0.6,0.2
		c0.2,0,0.3,0,0.5-0.1l1.3-0.7l1.3,0.7c0.4,0.2,0.8,0.2,1.1-0.1c0.3-0.2,0.5-0.6,0.4-1l-0.2-1.4l1-1C28.8,28.5,28.9,28,28.8,27.7
		 M26.5,28.9c-0.3,0.2-0.4,0.6-0.3,0.9l0.2,1.1l-1-0.5c-0.3-0.2-0.7-0.2-1,0l-1,0.5l0.2-1.1c0.1-0.3-0.1-0.7-0.3-0.9l-0.8-0.8
		l1.1-0.2c0.3-0.1,0.6-0.3,0.8-0.6l0.5-1l0.5,1c0.2,0.3,0.5,0.5,0.8,0.6l1.1,0.2L26.5,28.9z"/>
</g>
</svg>
