<?xml version="1.0" encoding="utf-8"?>
<!-- Generator: Adobe Illustrator 19.0.1, SVG Export Plug-In . SVG Version: 6.00 Build 0)  -->
<svg version="1.1" id="Слой_1" xmlns="http://www.w3.org/2000/svg" xmlns:xlink="http://www.w3.org/1999/xlink" x="0px" y="0px"
	 viewBox="0 0 38.6 45.8" style="enable-background:new 0 0 38.6 45.8;" xml:space="preserve">
<style type="text/css">
	.st0{clip-path:url(#SVGID_2_);fill:#863A81;}
</style>
<g>
	<defs>
		<rect id="SVGID_1_" y="0" width="38.6" height="45.8"/>
	</defs>
	<clipPath id="SVGID_2_">
		<use xlink:href="#SVGID_1_"  style="overflow:visible;"/>
	</clipPath>
	<path class="st0" d="M35.1,0H9.3C7.4,0,5.7,1.6,5.7,3.5V33H0v6.4c0,1.9,1.6,3.6,3.6,3.6H11c0.1,0.2,0.2,0.3,0.3,0.5l0.8,1.1v1.2
		h1.3v-1.2l0.9-1.2c0.8-1.1,1.3-2.5,1.3-3.8V27.9h12.3v-1.3H15.7v-3c0,0,0,0,0,0h12.2v-1.3H15.3c-0.5-0.9-1.4-1.5-2.5-1.5
		c-1.6,0-2.8,1.2-2.8,2.8v1.5H9.2v-1.5H7.9v9.3h1.3v-6.4H10v13.1c0,0.7,0.2,1.3,0.4,2h-4c0.5-0.6,0.7-1.4,0.7-2.2V3.5
		c0-1.2,1-2.2,2.2-2.2h23c-0.5,0.6-0.8,1.4-0.8,2.2v35.8c0,1.2-0.9,2.2-2.1,2.2H17.2v1.3h12.2c1.9,0,3.5-1.6,3.5-3.6V9.9h5.7V3.5
		C38.6,1.6,37,0,35.1,0 M5.7,39.4c0,1.2-1,2.2-2.2,2.2s-2.2-1-2.2-2.2v-5h4.4V39.4z M11.4,23.6c0-0.8,0.7-1.5,1.5-1.5
		c0.8,0,1.5,0.7,1.5,1.5v10.1h-3V23.6z M11.4,35.1h3v4.5c0,1.1-0.3,2.2-1,3l-0.5,0.6l-0.5-0.6c-0.7-0.9-1-1.9-1-3V35.1z M37.2,8.6
		h-4.4V3.5c0-1.2,1-2.2,2.2-2.2c1.2,0,2.2,1,2.2,2.2V8.6z"/>
	<rect x="10.7" y="9.4" class="st0" width="17.2" height="1.3"/>
	<rect x="22.9" y="11.5" class="st0" width="1.4" height="1.3"/>
	<rect x="18.6" y="11.5" class="st0" width="1.4" height="1.3"/>
	<rect x="14.3" y="11.5" class="st0" width="1.4" height="1.3"/>
	<rect x="10.7" y="13.7" class="st0" width="17.2" height="1.3"/>
	<rect x="10.7" y="18" class="st0" width="17.2" height="1.3"/>
	<rect x="19.3" y="30.9" class="st0" width="8.6" height="1.3"/>
</g>
</svg>
