<?xml version="1.0" encoding="utf-8"?>
<!-- Generator: Adobe Illustrator 19.0.1, SVG Export Plug-In . SVG Version: 6.00 Build 0)  -->
<svg version="1.1" id="Слой_1" xmlns="http://www.w3.org/2000/svg" xmlns:xlink="http://www.w3.org/1999/xlink" x="0px" y="0px"
	 viewBox="0 0 36.8 42.9" style="enable-background:new 0 0 36.8 42.9;" xml:space="preserve">
<style type="text/css">
	.st0{clip-path:url(#SVGID_2_);fill:#863A81;}
</style>
<g>
	<defs>
		<rect id="SVGID_1_" width="36.8" height="42.9"/>
	</defs>
	<clipPath id="SVGID_2_">
		<use xlink:href="#SVGID_1_"  style="overflow:visible;"/>
	</clipPath>
	<path class="st0" d="M14.5,4.8c0.5,0.2,0.9,0.4,1.3,0.6c0.1,0.1,0.2,0.1,0.3,0.1c0.2,0,0.5-0.1,0.6-0.3c0.2-0.3,0.1-0.8-0.3-0.9
		c-0.5-0.3-1-0.5-1.6-0.7c-0.4-0.1-0.8,0.1-0.9,0.4C13.9,4.2,14.1,4.6,14.5,4.8"/>
	<path class="st0" d="M19.2,12.2c0,1-0.1,2.1-0.4,3.1c-0.1,0.4,0.1,0.7,0.5,0.8c0.1,0,0.1,0,0.2,0c0.3,0,0.6-0.2,0.7-0.5
		c0.3-1.1,0.4-2.3,0.4-3.4c0-2.4-0.6-4.4-1.8-6c-0.2-0.3-0.7-0.4-1-0.1c-0.3,0.2-0.4,0.7-0.1,1C18.7,8.3,19.2,10,19.2,12.2"/>
	<path class="st0" d="M9.2,22.7c-1.7-1.2-3.3-3.4-4.1-6c-0.1-0.4-0.5-0.6-0.9-0.4c-0.4,0.1-0.6,0.5-0.4,0.9c1,2.9,2.7,5.4,4.6,6.7
		C8.5,23.9,8.7,24,8.8,24c0.2,0,0.4-0.1,0.6-0.3C9.6,23.4,9.5,22.9,9.2,22.7"/>
	<path class="st0" d="M33.3,11.3c-2.1-2-5.1-3.2-8.3-3.2c-0.7,0-1.4,0.1-2,0.1c-0.5-2-1.5-3.7-2.9-5.1C18,1.1,15,0,11.8,0
		C8.5,0,5.6,1.1,3.4,3.2C1.2,5.4,0,8.5,0,12.2c0,3.7,1.2,7.6,3.4,10.7c1.8,2.6,4.1,4.3,6.5,4.9c-0.2,0.3-0.3,0.7-0.3,1v1.5
		c0,0.4,0.3,0.7,0.7,0.7H11c-0.1,0.4-0.2,0.7-0.3,1c-0.2,0.5-0.4,1.1-0.4,2.2c0,1.1,0.2,1.7,0.4,2.2c0.2,0.5,0.3,0.9,0.3,1.7
		c0,0.9-0.1,1.3-0.3,1.7c-0.2,0.5-0.4,1.1-0.4,2.2c0,0.4,0.3,0.7,0.7,0.7s0.7-0.3,0.7-0.7c0-0.9,0.1-1.3,0.3-1.7
		c0.2-0.5,0.4-1.1,0.4-2.2c0-1.1-0.2-1.7-0.4-2.2c-0.2-0.5-0.3-0.9-0.3-1.7c0-0.9,0.1-1.3,0.3-1.7c0.1-0.4,0.3-0.8,0.4-1.5h0.8
		c0.4,0,0.7-0.3,0.7-0.7v-1.5c0-0.4-0.1-0.7-0.3-1c0.3-0.1,0.7-0.2,1-0.3c1.8,4.5,5,7.6,8.4,8.4c-0.2,0.3-0.3,0.6-0.3,1v1.5
		c0,0.4,0.3,0.7,0.7,0.7h0.7c-0.1,0.4-0.2,0.7-0.3,1c-0.2,0.5-0.4,1.1-0.4,2.2c0,0.4,0.3,0.7,0.7,0.7c0.4,0,0.7-0.3,0.7-0.7
		c0-0.9,0.1-1.3,0.3-1.7c0.1-0.4,0.3-0.8,0.4-1.5h0.8c0.4,0,0.7-0.3,0.7-0.7v-1.5c0-0.4-0.1-0.7-0.3-1c2.4-0.6,4.7-2.3,6.5-4.9
		c2.1-3,3.4-6.9,3.4-10.7C36.8,16.6,35.6,13.5,33.3,11.3 M4.5,22c-2-2.8-3.1-6.4-3.1-9.9c0-3.3,1-6.1,3-8c1.8-1.8,4.5-2.8,7.3-2.8
		s5.5,1,7.3,2.8c2,1.9,3,4.7,3,8c0,3.5-1.1,7.1-3.1,9.9c-2,2.9-4.6,4.5-7.3,4.5S6.5,24.9,4.5,22 M12.5,28.7v0.8H11v-0.8
		c0-0.4,0.4-0.8,0.8-0.8C12.2,27.9,12.5,28.3,12.5,28.7 M25.8,36.8v0.8h-1.6v-0.8c0-0.4,0.4-0.8,0.8-0.8
		C25.5,36,25.8,36.4,25.8,36.8 M32.3,30.2c-2,2.9-4.6,4.5-7.3,4.5c-1.9,0-3.7-0.8-5.4-2.3c-1.5-1.4-2.8-3.3-3.7-5.5
		c0.4-0.3,0.9-0.5,1.3-0.9c1,2.6,2.6,4.8,4.4,6.1c0.1,0.1,0.3,0.1,0.4,0.1c0.2,0,0.4-0.1,0.6-0.3c0.2-0.3,0.1-0.7-0.2-1
		c-1.7-1.2-3.2-3.4-4.1-5.9c0.6-0.6,1.2-1.3,1.7-2.1c2.1-3,3.4-6.9,3.4-10.7c0-0.9-0.1-1.7-0.2-2.5c0.6-0.1,1.1-0.1,1.7-0.1
		c2.9,0,5.5,1,7.3,2.8c2,1.9,3,4.7,3,8C35.4,23.7,34.3,27.3,32.3,30.2"/>
	<path class="st0" d="M32.1,14.3c-0.2-0.3-0.7-0.4-1-0.1c-0.3,0.2-0.4,0.7-0.1,1c1,1.3,1.5,3,1.5,5.1c0,1-0.1,2.1-0.4,3.1
		c-0.1,0.4,0.2,0.7,0.5,0.8c0.1,0,0.1,0,0.2,0c0.3,0,0.6-0.2,0.7-0.5c0.3-1.1,0.4-2.3,0.4-3.4C33.8,17.9,33.2,15.8,32.1,14.3"/>
	<path class="st0" d="M29.8,12.3c-0.5-0.3-1-0.5-1.6-0.7c-0.4-0.1-0.8,0.1-0.9,0.4c-0.1,0.4,0.1,0.8,0.4,0.9
		c0.5,0.2,0.9,0.4,1.3,0.6c0.1,0.1,0.2,0.1,0.3,0.1c0.2,0,0.5-0.1,0.6-0.3C30.2,12.9,30.1,12.5,29.8,12.3"/>
</g>
</svg>
