<?xml version="1.0" encoding="utf-8"?>
<!-- Generator: Adobe Illustrator 19.0.1, SVG Export Plug-In . SVG Version: 6.00 Build 0)  -->
<svg version="1.1" id="Слой_1" xmlns="http://www.w3.org/2000/svg" xmlns:xlink="http://www.w3.org/1999/xlink" x="0px" y="0px"
	 viewBox="0 0 39.6 38.3" style="enable-background:new 0 0 39.6 38.3;" xml:space="preserve">
<style type="text/css">
	.st0{clip-path:url(#SVGID_2_);fill:#FFFFFF;}
</style>
<g>
	<defs>
		<rect id="SVGID_1_" y="0" width="39.6" height="38.3"/>
	</defs>
	<clipPath id="SVGID_2_">
		<use xlink:href="#SVGID_1_"  style="overflow:visible;"/>
	</clipPath>
	<path class="st0" d="M39.1,7.3C38.6,6.9,38,6.8,37.4,7c-0.9,0.4-1.8,0.6-2.5,0.7c0.9-1.4,1.7-3.3,2.4-5.6c0.2-0.7-0.1-1.4-0.6-1.7
		c-0.6-0.4-1.3-0.4-1.9,0c-2,1.4-4.8,2.3-8.3,2.7c-2.8,0.3-5,1.3-6.8,3c-1.7-1.7-4-2.7-6.8-3C9.6,2.6,6.8,1.7,4.8,0.3
		c-0.6-0.4-1.3-0.4-1.9,0C2.4,0.7,2.1,1.4,2.3,2c0.1,0.4,0.2,0.8,0.4,1.2c0.1,0.3,0.4,0.5,0.7,0.4s0.5-0.4,0.4-0.7
		C3.7,2.6,3.5,2.2,3.4,1.7C3.4,1.5,3.5,1.3,3.6,1.2s0.3-0.2,0.5,0c2.2,1.5,5.2,2.5,8.8,2.9c2.7,0.3,4.9,1.3,6.4,3
		c0.1,0.1,0.3,0.2,0.4,0.2c0.2,0,0.3-0.1,0.4-0.2c1.6-1.7,3.7-2.8,6.4-3c3.6-0.4,6.6-1.3,8.8-2.9c0.2-0.2,0.5,0,0.5,0
		c0.1,0,0.3,0.2,0.2,0.5c-0.5,2-1.5,4.8-3,6.3C33,8.2,33,8.4,33.1,8.6C33.2,8.9,33.4,9,33.6,9c0,0,2.1,0,4.3-0.9
		c0.2-0.1,0.4,0,0.5,0.1c0.1,0.1,0.2,0.2,0.1,0.5c-0.4,1.4-1.2,3.6-2.9,5.4c-1.9,2.1-4.3,3.3-7.4,3.6c-3.5,0.3-6.2-0.2-8.1-1.5
		c-0.2-0.1-0.5-0.1-0.7,0c-1.9,1.3-4.6,1.8-8.1,1.5c-3-0.3-5.5-1.5-7.4-3.6c-1.6-1.8-2.5-3.9-2.9-5.4C1.1,8.4,1.3,8.2,1.3,8.2
		C1.4,8.1,1.5,8,1.8,8.1C4,9,6,9,6,9c0.2,0,0.4-0.1,0.5-0.4c0.1-0.2,0-0.5-0.1-0.6C5.7,7.3,5.1,6.3,4.5,5C4.4,4.7,4.1,4.5,3.8,4.7
		C3.5,4.8,3.3,5.1,3.5,5.4C3.8,6.3,4.2,7,4.7,7.7C4,7.6,3.1,7.4,2.2,7C1.6,6.8,1,6.9,0.5,7.3c-0.5,0.4-0.6,1-0.5,1.6
		c0.4,1.6,1.3,3.9,3.1,5.8c0.5,0.6,1.1,1.1,1.7,1.6v20.2c0,0.9,0.8,1.7,1.7,1.7c0.9,0,1.7-0.8,1.7-1.7V19.6c0-0.3-0.3-0.6-0.6-0.6
		c-0.3,0-0.6,0.3-0.6,0.6v16.9c0,0.3-0.2,0.5-0.6,0.5c-0.3,0-0.5-0.2-0.5-0.5V17.1c1.5,0.9,3.3,1.4,5.3,1.6c3.6,0.3,6.4-0.2,8.5-1.5
		c1.7,1,3.8,1.6,6.5,1.6c0.7,0,1.4,0,2.1-0.1c3.3-0.3,6.1-1.6,8.1-3.9c1.8-2,2.7-4.3,3.1-5.8C39.8,8.3,39.6,7.7,39.1,7.3"/>
	<path class="st0" d="M17.3,10.4c-0.3-0.9-1-1.6-1.9-2c-0.9-0.4-2.5-0.7-3.8-0.7c-1.3,0-3,0.2-3.5,1.3c-0.5,1.1,0.4,2.6,1.3,3.5
		c0.9,1,2.2,2,3,2.4c0.5,0.2,1,0.3,1.5,0.3c0.4,0,0.9-0.1,1.3-0.2c0.9-0.3,1.6-1,2-1.9C17.6,12.3,17.6,11.3,17.3,10.4 M16.2,12.7
		c-0.3,0.6-0.8,1.1-1.4,1.3c-0.6,0.2-1.3,0.2-1.9-0.1c-1.5-0.7-4.2-3.4-3.7-4.4c0.2-0.4,2-1.4,5.8-0.1c0.6,0.2,1.1,0.8,1.3,1.4
		C16.5,11.4,16.4,12.1,16.2,12.7"/>
	<path class="st0" d="M31.5,9C31,7.8,29.4,7.6,28,7.6c-1.4,0-2.9,0.3-3.8,0.7c-0.9,0.4-1.6,1.1-1.9,2c-0.3,0.9-0.3,1.9,0.1,2.8
		c0.4,0.9,1.1,1.6,2,1.9c0.4,0.2,0.8,0.2,1.3,0.2c0.5,0,1-0.1,1.5-0.3c0.9-0.4,2.1-1.4,3-2.4C31.2,11.5,32.1,10.1,31.5,9 M29.4,11.7
		c-0.9,1-2,1.9-2.7,2.1c-0.6,0.3-1.3,0.3-1.9,0.1c-0.6-0.2-1.1-0.7-1.4-1.3c-0.3-0.6-0.3-1.3-0.1-1.9c0.2-0.6,0.7-1.1,1.3-1.4
		c3.1-1.3,5.6-0.4,5.8,0.1C30.7,9.9,30.3,10.8,29.4,11.7"/>
	<path class="st0" d="M34.2,9.6c-1,0-1.7,0.8-1.7,1.7c0,1,0.8,1.7,1.7,1.7c1,0,1.7-0.8,1.7-1.7C36,10.3,35.2,9.6,34.2,9.6
		 M34.2,11.9c-0.3,0-0.6-0.3-0.6-0.6s0.3-0.6,0.6-0.6c0.3,0,0.6,0.3,0.6,0.6S34.5,11.9,34.2,11.9"/>
	<path class="st0" d="M31.9,12.8c-0.7,0-1.4,0.6-1.4,1.4s0.6,1.4,1.4,1.4c0.7,0,1.4-0.6,1.4-1.4S32.7,12.8,31.9,12.8 M31.9,14.3
		c-0.1,0-0.2-0.1-0.2-0.2c0-0.1,0.1-0.2,0.2-0.2c0.1,0,0.2,0.1,0.2,0.2C32.1,14.2,32.1,14.3,31.9,14.3"/>
	<path class="st0" d="M29.5,16.3c0,0.3-0.3,0.6-0.6,0.6c-0.3,0-0.6-0.3-0.6-0.6c0-0.3,0.3-0.6,0.6-0.6
		C29.2,15.7,29.5,15.9,29.5,16.3"/>
	<path class="st0" d="M5.4,9.6c-1,0-1.7,0.8-1.7,1.7c0,1,0.8,1.7,1.7,1.7s1.7-0.8,1.7-1.7C7.2,10.3,6.4,9.6,5.4,9.6 M5.4,11.9
		c-0.3,0-0.6-0.3-0.6-0.6s0.3-0.6,0.6-0.6C5.7,10.7,6,11,6,11.3S5.7,11.9,5.4,11.9"/>
	<path class="st0" d="M7.7,12.8c-0.7,0-1.4,0.6-1.4,1.4s0.6,1.4,1.4,1.4c0.7,0,1.4-0.6,1.4-1.4S8.4,12.8,7.7,12.8 M7.7,14.3
		c-0.1,0-0.2-0.1-0.2-0.2c0-0.1,0.1-0.2,0.2-0.2c0.1,0,0.2,0.1,0.2,0.2C7.9,14.2,7.8,14.3,7.7,14.3"/>
	<path class="st0" d="M11.3,16.3c0,0.3-0.3,0.6-0.6,0.6c-0.3,0-0.6-0.3-0.6-0.6c0-0.3,0.3-0.6,0.6-0.6C11,15.7,11.3,15.9,11.3,16.3"
		/>
</g>
</svg>
