<?xml version="1.0" encoding="utf-8"?>
<!-- Generator: Adobe Illustrator 19.0.1, SVG Export Plug-In . SVG Version: 6.00 Build 0)  -->
<svg version="1.1" id="Слой_1" xmlns="http://www.w3.org/2000/svg" xmlns:xlink="http://www.w3.org/1999/xlink" x="0px" y="0px"
	 viewBox="0 0 43.8 43.4" style="enable-background:new 0 0 43.8 43.4;" xml:space="preserve">
<style type="text/css">
	.st0{clip-path:url(#SVGID_2_);fill:#835D8D;}
</style>
<g>
	<defs>
		<rect id="SVGID_1_" y="0" width="43.8" height="43.4"/>
	</defs>
	<clipPath id="SVGID_2_">
		<use xlink:href="#SVGID_1_"  style="overflow:visible;"/>
	</clipPath>
	<path class="st0" d="M23.5,20.7c-0.1-0.4-0.6-0.2-0.6,0.1c-0.2,1.2-0.2,2.5-0.6,3.7c-0.5,1.4-1.4,2-2.3,3c-0.3,0.3-0.6,0.7-0.8,1
		c-0.4-0.1-0.9,0.1-1,0.5c-0.1,0.2-0.1,0.5-0.2,0.7c-0.1-0.3-0.2-0.6-0.3-0.9c0-0.2,0-0.4,0-0.6L17.6,28c0.9-0.2,1.7-0.6,2.4-1.2
		l0.1-0.1c0.6,0,0.6-0.7,0.3-0.9c0.6-0.7,1.2-1.5,1.5-2.4c0.6-1.4,0.8-2.8,0.9-4.3c0.1-1.3,0.3-2.7-0.4-3.9
		c-0.2-0.3-0.7-0.2-0.7,0.2c-0.3,3.9-0.5,9.5-5.2,11c-0.2,0.1-0.3,0.2-0.4,0.3c-0.2,0-0.4,0-0.7,0c-0.6,0-1.1-0.2-1.7-0.3
		c-0.4-0.1-0.6,0.3-0.3,0.6c0.5,0.5,1.2,0.8,1.8,1c0,0.1,0.1,0.1,0.2,0.2l0.1,0c0,0.1,0.1,0.2,0.2,0.2l0.2,0.1l0,0.1
		c0,0.3,0,0.5,0,0.8c-0.3,0.9-0.3,1.8,0,2.8c0.1,0.5,0.7,0.5,1,0.3c0.2,0,0.5-0.1,0.6-0.3c0.3,0,0.6-0.1,0.6-0.5
		c0.2,0.5,0.5,1,1,1.4c0.1,0.1,0.2,0.2,0.3,0.2l0,0.1c-0.1,0.5-0.2,1-0.3,1.4c-0.2-0.1-0.5-0.1-0.7-0.2l0-0.1
		c-0.1-0.4-0.8-0.5-0.9,0c-0.1,1-0.6,1.8-0.2,2.8c0.5,1.2,1.1,2.3,1.4,3.6c0.2,1,1.8,0.6,1.6-0.4c-0.3-1-0.6-2-1.1-2.9
		c-0.3-0.6-0.7-1-0.7-1.7l0-0.2l0,0c0.2,0.1,0.5,0.3,0.7,0.4c0.3,0.2,0.7,0,0.9-0.2c0.5-0.7,0.8-1.7,0.7-2.5c0-0.3-0.2-0.5-0.5-0.6
		c0.1-0.2,0-0.5-0.2-0.7c0-0.1,0-0.2,0-0.3c-0.8-2.6,1.7-3.6,2.7-5.6C23.8,24.4,23.8,22.5,23.5,20.7"/>
	<path class="st0" d="M17.3,33.6c-0.2-0.4-1-0.7-1.2-0.2c-0.2,0.4-0.1,0.9-0.5,1.3c-0.4,0.4-0.9,0.4-1.4,0.2
		c-0.4-0.1-0.6,0.4-0.3,0.6c0.7,0.5,1.6,0.5,2.4,0.1C16.8,35.4,17.6,34.4,17.3,33.6"/>
	<path class="st0" d="M28,33c-0.4-0.6-1.5-0.2-1.2,0.5c0.3,0.7,0.7,1.4,1,2.2c0.3,0.7,0.4,1.5,0.7,2.3c0.1,0.2,0.5,0.3,0.6,0
		C29.4,36.4,28.9,34.3,28,33"/>
	<path class="st0" d="M38.7,12.1c-3.5,1-7.3,0.1-10.8,1.2c-0.2,0.1-0.2,0.4,0,0.4c1.9,0.4,3.9,0.3,5.8,0.3c1.8,0,3.7,0.1,5.4-0.5
		C40.1,13.2,39.7,11.8,38.7,12.1"/>
	<path class="st0" d="M41,9.1c-0.1-0.2-0.4-0.3-0.7-0.2c-0.4,0.1-0.7,0.4-0.9,0.7c-0.4,0.8-0.4,2.2,0.3,2.8c0.9,0.8,1.9-0.1,2.1-1
		C42.1,10.6,42,9.5,41,9.1"/>
	<path class="st0" d="M22.9,13.1c-0.7,0.2-1.5,0.4-2.2,0.7c-0.4,0.2-0.2,0.9,0.3,0.9c0.8,0,1.6-0.2,2.3-0.4
		C24,14.1,23.7,12.9,22.9,13.1"/>
	<path class="st0" d="M19.1,19.1c-0.3-0.3-0.8-0.3-1.1,0c-0.2,0.2-0.3,0.3-0.4,0.5l-0.1,0c-0.4,0-0.6,0.4-0.3,0.7
		c0.2,0.2,0.3,0.3,0.5,0.4c0.2,0.1,0.5,0.1,0.7,0c0.3-0.2,0.6-0.4,0.8-0.6C19.4,19.8,19.5,19.3,19.1,19.1"/>
	<path class="st0" d="M14.1,15c-0.2-0.3-0.6-0.3-0.8-0.1C13.3,15,13.2,15,13.1,15l-0.2,0l-0.2,0.1c-0.1,0-0.2,0.2-0.2,0.3
		c0,0.1,0.1,0.2,0.2,0.3c0.1,0.1,0.3,0.1,0.4,0.2c0.3,0.1,0.6,0,1-0.1C14.3,15.6,14.3,15.2,14.1,15"/>
	<path class="st0" d="M22.2,7.2C22,7.1,21.8,7,21.6,7c1-0.7,1.7-1.8,1.7-3.3c0-1-1.7-1-1.7,0c0,4.4-7.6,2.7-10.5,3.9
		c-3.4,1.4-4,5.1-3.9,8.2c0,0.2,0.1,0.3,0.3,0.3c-0.2,0.2,0.1,0.6,0.4,0.4c2.4-1.4,1.8-5.2,4.4-6.2c1.8-0.7,4.1-0.2,6-0.6
		c1.1-0.2,3.6-0.4,4.2-1.5C22.6,7.8,22.5,7.5,22.2,7.2 M10.8,9.7c-1.9,1.5-1.6,4.1-2.9,6c0.4-2.1,0.6-4.4,2.3-5.9
		c1.7-1.6,4.2-1.3,6.4-1.3c0.4,0,0.8,0,1.1-0.1c-1.1,0.2-2.1,0.3-3.2,0.4C13.3,8.8,11.9,8.8,10.8,9.7 M19.3,8.1
		c0.5-0.1,1-0.3,1.5-0.5l-0.1,0.2C20.4,7.8,19.8,8,19.3,8.1"/>
	<path class="st0" d="M6.9,17.2c-0.2-0.3-0.6-0.5-0.9-0.3c-0.6,0.3-1.2,0.8-1.3,1.5c-0.1,0.3,0.4,0.7,0.7,0.4
		c0.3-0.4,0.7-0.7,1.2-0.8C6.9,18,7,17.5,6.9,17.2"/>
	<path class="st0" d="M13.7,36.6c-0.2-0.3-0.5-0.6-0.7-0.8c-0.2-0.2-0.4-0.4-0.6-0.5c-0.5-0.3-1.1-0.3-1.6,0.1
		c-0.3,0.3-0.1,0.8,0.4,0.8c0.3,0,0.4,0.2,0.6,0.4c0.3,0.3,0.5,0.7,0.8,1C13.1,38,14.1,37.3,13.7,36.6"/>
	<path class="st0" d="M35.9,22.2c-0.2-0.3-0.7-0.1-0.6,0.3c0.4,1.5,1.2,3,1.4,4.6c-0.2,0.1-0.4,0.3-0.4,0.6c0.2,1.9,0.2,3.7,0,5.6
		c0-0.9,0-1.7-0.1-2.5c-0.3-3.3-0.6-7-2.4-9.9c-0.1-0.1-0.2-0.2-0.3-0.1c-0.1-0.3-0.3-0.6-0.4-0.9c0.1-0.1,0.3-0.2,0.3-0.3l0.1-0.1
		c0.2-0.3,0.1-0.7-0.1-0.9l-0.1-0.1L33,18.3l-0.1-0.2l-0.6-0.9c-0.2-0.3-0.3-0.4-0.2-0.6c0.1-0.3,0.4-0.7,0.5-0.9
		c0.2-0.5,0-1.1-0.7-1.1c-0.8,0-2.1,0-2.6,0.6c-0.1,0.2-0.1,0.3,0.1,0.5c0.3,0.2,0.8,0.3,1.3,0.3c-0.3,0.5-0.4,1.1,0,1.7
		c0.3,0.5,0.6,1.3,1.1,1.8c-0.3,0.2-0.5,0.6-0.2,1c3.8,6.9,3.2,14.9-0.5,21.7c-0.2,0.4,0.3,0.7,0.6,0.3c0.9-1.1,1.6-2.3,2.1-3.5
		c0.2,0.1,0.5,0.1,0.7-0.1c0.6-0.7,1.1-1.6,1.3-2.5l0,0c-0.3,1.5-0.7,2.9-1.8,4c-0.8,0.9-1.8,1.6-2.7,2.4c-0.2,0.2,0,0.7,0.4,0.6
		c1.8-0.7,3.3-1.8,4.3-3.2c0.2,0,0.3-0.1,0.4-0.3c0.7-1.3,1-2.6,1.1-3.9c0.4-2.2,0.7-4.5,0.4-6.8C38.5,26.8,37.1,24.3,35.9,22.2"/>
	<path class="st0" d="M40.2,14c-1.1,0.1-2.2,0.3-3.4,0.4c-0.9,0.1-1.9,0.1-2.7,0.4c-1.4,0.4-0.7,2-0.4,3c0.1,0.4,0.6,0.3,0.7-0.1
		c0.1-0.6-0.2-1.3,0.5-1.6c0.4-0.2,1.2-0.1,1.7-0.1c1.2-0.1,2.4-0.2,3.6-0.4C41.3,15.5,41.3,13.9,40.2,14"/>
	<path class="st0" d="M0.7,40.9c-0.2,0-0.5-0.2-0.5-0.4C0.1,39.9,0,39.3,0,38.7c0-5.3,4.1-5.7,7.3-6c3-0.3,4.9-0.6,4.9-3
		c0-1.1-0.4-1.3-1.3-1.7c-1.5-0.8-3.7-2-4.3-8.6l-0.1,0C6.3,19.7,5.8,20,5.2,20c-0.7,0-1.8-0.3-1.8-2.2c0-1.6,1.5-2.4,2.1-2.4
		c0.5,0,1.5,0.7,1.8,1.6c0.1,0.3,0,0.5-0.3,0.6c-0.3,0.1-0.6,0-0.7-0.3c-0.2-0.5-0.7-0.8-0.9-0.9c-0.2,0.1-1.1,0.5-1.1,1.4
		C4.4,19,5,19,5.2,19c0.3,0,0.5-0.2,0.7-0.4c0.2-0.2,0.5-0.4,0.8-0.4c0.5,0,0.8,0.3,0.9,0.7c0.6,6.4,2.5,7.4,3.9,8.1
		c0.9,0.5,1.8,1,1.8,2.6c0,3.4-3.1,3.7-5.8,4C4.1,34,1,34.2,1,38.7c0,0.5,0.1,1.1,0.2,1.6c0.1,0.3-0.1,0.5-0.4,0.6L0.7,40.9z"/>
	<path class="st0" d="M6.5,16.8c-0.2,0-0.3-0.1-0.4-0.2c-2.2-2.8-3-5.6-3-6.7c0-0.9,1-1.5,1.8-1.5c1,0,1.6,0.7,2.1,1.3
		c0.1,0.1,0.2,0.2,0.2,0.3c0.2,0.2,0.2,0.5-0.1,0.7c-0.2,0.2-0.5,0.1-0.7-0.1c-0.1-0.1-0.2-0.2-0.3-0.3c-0.5-0.6-0.8-1-1.3-1
		c-0.4,0-0.8,0.2-0.8,0.5c0,0.8,0.7,3.5,2.8,6.1c0.2,0.2,0.1,0.5-0.1,0.7C6.7,16.8,6.6,16.8,6.5,16.8"/>
	<path class="st0" d="M7.7,16.9c-0.2,0-0.4-0.1-0.5-0.4c-0.1-0.2,0.1-0.5,0.3-0.6c0.2-0.2,0.4-1.1,0.5-1.8c0.5-2.3,1.3-6.2,5.2-6.2
		c0.1,0,0.3,0,0.6,0c0.8,0,2,0.1,2.7,0.1c1.8,0,6.1-0.4,6.1-3.6C22.6,2.8,21.6,1,19,1c-0.5,0-1,0.1-1.5,0.2c0.2,0.3,0.2,0.6,0.2,1
		c0,2.2-2.6,2.5-5,2.7C9,5.2,6.6,5.6,6.6,8.7c0,0.2,0,0.4,0,0.6c0,0.3-0.2,0.5-0.5,0.5c-0.3,0-0.5-0.2-0.6-0.4c0-0.2,0-0.5,0-0.7
		c0-4.2,3.9-4.5,7.1-4.8c2.5-0.2,4.1-0.4,4.1-1.7c0-0.4-0.1-0.7-0.5-0.9C16.1,1.1,16,0.9,16,0.8c0-0.2,0.2-0.3,0.4-0.4
		C17.3,0.1,18.2,0,19,0c3.2,0,4.6,2.3,4.6,4.4C23.6,7.3,21,9,16.5,9c-0.7,0-2-0.1-2.7-0.1c-0.3,0-0.5,0-0.6,0
		c-2.8,0-3.6,2.6-4.2,5.5c-0.3,1.4-0.5,2.3-1.2,2.5L7.7,16.9z"/>
	<path class="st0" d="M17.6,19.6c-0.3,0-0.5-0.2-0.5-0.4c0-0.3,0.2-0.5,0.5-0.5l0.1,0c0.2,0,0.8-0.1,0.9-0.2
		c-0.1-0.7-0.4-1.4-0.7-2.2c-0.3-0.7-0.6-1.4-0.8-2.3c0-0.3,0.1-0.5,0.4-0.6c0.3,0,0.5,0.1,0.6,0.4c0.1,0.7,0.4,1.4,0.7,2
		c0.4,0.8,0.7,1.6,0.8,2.6l0,0.1c0,0.9-1.2,1-1.9,1.1L17.6,19.6L17.6,19.6z"/>
	<path class="st0" d="M12.2,15.4c-0.2,0-0.5-0.2-0.5-0.4c-0.1-0.3,0.1-0.5,0.4-0.6c1-0.2,2-0.2,3.1-0.1c0.3,0,0.5,0.3,0.4,0.6
		c0,0.3-0.3,0.5-0.6,0.4c-1-0.1-1.9-0.1-2.7,0.1L12.2,15.4z"/>
	<path class="st0" d="M17.2,22.6c-0.8,0-1.6-0.3-2.1-0.9c-0.2-0.2-0.2-0.5,0-0.7c0.2-0.2,0.5-0.2,0.7,0c0.5,0.5,1.3,0.7,2,0.4
		c0.3-0.1,0.6,0,0.7,0.2c0.1,0.2,0,0.5-0.3,0.6C17.9,22.5,17.5,22.6,17.2,22.6"/>
	<path class="st0" d="M23.1,12.3c-0.3,0-0.5-0.2-0.5-0.4C22.3,10.4,22,9,21.5,7.8c-0.1-0.3,0-0.5,0.3-0.6c0.3-0.1,0.6,0,0.7,0.3
		c0.5,1.3,0.9,2.7,1.2,4.3C23.6,12,23.4,12.2,23.1,12.3L23.1,12.3z"/>
	<path class="st0" d="M29.7,35.9c-0.2,0-0.3-0.1-0.4-0.2c-1-1.5-2.8-2.5-4.4-2.5c-0.4,0-0.9,0.1-1.5,0.2c-0.7,0.1-1.4,0.2-2.1,0.2
		c-2.4,0-3.9-1.4-3.9-3.6c0-1.9,0.9-2.7,1.9-3.5c1.6-1.3,3.5-2.9,3.5-10.5c0-0.4,0-0.8,0-1.2c0-0.3,0.2-0.5,0.5-0.5
		c0.3,0,0.5,0.2,0.5,0.5c0,0.4,0,0.8,0,1.3c0,8-2.2,9.9-3.9,11.2c-0.9,0.8-1.6,1.3-1.6,2.8c0,1,0.4,2.6,2.9,2.6
		c0.6,0,1.3-0.1,1.9-0.2c0.6-0.1,1.2-0.2,1.7-0.2c2,0,4.1,1.2,5.3,2.9c0.2,0.2,0.1,0.5-0.2,0.7C29.9,35.9,29.8,35.9,29.7,35.9"/>
	<path class="st0" d="M20.4,15.4c-0.2,0-0.4-0.1-0.5-0.3c-0.3-0.5-0.4-1-0.4-1.5c0-0.5,0.1-1.1,0.4-1.5c0.1-0.1,0.2-0.2,0.4-0.3
		c1.5-0.3,3-0.6,4.4-0.9c0.3-0.1,0.6,0.1,0.6,0.4c0.1,0.3-0.1,0.5-0.4,0.6c-1.4,0.3-2.8,0.6-4.2,0.8c-0.1,0.3-0.2,0.6-0.2,0.9
		c0,0.3,0.1,0.5,0.2,0.8c1,0,2.2-0.1,3.6-0.2c0.3,0,0.5,0.2,0.5,0.5c0,0.3-0.2,0.5-0.5,0.5C22.8,15.3,21.6,15.4,20.4,15.4L20.4,15.4
		z"/>
	<path class="st0" d="M27.3,15c-0.3,0-0.5-0.2-0.5-0.5c0-0.3,0.2-0.5,0.5-0.5c3.6-0.2,6.8-0.4,10.1-0.4c1.3,0,2.4,0,3.6,0.1
		c1.7,0.1,1.8-1.8,1.8-2.7c0-1.4-0.5-3.4-1.7-3.4l-0.1,0c-1.2,0.3-2.6,0.7-4.1,1.1c-1,0.3-2.1,0.6-3.2,0.9C33.3,9.8,33,9.7,33,9.4
		c-0.1-0.3,0.1-0.5,0.3-0.6c1.2-0.3,2.2-0.6,3.2-0.9c1.6-0.5,3-0.9,4.2-1.2c0.1,0,0.2,0,0.3,0c1.9,0,2.8,2.3,2.8,4.4
		c0,2.3-1.1,3.7-2.9,3.6c-1.1-0.1-2.3-0.1-3.5-0.1C34.1,14.6,30.9,14.8,27.3,15L27.3,15z"/>
	<path class="st0" d="M28.1,11.2c-0.2,0-0.4-0.1-0.5-0.4c-0.1-0.3,0.1-0.5,0.4-0.6l0.4-0.1c0.3-0.1,0.6,0.1,0.6,0.4
		c0.1,0.3-0.1,0.5-0.4,0.6l-0.4,0.1L28.1,11.2z"/>
	<path class="st0" d="M40.2,14.4c-1,0-2.3-1.4-2.3-3.6c0-1.8,1-3.2,2.5-3.6C40.7,7,41,7.2,41.1,7.4C41.1,7.7,41,8,40.7,8
		c-1.7,0.5-1.8,2.2-1.8,2.7c0,1.8,1.1,2.7,1.3,2.7c0.3,0,0.5,0.2,0.5,0.5C40.7,14.2,40.5,14.4,40.2,14.4"/>
	<path class="st0" d="M41.3,12.3l-0.2,0c-0.3-0.1-0.4-0.4-0.3-0.6c0.1-0.2,0.1-0.3,0.1-0.5c0-0.4-0.2-0.8-0.4-1.1
		c-0.2-0.2-0.1-0.5,0.1-0.7c0.2-0.2,0.5-0.1,0.7,0.1c0.4,0.5,0.7,1.1,0.7,1.7c0,0.3-0.1,0.6-0.2,0.9C41.7,12.2,41.5,12.3,41.3,12.3"
		/>
	<path class="st0" d="M28.7,38.3l-0.2-0.1c-0.3-0.1-0.3-0.4-0.2-0.7c0.9-1.6,1.3-3.4,1.3-5.6c0-2.6-1.1-12.8-1.9-13.7
		c-2.1-1-4.4-3.1-4.4-5.8c0-0.6,0-2.3,1.8-2.4c0.3,0,0.5,0.2,0.5,0.5S25.3,11,25,11c-0.4,0-0.8,0.2-0.8,1.4c0,2.3,2,4.1,3.8,4.9
		c1.7,0.8,2.5,13.8,2.5,14.6c0,2.4-0.5,4.4-1.4,6.1C29,38.2,28.9,38.3,28.7,38.3"/>
	<path class="st0" d="M27.7,13.8c-0.2,0-0.4-0.1-0.5-0.3c-0.1-0.2-0.1-0.4-0.1-0.6l0,0c-0.3,0.3-0.8,0.6-1.4,0.6
		c-0.9,0-1.5-0.9-1.5-1.7c0-3.3,3.6-4.4,7.1-4.4c0.7,0,2.6,0,2.6,1.8c0,0.9-0.8,1.8-1.2,2.2c-0.3,0.3-1.2,1.2-1.9,1.2
		c-0.3,0-0.5-0.1-0.7-0.4C29.7,12.9,29,13.6,27.7,13.8L27.7,13.8z M28.7,9.2l0.2,0c0.2,0.1,0.4,0.3,0.4,0.5c0,0.7-0.3,1.3-0.6,1.8
		c-0.2,0.4-0.4,0.8-0.5,1.2c1.1-0.5,1.5-1.9,1.6-2.6c0-0.7,0.1-0.9,0.5-0.9c0.3,0,0.5,0.2,0.5,0.5c0,0.1,0,0.3,0,0.6
		c0,0.2,0,0.4,0,0.8c0,0.2,0.1,0.4,0.1,0.5c0.5-0.2,2-1.6,2-2.4c0-0.7-0.4-0.9-1.6-0.9c-5.6,0-6,2.7-6,3.5c0,0.4,0.2,0.7,0.4,0.7
		c0.2,0,0.5-0.2,0.8-0.5c0.4-0.4,0.8-0.9,1.1-1.5c0.2-0.3,0.4-0.7,0.7-1C28.4,9.3,28.6,9.2,28.7,9.2"/>
	<path class="st0" d="M29,15.4c-1.7,0-2.8-0.6-3-1.8c0-0.3,0.1-0.5,0.4-0.6c0.3,0,0.5,0.1,0.6,0.4c0.1,0.8,1.2,1,2,1
		c0.3,0,0.5,0.2,0.5,0.5C29.5,15.1,29.2,15.4,29,15.4"/>
	<path class="st0" d="M31.2,43.4c-0.2,0-0.3-0.1-0.4-0.2c-0.1-0.2-0.1-0.5,0.2-0.7c4.3-2.4,4.8-7.9,4.8-13c0-7.3-3.7-12.3-3.7-12.3
		C32,17.1,32,17,32,16.9c0-0.5,0.3-1,0.6-1.5c0.3-0.4,0.5-0.8,0.6-1.2c0-0.3,0.3-0.5,0.6-0.4c0.3,0,0.5,0.3,0.4,0.5
		c-0.1,0.6-0.4,1.1-0.7,1.6c-0.2,0.3-0.4,0.6-0.5,0.9c0.6,0.9,3.8,5.8,3.8,12.7c0,5.3-0.6,11.2-5.3,13.8L31.2,43.4z"/>
	<path class="st0" d="M29.1,21.4c-0.2,0-0.4-0.1-0.5-0.3c-0.1-0.2,0-0.5,0.3-0.6c1.4-0.5,2.8-1,4.4-1c0.2,0,0.4,0,0.6,0
		c0.3,0,0.5,0.3,0.5,0.5c0,0.3-0.3,0.5-0.6,0.4c-0.2,0-0.4,0-0.5,0c-1.4,0-2.7,0.5-4,1L29.1,21.4z"/>
	<path class="st0" d="M10.3,36.1c-0.1,0-0.2,0-0.3-0.1c-0.1-0.1-0.4-0.2-0.4-0.7c0-0.3,0-0.5,0-0.8c0-0.2,0-0.5,0-0.7
		c0-0.4,0-0.7-0.1-1c-0.1-0.3,0.1-0.5,0.4-0.6c0.3-0.1,0.6,0.1,0.6,0.4c0.1,0.3,0.1,0.7,0.1,1.2c0,0.3,0,0.5,0,0.8l0,0.2
		c0.1-0.1,0.3-0.2,0.4-0.3c1-0.7,2.5-1.7,4.1-1.7c1.6,0,2.8,0.5,3.6,1c-0.1-0.4-0.2-0.8-0.3-1.4c-0.1-0.3,0.1-0.5,0.4-0.6
		c0.3-0.1,0.6,0.1,0.6,0.4c0.2,0.9,0.4,1.6,0.5,2c0.2,0.8,0.3,1.1-0.1,1.3c-0.4,0.2-0.7-0.1-0.9-0.3c-0.5-0.5-1.6-1.5-3.8-1.5
		c-1.3,0-2.6,0.9-3.5,1.5C11.1,35.8,10.6,36.1,10.3,36.1"/>
	<path class="st0" d="M16.8,33.2c-1.1,0-2.1-0.2-3.2-0.3c-0.5-0.1-1.1-0.2-1.7-0.2c-0.3,0-0.5-0.3-0.5-0.5c0-0.3,0.3-0.5,0.6-0.4
		c0.6,0.1,1.2,0.1,1.7,0.2c1,0.2,2,0.3,3,0.3c0.6,0,1.1,0,1.6-0.2c0.3-0.1,0.6,0.1,0.6,0.4c0.1,0.3-0.1,0.5-0.4,0.6
		C18,33.1,17.5,33.2,16.8,33.2"/>
	<path class="st0" d="M14.9,36.8c-1.6,0-2-0.8-2.4-1.6c-0.1-0.2-0.2-0.4-0.3-0.7c-0.1-0.2,0-0.5,0.2-0.7c0.2-0.1,0.6,0,0.7,0.2
		c0.2,0.3,0.3,0.5,0.4,0.8c0.4,0.8,0.5,1,1.4,1c0.7,0,1.2-0.1,1.5-0.4c0.2-0.2,0.2-0.6,0.2-1c0-0.2,0-0.3,0-0.4
		c0-0.3,0.3-0.5,0.6-0.4c0.3,0,0.5,0.3,0.4,0.5c0,0.1,0,0.2,0,0.3c0,0.5,0,1.2-0.5,1.7C16.7,36.6,16,36.8,14.9,36.8"/>
	<path class="st0" d="M12,41.5L12,41.5c-0.4,0-0.6-0.3-0.5-0.6c0.2-1.5,0.9-2.9,1.5-4.3l0.2-0.4c0.1-0.2,0.4-0.4,0.7-0.3
		c0.3,0.1,0.4,0.4,0.3,0.6L14,37c-0.6,1.3-1.2,2.7-1.4,4C12.5,41.3,12.3,41.5,12,41.5"/>
	<path class="st0" d="M18.9,41.3c-0.2,0-0.4-0.1-0.5-0.4c-0.3-1.2-1-2.2-1.6-3.3c-0.3-0.5-0.6-1-0.9-1.4c-0.1-0.2,0-0.5,0.2-0.7
		c0.3-0.1,0.6,0,0.7,0.2c0.3,0.5,0.5,0.9,0.8,1.4c0.7,1.1,1.4,2.2,1.8,3.6c0.1,0.3-0.1,0.5-0.4,0.6L18.9,41.3z"/>
</g>
</svg>
