<?xml version="1.0" encoding="utf-8"?>
<!-- Generator: Adobe Illustrator 19.0.1, SVG Export Plug-In . SVG Version: 6.00 Build 0)  -->
<svg version="1.1" id="Слой_1" xmlns="http://www.w3.org/2000/svg" xmlns:xlink="http://www.w3.org/1999/xlink" x="0px" y="0px"
	 viewBox="0 0 39.7 33.1" style="enable-background:new 0 0 39.7 33.1;" xml:space="preserve">
<style type="text/css">
	.st0{clip-path:url(#SVGID_2_);fill:#FFFFFF;}
</style>
<g>
	<defs>
		<rect id="SVGID_1_" y="0" width="39.7" height="33.1"/>
	</defs>
	<clipPath id="SVGID_2_">
		<use xlink:href="#SVGID_1_"  style="overflow:visible;"/>
	</clipPath>
	<path class="st0" d="M8.9,10.6H6c-0.7,0-1.3,0.6-1.3,1.3v2.9c0,0.7,0.6,1.3,1.3,1.3h2.9c0.7,0,1.3-0.6,1.3-1.3v-2.9
		C10.2,11.2,9.6,10.6,8.9,10.6 M9,14.8c0,0.1,0,0.1-0.1,0.1H6c-0.1,0-0.1,0-0.1-0.1v-2.9c0-0.1,0-0.1,0.1-0.1h2.9
		c0.1,0,0.1,0,0.1,0.1V14.8z"/>
	<path class="st0" d="M15.1,10.6h-2.9c-0.7,0-1.3,0.6-1.3,1.3v2.9c0,0.7,0.6,1.3,1.3,1.3h2.9c0.7,0,1.3-0.6,1.3-1.3v-2.9
		C16.4,11.2,15.8,10.6,15.1,10.6 M15.2,14.8c0,0.1,0,0.1-0.1,0.1h-2.9c-0.1,0-0.1,0-0.1-0.1v-2.9c0-0.1,0-0.1,0.1-0.1h2.9
		c0.1,0,0.1,0,0.1,0.1V14.8z"/>
	<path class="st0" d="M21.3,10.7h-2.9c-0.7,0-1.3,0.6-1.3,1.3v2.9c0,0.7,0.6,1.3,1.3,1.3h2.9c0.7,0,1.3-0.6,1.3-1.3V12
		C22.6,11.3,22,10.7,21.3,10.7 M21.4,14.9c0,0.1,0,0.1-0.1,0.1h-2.9c-0.1,0-0.1,0-0.1-0.1V12c0-0.1,0-0.1,0.1-0.1h2.9
		c0.1,0,0.1,0,0.1,0.1V14.9z"/>
	<path class="st0" d="M27.4,10.7h-2.9c-0.7,0-1.3,0.6-1.3,1.3v2.9c0,0.7,0.6,1.3,1.3,1.3h2.9c0.7,0,1.3-0.6,1.3-1.3V12
		C28.7,11.3,28.1,10.7,27.4,10.7 M27.5,14.9c0,0.1,0,0.1-0.1,0.1h-2.9c-0.1,0-0.1,0-0.1-0.1V12c0-0.1,0-0.1,0.1-0.1h2.9
		c0.1,0,0.1,0,0.1,0.1V14.9z"/>
	<path class="st0" d="M33.6,10.7h-2.9c-0.7,0-1.3,0.6-1.3,1.3v2.9c0,0.7,0.6,1.3,1.3,1.3h2.9c0.7,0,1.3-0.6,1.3-1.3V12
		C34.9,11.3,34.3,10.7,33.6,10.7 M33.7,14.9c0,0.1,0,0.1-0.1,0.1h-2.9c-0.1,0-0.1,0-0.1-0.1V12c0-0.1,0-0.1,0.1-0.1h2.9
		c0.1,0,0.1,0,0.1,0.1V14.9z"/>
	<path class="st0" d="M9,17H6.1c-0.7,0-1.3,0.6-1.3,1.3v2.9c0,0.7,0.6,1.3,1.3,1.3H9c0.7,0,1.3-0.6,1.3-1.3v-2.9
		C10.2,17.6,9.7,17,9,17 M9.1,21.2c0,0.1,0,0.1-0.1,0.1H6.1c-0.1,0-0.1,0-0.1-0.1v-2.9c0-0.1,0-0.1,0.1-0.1H9c0.1,0,0.1,0,0.1,0.1
		V21.2z"/>
	<path class="st0" d="M15.1,17h-2.9c-0.7,0-1.3,0.6-1.3,1.3v2.9c0,0.7,0.6,1.3,1.3,1.3h2.9c0.7,0,1.3-0.6,1.3-1.3v-2.9
		C16.4,17.6,15.8,17,15.1,17 M15.1,21.3h-2.9c-0.1,0-0.1,0-0.1-0.1v-2.9c0-0.1,0-0.1,0.1-0.1h2.9c0.1,0,0.1,0,0.1,0.1v2.9
		C15.2,21.2,15.2,21.3,15.1,21.3"/>
	<path class="st0" d="M21.3,17h-2.9c-0.7,0-1.3,0.6-1.3,1.3v2.9c0,0.7,0.6,1.3,1.3,1.3h2.9c0.7,0,1.3-0.6,1.3-1.3v-2.9
		C22.6,17.6,22,17,21.3,17 M21.4,21.2c0,0.1,0,0.1-0.1,0.1h-2.9c-0.1,0-0.1,0-0.1-0.1v-2.9c0-0.1,0-0.1,0.1-0.1h2.9
		c0.1,0,0.1,0,0.1,0.1V21.2z"/>
	<path class="st0" d="M27.4,17h-2.9c-0.7,0-1.3,0.6-1.3,1.3v2.9c0,0.7,0.6,1.3,1.3,1.3h2.9c0.7,0,1.3-0.6,1.3-1.3v-2.9
		C28.7,17.6,28.1,17,27.4,17 M27.5,21.2c0,0.1,0,0.1-0.1,0.1h-2.9c-0.1,0-0.1,0-0.1-0.1v-2.9c0-0.1,0-0.1,0.1-0.1h2.9
		c0.1,0,0.1,0,0.1,0.1V21.2z"/>
	<path class="st0" d="M33.6,17h-2.9c-0.7,0-1.3,0.6-1.3,1.3v2.9c0,0.7,0.6,1.3,1.3,1.3h2.9c0.7,0,1.3-0.6,1.3-1.3v-2.9
		C34.9,17.6,34.3,17,33.6,17 M33.7,21.2c0,0.1,0,0.1-0.1,0.1h-2.9c-0.1,0-0.1,0-0.1-0.1v-2.9c0-0.1,0-0.1,0.1-0.1h2.9
		c0.1,0,0.1,0,0.1,0.1V21.2z"/>
	<path class="st0" d="M15.1,23.3h-2.9c-0.7,0-1.3,0.6-1.3,1.3v2.9c0,0.7,0.6,1.3,1.3,1.3h2.9c0.7,0,1.3-0.6,1.3-1.3v-2.9
		C16.4,23.9,15.8,23.3,15.1,23.3 M15.2,27.5c0,0.1,0,0.1-0.1,0.1h-2.9c-0.1,0-0.1,0-0.1-0.1v-2.9c0-0.1,0-0.1,0.1-0.1h2.9
		c0.1,0,0.1,0,0.1,0.1V27.5z"/>
	<path class="st0" d="M21.3,23.3h-2.9c-0.7,0-1.3,0.6-1.3,1.3v2.9c0,0.7,0.6,1.3,1.3,1.3h2.9c0.7,0,1.3-0.6,1.3-1.3v-2.9
		C22.6,23.9,22,23.3,21.3,23.3 M21.4,27.5c0,0.1,0,0.1-0.1,0.1h-2.9c-0.1,0-0.1,0-0.1-0.1v-2.9c0-0.1,0-0.1,0.1-0.1h2.9
		c0.1,0,0.1,0,0.1,0.1V27.5z"/>
	<path class="st0" d="M27.4,23.3h-2.9c-0.7,0-1.3,0.6-1.3,1.3v2.9c0,0.7,0.6,1.3,1.3,1.3h2.9c0.7,0,1.3-0.6,1.3-1.3v-2.9
		C28.7,23.9,28.1,23.3,27.4,23.3 M27.5,27.5c0,0.1,0,0.1-0.1,0.1h-2.9c-0.1,0-0.1,0-0.1-0.1v-2.9c0-0.1,0-0.1,0.1-0.1h2.9
		c0.1,0,0.1,0,0.1,0.1V27.5z"/>
	<path class="st0" d="M33.6,23.3h-2.9c-0.7,0-1.3,0.6-1.3,1.3v2.9c0,0.7,0.6,1.3,1.3,1.3h2.9c0.7,0,1.3-0.6,1.3-1.3v-2.9
		C34.9,23.9,34.3,23.3,33.6,23.3 M33.7,27.5c0,0.1,0,0.1-0.1,0.1h-2.9c-0.1,0-0.1,0-0.1-0.1v-2.9c0-0.1,0-0.1,0.1-0.1h2.9
		c0.1,0,0.1,0,0.1,0.1V27.5z"/>
	<path class="st0" d="M37.6,3.3h-1.4c-0.3,0-0.6,0.3-0.6,0.6c0,0.3,0.3,0.6,0.6,0.6h1.4c0.5,0,0.9,0.4,0.9,0.9V31
		c0,0.5-0.4,0.9-0.9,0.9H6.8c-0.4,0-0.8-0.2-1.2-0.5l-4-4c-0.2-0.2-0.3-0.4-0.4-0.6h4.1c0.5,0,0.9,0.4,0.9,0.9V30
		c0,0.3,0.3,0.6,0.6,0.6c0.3,0,0.6-0.3,0.6-0.6v-1.2H9c0.7,0,1.3-0.6,1.3-1.3v-2.9c0-0.7-0.6-1.3-1.3-1.3H6.1
		c-0.7,0-1.3,0.6-1.3,1.3v1.1H1.2v-2.8c0-0.3-0.3-0.6-0.6-0.6S0,22.6,0,22.9V31c0,1.1,0.9,2.1,2.1,2.1h35.5c1.1,0,2.1-0.9,2.1-2.1
		V5.4C39.7,4.2,38.8,3.3,37.6,3.3 M6,24.6c0-0.1,0-0.1,0.1-0.1H9c0.1,0,0.1,0,0.1,0.1v2.9c0,0.1,0,0.1-0.1,0.1H7.4
		C7.4,26.7,6.8,26,6,25.7V24.6z M2.1,31.9c-0.5,0-0.9-0.4-0.9-0.9v-2.4l3.4,3.4H2.1z"/>
	<path class="st0" d="M32.1,0C30.9,0,30,1,30,2.1v1.2h-1.9V2.1c0-1.2-1-2.1-2.1-2.1s-2.1,1-2.1,2.1v1.2h-1.9V2.1C21.9,1,21,0,19.8,0
		c-1.2,0-2.1,1-2.1,2.1v1.2h-1.9V2.1c0-1.2-1-2.1-2.1-2.1s-2.1,1-2.1,2.1v1.2H9.6V2.1C9.6,1,8.7,0,7.5,0C6.3,0,5.4,1,5.4,2.1v1.2
		H2.1C0.9,3.3,0,4.2,0,5.4v14.9c0,0.3,0.3,0.6,0.6,0.6c0.3,0,0.6-0.3,0.6-0.6V5.4c0-0.5,0.4-0.9,0.9-0.9h3.3v1.5
		c0,1.2,1,2.1,2.1,2.1c1.2,0,2.1-1,2.1-2.1V4.5h1.9v1.5c0,1.2,1,2.1,2.1,2.1s2.1-1,2.1-2.1V4.5h1.9v1.5c0,1.2,1,2.1,2.1,2.1
		c1.2,0,2.1-1,2.1-2.1V4.5h1.9v1.5c0,1.2,1,2.1,2.1,2.1s2.1-1,2.1-2.1V4.5H30v1.5c0,1.2,1,2.1,2.1,2.1s2.1-1,2.1-2.1V2.1
		C34.2,1,33.3,0,32.1,0 M8.5,5.9c0,0.5-0.4,1-1,1c-0.5,0-1-0.4-1-1V2.1c0-0.5,0.4-1,1-1c0.5,0,1,0.4,1,1V5.9z M14.6,5.9
		c0,0.5-0.4,1-1,1s-1-0.4-1-1V2.1c0-0.5,0.4-1,1-1s1,0.4,1,1V5.9z M20.8,5.9c0,0.5-0.4,1-1,1c-0.5,0-1-0.4-1-1V2.1c0-0.5,0.4-1,1-1
		c0.5,0,1,0.4,1,1V5.9z M26.9,5.9c0,0.5-0.4,1-1,1s-1-0.4-1-1V2.1c0-0.5,0.4-1,1-1s1,0.4,1,1V5.9z M33.1,5.9c0,0.5-0.4,1-1,1
		c-0.5,0-1-0.4-1-1V2.1c0-0.5,0.4-1,1-1c0.5,0,1,0.4,1,1V5.9z"/>
</g>
</svg>
