<?xml version="1.0" encoding="utf-8"?>
<!-- Generator: Adobe Illustrator 19.0.1, SVG Export Plug-In . SVG Version: 6.00 Build 0)  -->
<svg version="1.1" id="Слой_1" xmlns="http://www.w3.org/2000/svg" xmlns:xlink="http://www.w3.org/1999/xlink" x="0px" y="0px"
	 viewBox="0 0 46.6 37.3" style="enable-background:new 0 0 46.6 37.3;" xml:space="preserve">
<style type="text/css">
	.st0{clip-path:url(#SVGID_2_);fill:#FFFFFF;}
</style>
<g>
	<defs>
		<rect id="SVGID_1_" y="0" width="46.6" height="37.3"/>
	</defs>
	<clipPath id="SVGID_2_">
		<use xlink:href="#SVGID_1_"  style="overflow:visible;"/>
	</clipPath>
	<path class="st0" d="M28.5,0.6C28.2,0.2,27.7,0,27.3,0c-0.5,0-0.9,0.2-1.3,0.5c-0.3,0.3-0.7,0.8-0.9,1.4c-0.4,0.9-0.4,1.5,0,1.9
		C25.3,4,25.6,4.1,26,4.1c0.9,0,2.1-0.7,2.4-1C28.8,2.8,29,2.3,29,1.8C29,1.4,28.8,0.9,28.5,0.6 M27.5,2.1c-0.3,0.2-0.9,0.6-1.3,0.6
		c0.1-0.4,0.5-1,0.7-1.3c0.1-0.1,0.4-0.2,0.6,0C27.7,1.7,27.6,2,27.5,2.1"/>
	<path class="st0" d="M46.4,31.3c-0.4-0.8-1.7-1.2-4.1-0.2L39,25.6c-0.6-1.1-0.8-1.8-0.8-2.3c0-0.3,0.1-0.5,0.1-0.6
		c0.3-0.6,0.6-1.2,0.7-1.9c0.7-5.3-6.1-13-9.1-16c-0.8-0.8-2.1-1-3.1-0.4l-3.5,2.1l-3.5-2.1c-1-0.6-2.3-0.4-3.1,0.4
		c-3,3-9.8,10.7-9.1,16c0.1,0.7,0.3,1.4,0.7,2c0.1,0.2,0.4,1.2-0.7,2.9l-3.3,5.5c-2.3-1-3.6-0.5-4.1,0.2c-0.2,0.4-0.4,1.2,0.6,2.5
		c0.6,0.8,1.6,1.6,2.6,2.2c1.1,0.7,2.2,1.1,3.2,1.3c1.5,0.3,2.3-0.4,2.4-0.7c0.4-0.7,0.2-2.1-1.8-3.7l3.3-5.5
		c0.6-1.1,1.3-1.6,1.6-1.8c0.3-0.2,0.7-0.2,0.8-0.2c0.6,0,1.2-0.1,1.8-0.4c3.8-1.5,6.7-7.4,8.5-12c0.7,1.9,1.7,4.1,2.8,6.1
		c1.8,3.2,3.8,5.2,5.7,5.9c0.6,0.2,1.2,0.3,1.8,0.3c0.9,0,1.9-0.3,2.8-0.8c0.2-0.1,0.4-0.3,0.6-0.4c0.1,0.6,0.4,1.3,0.9,2.1l3.9,6.6
		c0,0,0.2,0.4-0.1,0.5c-0.3,0.2-0.5-0.1-0.5-0.1l-3.9-6.6c-0.1-0.2-0.3-0.5-0.4-0.7c-0.2-0.3-0.6-0.4-1-0.2c-0.3,0.2-0.4,0.6-0.2,1
		c0.1,0.2,0.2,0.4,0.4,0.6l3.3,5.5c-1.9,1.6-2.2,2.9-1.8,3.7c0.2,0.3,0.6,0.8,1.7,0.8c0.2,0,1.7,0,4-1.3c1.1-0.7,2-1.4,2.6-2.2
		C46.8,32.5,46.6,31.6,46.4,31.3 M32.7,9.9c0.9,1.1,0.5,2.8-0.5,3.4c-1.3,0.8-3.7,1.9-6,1.5c0.8-0.8,2.1-2.3,3.5-4.7
		c0.3-0.5,0.9-0.9,1.6-0.9C31.7,9.2,32.2,9.3,32.7,9.9 M7.9,35.8C7.7,36,6.2,36,4.1,34.8c-2.1-1.3-2.8-2.6-2.7-2.8
		c0.1-0.1,0.9-0.2,2.2,0.3c-0.1,0.2-0.6,1.6,0.7,2.3c1.3,0.7,2.2-0.3,2.4-0.5C7.6,35,7.9,35.7,7.9,35.8 M9.4,26.7l-3.9,6.6
		c0,0-0.2,0.4-0.5,0.1c-0.3-0.2-0.2-0.5-0.2-0.5l4-6.6c0.5-0.8,0.7-1.5,0.9-2.1c0.2,0.1,1,0.6,1.3,0.7C10.4,25.3,9.9,25.9,9.4,26.7
		 M20,17.2c-1.8,3.6-3.8,5.9-5.7,6.6c-1.2,0.4-2.3,0.3-3.5-0.4s-1.8-1.6-2-2.9c-0.4-3.3,3.1-8.2,3.2-8.2c0.2,0.9,0.8,1.7,1.6,2.2
		c1.3,0.8,3.4,1.8,5.7,1.8c0.4,0,0.7,0,1.1-0.1C20.3,16.5,20.2,16.8,20,17.2 M23.2,9c-0.3,1.1-1,3-1.8,5c-0.3-0.2-0.6-0.6-1-1
		c-0.2-0.3-0.7-0.3-1-0.1c-0.3,0.2-0.3,0.7-0.1,1c0.3,0.4,0.6,0.7,0.9,1c-2.3,0.4-4.6-0.7-6-1.5c-1-0.6-1.6-2-0.5-3.4
		c0.4-0.6,1-0.7,1.4-0.7c0.6,0,1.3,0.4,1.6,0.9c0.3,0.5,0.6,1,0.9,1.4c0.2,0.3,0.6,0.4,0.9,0.2c0.3-0.2,0.4-0.6,0.2-0.9
		c-0.3-0.4-0.6-0.9-0.8-1.4c-0.5-0.9-1.4-1.4-2.5-1.5c0.8-0.9,1.5-1.6,2-2.2c0.2-0.2,0.5-0.4,0.8-0.4c0.2,0,0.4,0.1,0.6,0.2l3.6,2.2
		C23.2,7.9,23.4,8.5,23.2,9 M25.1,14c-0.4-1.1-0.8-2.1-1.1-2.9c0.2-0.6,0.4-1.2,0.5-1.6c0.2-0.7,0.1-1.4-0.2-2l3.2-1.9
		c0.5-0.3,1.1-0.2,1.4,0.2c0.5,0.5,1.2,1.3,2,2.2c-1,0.1-2,0.7-2.4,1.5c-1.2,2-2.2,3.3-2.9,4C25.4,13.6,25.3,13.8,25.1,14
		 M37.7,20.5c-0.1,1.4-1.3,2.5-2,2.9c-1.2,0.7-2.3,0.8-3.4,0.4c-1.7-0.6-3.4-2.4-5-5.3c-0.4-0.8-0.8-1.5-1.2-2.3
		c0.4,0.1,0.8,0.1,1.1,0.1c2.3,0,4.4-1,5.7-1.8c0.8-0.5,1.4-1.3,1.6-2.2C34.5,12.3,38,16.5,37.7,20.5 M42.5,34.8
		c-2.2,1.3-3.6,1.2-3.8,1.1C38.6,35.7,39,35,40,34.1c0.1,0.2,1.1,1.3,2.4,0.5s0.8-2.1,0.7-2.3c1.3-0.5,2.1-0.4,2.2-0.3
		C45.3,32.2,44.6,33.5,42.5,34.8"/>
</g>
</svg>
