<?xml version="1.0" encoding="utf-8"?>
<!-- Generator: Adobe Illustrator 19.0.1, SVG Export Plug-In . SVG Version: 6.00 Build 0)  -->
<svg version="1.1" id="Слой_1" xmlns="http://www.w3.org/2000/svg" xmlns:xlink="http://www.w3.org/1999/xlink" x="0px" y="0px"
	 viewBox="0 0 39.7 37.6" style="enable-background:new 0 0 39.7 37.6;" xml:space="preserve">
<style type="text/css">
	.st0{clip-path:url(#SVGID_2_);fill:#863A81;}
</style>
<g>
	<defs>
		<rect id="SVGID_1_" y="0" width="39.7" height="37.6"/>
	</defs>
	<clipPath id="SVGID_2_">
		<use xlink:href="#SVGID_1_"  style="overflow:visible;"/>
	</clipPath>
	<path class="st0" d="M36.3,2.7h-1.4V2c0-1.1-0.9-2-2-2s-2,0.9-2,2v0.7h-22V2c0-1.1-0.9-2-2-2c-1.1,0-2,0.9-2,2v0.7H3.4
		C1.5,2.7,0,4.3,0,6.1v28.1c0,1.9,1.5,3.4,3.4,3.4h32.9c1.9,0,3.4-1.5,3.4-3.4V6.1C39.7,4.3,38.2,2.7,36.3,2.7 M32.1,2
		c0-0.4,0.3-0.7,0.7-0.7s0.7,0.3,0.7,0.7v1.4v0v0v1.4c0,0.4-0.3,0.7-0.7,0.7s-0.7-0.3-0.7-0.7V2z M6.8,1.3c0.4,0,0.7,0.3,0.7,0.7
		v2.7c0,0.4-0.3,0.7-0.7,0.7c-0.4,0-0.7-0.3-0.7-0.7V3.4v0v0V2C6.1,1.6,6.4,1.3,6.8,1.3 M36.3,36.3H3.4c-1.2,0-2.1-0.9-2.1-2.1V9.5
		h4.8c0.4,0,0.6-0.3,0.6-0.6c0-0.4-0.3-0.6-0.6-0.6H1.3V6.1C1.3,5,2.2,4,3.4,4h1.4v0.7c0,1.1,0.9,2,2,2c1.1,0,2-0.9,2-2V4h22v0.7
		c0,1.1,0.9,2,2,2s2-0.9,2-2V4h1.4c1.2,0,2.1,0.9,2.1,2.1v2.1h-3.5c-0.4,0-0.6,0.3-0.6,0.6c0,0.4,0.3,0.6,0.6,0.6h3.5v24.7
		C38.4,35.4,37.5,36.3,36.3,36.3"/>
	<path class="st0" d="M32.2,8.2h-1.4c-0.4,0-0.6,0.3-0.6,0.6c0,0.4,0.3,0.6,0.6,0.6h1.4c0.4,0,0.6-0.3,0.6-0.6
		C32.8,8.5,32.5,8.2,32.2,8.2"/>
	<path class="st0" d="M28.7,8.9c0-0.4-0.3-0.6-0.6-0.6H8.9c-0.4,0-0.6,0.3-0.6,0.6c0,0.4,0.3,0.6,0.6,0.6h19.2
		C28.4,9.5,28.7,9.2,28.7,8.9"/>
	<path class="st0" d="M28.3,19.2h-4.8c-0.2,0-0.4-0.1-0.5-0.3l-1.5-4.6c-0.2-0.7-0.9-1.2-1.7-1.2c-0.8,0-1.4,0.5-1.7,1.2l-1.5,4.6
		c-0.1,0.2-0.3,0.3-0.5,0.3h-4.8c-0.8,0-1.4,0.5-1.7,1.2c-0.2,0.7,0,1.5,0.6,2l3.9,2.8c0.2,0.1,0.2,0.3,0.2,0.5l-1.5,4.6
		c-0.2,0.7,0,1.5,0.6,2c0.6,0.5,1.5,0.5,2.1,0l3.9-2.8c0.2-0.1,0.4-0.1,0.6,0l3.9,2.8c0.3,0.2,0.7,0.3,1,0.3c0.4,0,0.7-0.1,1-0.3
		c0.6-0.5,0.9-1.2,0.6-2l-1.5-4.6c-0.1-0.2,0-0.4,0.2-0.5l3.9-2.8c0.6-0.5,0.9-1.2,0.6-2C29.8,19.7,29.1,19.2,28.3,19.2 M28.6,21.3
		l-3.9,2.8c-0.6,0.5-0.9,1.3-0.6,2l1.5,4.6c0.1,0.3-0.1,0.5-0.2,0.5c-0.1,0-0.3,0.2-0.6,0l-3.9-2.8c-0.3-0.2-0.7-0.3-1-0.3
		c-0.4,0-0.7,0.1-1,0.3l-3.9,2.8c-0.3,0.2-0.5,0-0.6,0c-0.1,0-0.3-0.2-0.2-0.5l1.5-4.6c0.2-0.7,0-1.5-0.6-2l-3.9-2.8
		c-0.3-0.2-0.2-0.5-0.2-0.5c0-0.1,0.1-0.3,0.5-0.3h4.8c0.8,0,1.4-0.5,1.7-1.2l1.5-4.6c0.1-0.3,0.4-0.3,0.5-0.3s0.4,0,0.5,0.3
		l1.5,4.6c0.2,0.7,0.9,1.2,1.7,1.2h4.8c0.3,0,0.4,0.3,0.5,0.3C28.8,20.9,28.9,21.2,28.6,21.3"/>
	<path class="st0" d="M23,22.1c-1,0.8-1.6,2-1.7,3.2c0,0.5,0,1.1,0.2,1.6c0.1,0.3,0.3,0.5,0.6,0.5c0.1,0,0.1,0,0.2,0
		c0.3-0.1,0.5-0.5,0.4-0.8c-0.1-0.4-0.1-0.8-0.1-1.1c0.1-0.9,0.5-1.7,1.2-2.3c0.3-0.2,0.3-0.6,0.1-0.9C23.6,21.9,23.2,21.8,23,22.1"
		/>
	<path class="st0" d="M20.4,19.8c-0.1-0.3-0.5-0.5-0.8-0.4c-0.3,0.1-0.5,0.5-0.4,0.8c0.2,0.5,0.5,1,0.8,1.4c0.1,0.1,0.3,0.2,0.5,0.2
		c0.1,0,0.3,0,0.4-0.2c0.3-0.2,0.3-0.6,0.1-0.9C20.8,20.5,20.6,20.2,20.4,19.8"/>
</g>
</svg>
