<?xml version="1.0" encoding="utf-8"?>
<!-- Generator: Adobe Illustrator 19.0.1, SVG Export Plug-In . SVG Version: 6.00 Build 0)  -->
<svg version="1.1" id="Слой_1" xmlns="http://www.w3.org/2000/svg" xmlns:xlink="http://www.w3.org/1999/xlink" x="0px" y="0px"
	 viewBox="0 0 39.5 45.9" style="enable-background:new 0 0 39.5 45.9;" xml:space="preserve">
<style type="text/css">
	.st0{clip-path:url(#SVGID_2_);fill:#FFFFFF;}
</style>
<g>
	<defs>
		<rect id="SVGID_1_" y="0" width="39.5" height="45.9"/>
	</defs>
	<clipPath id="SVGID_2_">
		<use xlink:href="#SVGID_1_"  style="overflow:visible;"/>
	</clipPath>
	<path class="st0" d="M36,26.2H22.6c0-0.5-0.1-1-0.2-1.4c0.4,0.2,0.8,0.3,1.1,0.3c0.7,0,1.5-0.3,1.9-0.9l2-2.5c0,0,1.4,0.6,1.8,2.2
		c0.2,0.7,0.7,0.6,0.8,0.5c0.4-0.1,0.6-0.4,0.5-0.8c-0.2-1.4-1.2-2.6-2.5-3.2l-2.5-1.1c2.2-2.2,2.3-5.9,2.3-5.9
		c0.2-0.1,1.2-0.5,1-1.9c-0.1-0.6-0.1-1.3,0-2c0.2-1.1,0.1-3-0.6-4.7c-0.1-0.3-0.5-0.5-0.9-0.4c-0.3,0.1-0.5,0.5-0.4,0.9
		c0.6,1.5,0.7,3,0.5,4c-0.1,0.8-0.1,1.6,0,2.4c0,0.1,0,0.4-0.3,0.4c-4.8,0.2-8.3-1.2-10.4-4.1C15.3,6.1,15.1,4,15,3.8
		c0-0.2,0.2-0.7,1-1.2c1.7-1.2,4.9-1.9,7.5-0.8c0.8,0.3,1.4,0.7,2,1.3c0.3,0.3,0.7,0.2,1,0c0.3-0.3,0.2-0.7,0-1
		C25.8,1.6,25,1,24,0.7c-3.1-1.3-6.8-0.5-8.8,0.9c-0.8,0.6-1.3,1.2-1.5,1.9c-2.3,1.4-3.2,4.2-2.5,7.9c0.1,0.3,0.2,0.6,0.4,0.9v1.5
		c0,0.2,0,0.6,0,0.6l-1.7,0c-1.1,0-2,0.7-2.3,1.7c-1.4,0.2-2.5,1.5-2.5,3v7.1H3.6c-2,0-3.6,1.6-3.6,3.6c0,1.9,1.4,3.4,3.2,3.6v10.1
		c0,1.4,1.1,2.5,2.5,2.5h28c1.4,0,2.5-1.1,2.5-2.5V33.3c1.8-0.2,3.2-1.7,3.2-3.6C39.5,27.8,37.9,26.2,36,26.2 M26.2,21.1l-1.8,2.2
		c-0.4,0.5-1.1,0.6-1.6,0.2l-1.2-0.9c0,0,0.6-1,0.7-1.1c0.8-0.3,1.5-0.6,2.2-1.1L26.2,21.1z M16,9.3c1,1.3,2.3,2.2,3.8,3
		c1.9,0.9,4.2,1.3,6.8,1.3c0,0-0.3,6.9-6.8,6.9c-2.4,0-4.6-1.3-5.9-3.4c0-0.1,0-0.3,0-0.4c0-0.7-0.3-1.4-0.9-1.8
		C13,14.5,13,14.1,13,13.7v-0.9c0.5,0,0.9-0.2,1.3-0.6C15.1,11.2,15.7,10.2,16,9.3 M19.8,24.3c0.3,0,0.6-0.1,0.9-0.3
		c0.3,0.5,0.5,1.2,0.6,2.2h-2.9c0.1-1,0.3-1.7,0.6-2.2C19.1,24.2,19.4,24.3,19.8,24.3 M19.1,21.8c0.2,0,0.4,0,0.7,0
		c0.2,0,0.4,0,0.7,0l-0.7,1L19.1,21.8z M16.7,23.5c-0.5,0.4-1.2,0.3-1.6-0.2l-1.8-2.2l1.7-0.8c0.7,0.5,1.4,0.9,2.2,1.1
		c0,0.1,0.7,1.1,0.7,1.1L16.7,23.5z M17.2,24.8c-0.1,0.5-0.2,0.9-0.2,1.4h-6.7v-1.7c0-2,1.9-2.7,1.9-2.7l2,2.5
		c0.5,0.6,1.2,0.9,1.9,0.9C16.4,25.1,16.8,25,17.2,24.8 M13.9,5c0.2,0.7,0.5,1.7,1.1,2.8c-0.2,0.8-0.6,2.2-1.7,3.5
		c-0.2,0.2-0.4,0.1-0.4,0.1c-0.1,0-0.3-0.1-0.3-0.3C11.9,7.8,12.8,6,13.9,5 M9.9,15.7h1.6c0.6,0,1,0.5,1,1c0,0.6-0.5,1-1,1H9.9
		c-0.6,0-1-0.5-1-1C8.9,16.1,9.3,15.7,9.9,15.7 M7.6,17.5c0.3,1,1.2,1.7,2.3,1.7h1.6c0.6,0,1.2-0.2,1.6-0.6c0.2,0.3,0.5,0.6,0.8,0.9
		l-2.5,1.1c-1.5,0.7-2.5,2.2-2.5,3.9v1.7H6.4V19C6.4,18.3,6.9,17.6,7.6,17.5 M36,32H9.3c-0.4,0-0.7,0.3-0.7,0.7
		c0,0.4,0.3,0.7,0.7,0.7H35v10.1c0,0.7-0.5,1.2-1.2,1.2h-28c-0.7,0-1.2-0.5-1.2-1.2V33.3h1.6c0.4,0,0.7-0.3,0.7-0.7
		c0-0.4-0.3-0.7-0.7-0.7H3.6c-1.2,0-2.2-1-2.2-2.2c0-1.2,1-2.2,2.2-2.2H36c1.2,0,2.2,1,2.2,2.2C38.2,31,37.2,32,36,32"/>
</g>
</svg>
