<?xml version="1.0" encoding="utf-8"?>
<!-- Generator: Adobe Illustrator 19.0.1, SVG Export Plug-In . SVG Version: 6.00 Build 0)  -->
<svg version="1.1" id="Слой_1" xmlns="http://www.w3.org/2000/svg" xmlns:xlink="http://www.w3.org/1999/xlink" x="0px" y="0px"
	 viewBox="0 0 47.4 40.2" style="enable-background:new 0 0 47.4 40.2;" xml:space="preserve">
<style type="text/css">
	.st0{clip-path:url(#SVGID_2_);fill:#863A81;}
</style>
<g>
	<defs>
		<rect id="SVGID_1_" y="0" width="47.4" height="40.2"/>
	</defs>
	<clipPath id="SVGID_2_">
		<use xlink:href="#SVGID_1_"  style="overflow:visible;"/>
	</clipPath>
	<path class="st0" d="M47.3,0.3c-0.2-0.3-0.7-0.4-1-0.2c-0.1,0-5.4,3.8-17,4.8c-0.1,0-0.2,0-0.3,0c-0.1,0-0.2,0-0.4,0
		c-0.1,0-0.2,0-0.4,0c-0.1,0-0.2,0-0.3,0c-0.2,0-0.3,0-0.5,0c-0.1,0-0.1,0-0.2,0c-0.2,0-0.4,0-0.6,0c0,0,0,0,0,0
		c-0.9,0-1.9,0.1-2.9,0.1c-0.2,0-0.5,0-0.7,0c-0.1,0-0.2,0-0.3,0c-0.2,0-0.3,0-0.4,0c-0.1,0-0.2,0-0.3,0c-0.2,0-0.3,0-0.5,0
		c0,0-0.1,0-0.1,0C16.5,5,12.6,4.3,9.6,3.6c0,0-0.1,0-0.1,0c0,0-0.1,0-0.1,0C7.7,3,6.3,2.6,5.2,2.1c0,0-0.1,0-0.1,0c0,0,0,0-0.1,0
		C2.4,1,1.2,0.2,1.2,0.1C0.9-0.1,0.4,0,0.1,0.3c-0.2,0.3-0.2,0.8,0.2,1c0.1,0,1.1,0.8,3.2,1.7l2.7,14.8c0.1,0.3,0.3,0.5,0.6,0.6
		c0.1,0,0.1,0,0.2,0c0.2,0,0.5-0.1,0.6-0.3l8.1-11.9c0.6,0.1,1.2,0.1,1.8,0.2l1.8,4.4c0.2,0.4,0.6,0.6,1,0.4c0.4-0.2,0.6-0.6,0.4-1
		l-1.5-3.7c0.1,0,0.2,0,0.2,0c0.2,0,0.5,0,0.7,0l0.4,0c0.3,0,0.5,0,0.8,0c0,0,0.1,0,0.1,0c0.3,0,0.7,0,1,0c0.1,0,0.2,0,0.3,0
		c0.3,0,0.7,0,1,0c0.3,0,0.7,0,1,0c0.1,0,0.2,0,0.3,0c0.3,0,0.7,0,1,0c0,0,0.1,0,0.1,0c0.3,0,0.6,0,0.8,0c0.1,0,0.2,0,0.4,0
		c0.2,0,0.5,0,0.7,0c0.1,0,0.2,0,0.2,0l-4.6,11.1L21.8,13c-0.2-0.4-0.6-0.6-1-0.4c-0.4,0.2-0.6,0.6-0.4,1l2.6,6.4
		c0.1,0.3,0.4,0.5,0.7,0.5c0.3,0,0.6-0.2,0.7-0.5L30,6.4c0.6-0.1,1.2-0.1,1.8-0.2l8.1,11.9c0.1,0.2,0.4,0.3,0.6,0.3
		c0.1,0,0.1,0,0.2,0c0.3-0.1,0.5-0.3,0.6-0.6l2.7-14.8c2.1-0.9,3.1-1.7,3.2-1.7C47.5,1.1,47.5,0.6,47.3,0.3 M7.4,15.8L5.1,3.7
		C5.4,3.8,5.7,3.9,6,4c0.8,0.3,1.8,0.6,2.8,0.9c0,0,0,0,0.1,0C9.1,5,9.2,5,9.3,5c0.1,0,0.1,0,0.2,0.1c0,0,0,0,0,0
		C10.9,5.4,12.4,5.7,14,6L7.4,15.8z M40.1,15.8L33.4,6c1.6-0.3,3.1-0.6,4.4-0.9h0C38,5.1,38,5,38.1,5c0.1,0,0.3-0.1,0.4-0.1
		c0,0,0,0,0.1,0c1.1-0.3,2-0.6,2.8-0.9c0.3-0.1,0.6-0.2,0.9-0.3L40.1,15.8z"/>
	<path class="st0" d="M47.3,20.1c-0.2-0.3-0.7-0.4-1-0.2c-0.1,0-5.4,3.8-17,4.8c-0.1,0-0.2,0-0.3,0c-0.1,0-0.3,0-0.4,0
		c-0.1,0-0.2,0-0.4,0c-0.1,0-0.2,0-0.3,0c-0.2,0-0.3,0-0.5,0c-0.1,0-0.1,0-0.2,0c-0.2,0-0.4,0-0.7,0c0,0,0,0,0,0
		c-0.9,0-1.9,0.1-2.9,0.1c-0.2,0-0.5,0-0.7,0c-0.1,0-0.2,0-0.3,0c-0.1,0-0.3,0-0.5,0c-0.1,0-0.2,0-0.3,0c-0.2,0-0.3,0-0.5,0
		c0,0-0.1,0-0.1,0c-4.9-0.2-8.8-0.8-11.8-1.6l-0.1,0c0,0-0.1,0-0.1,0c-1.7-0.4-3.1-0.9-4.2-1.4c0,0-0.1,0-0.1,0c0,0,0,0-0.1,0
		c-2.6-1-3.8-1.9-3.8-1.9c-0.3-0.2-0.8-0.2-1,0.2c-0.2,0.3-0.2,0.8,0.2,1c0.1,0,1.1,0.8,3.2,1.7l0.8,4.3c0.1,0.4,0.5,0.7,0.9,0.6
		c0.4-0.1,0.7-0.5,0.6-0.9l-0.6-3.3c0.3,0.1,0.6,0.2,0.9,0.3c0.8,0.3,1.8,0.6,2.9,0.9c0,0,0,0,0.1,0c0.1,0,0.3,0.1,0.4,0.1
		c0.1,0,0.1,0,0.2,0.1c0,0,0,0,0,0c1.3,0.3,2.8,0.6,4.4,0.9l-6.6,9.8l-1.1-6c-0.1-0.4-0.5-0.7-0.9-0.6c-0.4,0.1-0.7,0.5-0.6,0.9
		l1.4,7.8c0.1,0.3,0.3,0.5,0.6,0.6c0.1,0,0.1,0,0.2,0c0.2,0,0.5-0.1,0.6-0.3L15.7,26c0.6,0.1,1.2,0.1,1.8,0.2L23,39.8
		c0.1,0.3,0.4,0.5,0.7,0.5c0.3,0,0.6-0.2,0.7-0.5L30,26.2c0.6-0.1,1.2-0.1,1.8-0.2l1.9,2.9c0.2,0.3,0.7,0.4,1,0.2
		c0.3-0.2,0.4-0.7,0.2-1l-1.5-2.3c1.6-0.3,3.1-0.6,4.4-0.9l0,0c0.1,0,0.1,0,0.2-0.1c0.1,0,0.3-0.1,0.4-0.1c0,0,0,0,0.1,0
		c1.1-0.3,2-0.6,2.8-0.9c0.3-0.1,0.6-0.2,0.9-0.3l-2.2,12.1l-3.4-5.1c-0.2-0.3-0.7-0.4-1-0.2c-0.3,0.2-0.4,0.7-0.2,1l4.5,6.6
		c0.1,0.2,0.4,0.3,0.6,0.3c0.1,0,0.1,0,0.2,0c0.3-0.1,0.5-0.3,0.6-0.6l2.7-14.8c2.1-0.9,3.1-1.7,3.2-1.7
		C47.5,20.9,47.5,20.5,47.3,20.1 M23.7,37.5l-4.6-11.1c0.1,0,0.2,0,0.2,0c0.2,0,0.5,0,0.7,0c0.1,0,0.2,0,0.4,0c0.3,0,0.5,0,0.8,0
		c0,0,0.1,0,0.1,0c0.3,0,0.7,0,1,0c0.1,0,0.2,0,0.3,0c0.3,0,0.7,0,1,0c0.3,0,0.7,0,1,0c0.1,0,0.2,0,0.3,0c0.3,0,0.7,0,1,0
		c0,0,0.1,0,0.1,0c0.3,0,0.6,0,0.8,0c0.1,0,0.2,0,0.4,0c0.2,0,0.5,0,0.7,0c0.1,0,0.2,0,0.2,0L23.7,37.5z"/>
</g>
</svg>
