<?xml version="1.0" encoding="utf-8"?>
<!-- Generator: Adobe Illustrator 19.0.1, SVG Export Plug-In . SVG Version: 6.00 Build 0)  -->
<svg version="1.1" id="Слой_1" xmlns="http://www.w3.org/2000/svg" xmlns:xlink="http://www.w3.org/1999/xlink" x="0px" y="0px"
	 viewBox="0 0 9.3 24.6" style="enable-background:new 0 0 9.3 24.6;" xml:space="preserve">
<style type="text/css">
	.st0{clip-path:url(#SVGID_2_);fill:#FFFFFF;}
</style>
<g>
	<defs>
		<rect id="SVGID_1_" y="0" width="9.3" height="24.6"/>
	</defs>
	<clipPath id="SVGID_2_">
		<use xlink:href="#SVGID_1_"  style="overflow:visible;"/>
	</clipPath>
	<path class="st0" d="M9.3,4.7C9.3,2.1,7.2,0,4.7,0C2.1,0,0,2.1,0,4.7C0,6,0.6,7.2,1.6,8.1C1.4,8.3,1.3,8.6,1.3,8.9
		c0,0.4,0.2,0.7,0.4,0.9l0.8,11.5c0,0.7,0.6,1.2,1.2,1.2h0.5v1.7c0,0.2,0.2,0.4,0.4,0.4c0.2,0,0.4-0.2,0.4-0.4v-1.7h0.5
		c0.7,0,1.2-0.5,1.2-1.2L7.6,9.8C7.9,9.6,8,9.3,8,8.9c0-0.3-0.1-0.6-0.3-0.8C8.7,7.2,9.3,6,9.3,4.7 M0.8,4.7c0-2.1,1.7-3.9,3.9-3.9
		c2.1,0,3.9,1.7,3.9,3.9c0,1.2-0.5,2.3-1.4,3H2.2C1.3,6.9,0.8,5.8,0.8,4.7 M6,21.3c0,0.2-0.2,0.4-0.5,0.4H3.7
		c-0.2,0-0.4-0.2-0.5-0.4L2.5,10.1h2.1C4.9,10.1,5,10,5,9.8c0-0.2-0.2-0.4-0.4-0.4H2.5c-0.2,0-0.5-0.2-0.5-0.5
		c0-0.2,0.2-0.5,0.5-0.5h4.3c0.2,0,0.5,0.2,0.5,0.5c0,0.2-0.2,0.5-0.5,0.5H6.3c-0.2,0-0.4,0.2-0.4,0.4c0,0.2,0.2,0.4,0.4,0.4h0.4
		L6,21.3z"/>
	<path class="st0" d="M4.6,11.1c-0.7,0-1.2,0.6-1.2,1.2V14c0,0.7,0.6,1.2,1.2,1.2c0.7,0,1.2-0.6,1.2-1.2v-1.7
		C5.9,11.6,5.3,11.1,4.6,11.1 M4.6,11.8c0.2,0,0.5,0.2,0.5,0.5c0,0.2-0.2,0.5-0.5,0.5c-0.3,0-0.5-0.2-0.5-0.5
		C4.2,12.1,4.4,11.8,4.6,11.8 M4.6,14.5c-0.3,0-0.5-0.2-0.5-0.5v-0.5c0.1,0.1,0.3,0.1,0.5,0.1c0.2,0,0.3,0,0.5-0.1V14
		C5.1,14.2,4.9,14.5,4.6,14.5"/>
	<path class="st0" d="M4.6,2.5c0.2,0,0.5,0,0.7,0.1c0,0,0.1,0,0.1,0c0.2,0,0.3-0.1,0.4-0.3c0.1-0.2,0-0.4-0.2-0.5
		C5.3,1.8,5,1.7,4.6,1.7c-0.2,0-0.4,0.2-0.4,0.4S4.4,2.5,4.6,2.5"/>
	<path class="st0" d="M6.3,6.6c0.1,0.1,0.2,0.1,0.3,0.1c0.1,0,0.2,0,0.3-0.1c0.5-0.5,0.8-1.2,0.8-2c0-0.6-0.2-1.1-0.5-1.6
		C7,2.8,6.7,2.8,6.6,2.9C6.4,3,6.3,3.3,6.4,3.5c0.2,0.4,0.4,0.8,0.4,1.2c0,0.5-0.2,1-0.5,1.4C6.1,6.2,6.1,6.5,6.3,6.6"/>
</g>
</svg>
