<?xml version="1.0" encoding="utf-8"?>
<!-- Generator: Adobe Illustrator 19.0.1, SVG Export Plug-In . SVG Version: 6.00 Build 0)  -->
<svg version="1.1" id="Слой_1" xmlns="http://www.w3.org/2000/svg" xmlns:xlink="http://www.w3.org/1999/xlink" x="0px" y="0px"
	 viewBox="0 0 20.9 20.8" style="enable-background:new 0 0 20.9 20.8;" xml:space="preserve">
<style type="text/css">
	.st0{clip-path:url(#SVGID_2_);fill:#FFFFFF;}
</style>
<g>
	<defs>
		<rect id="SVGID_1_" y="0" width="20.9" height="20.8"/>
	</defs>
	<clipPath id="SVGID_2_">
		<use xlink:href="#SVGID_1_"  style="overflow:visible;"/>
	</clipPath>
	<path class="st0" d="M20.8,17.1l-2.1-1.4l0.3-0.6c0.1-0.1,0-0.2,0-0.3c0,0-0.6-0.7-1.9-1.3c0.5-1,0.8-2.1,1.1-3.3
		c0.8-3.6,0.5-6.6,0.5-6.8c0-0.1-0.1-0.3-0.3-0.3C16,2.9,14,2,12.8,1.4c-1.3-0.7-2.1-1.3-2.1-1.3c-0.1-0.1-0.3-0.1-0.4,0
		c0,0-3.1,2.6-7.8,3c-0.1,0-0.3,0.1-0.3,0.3c0,0.1-0.1,1.4,0,3.4c0,0.2,0.2,0.3,0.3,0.3c0.2,0,0.3-0.2,0.3-0.3
		c-0.1-1.5-0.1-2.6,0-3.1c2.4-0.3,4.4-1.1,5.6-1.7c1-0.5,1.7-1,2-1.3c0.3,0.2,1,0.7,2,1.3c1.2,0.6,3.2,1.5,5.6,1.7
		c0.1,0.8,0.2,3.4-0.5,6.3c-0.3,1.3-0.7,2.4-1.2,3.5c0,0,0,0.1,0,0.1c0,0.1-0.1,0.1-0.1,0.2l-0.1,0.1c0,0.1-0.1,0.1-0.1,0.2
		c0,0.1-0.1,0.1-0.1,0.2c0,0-0.1,0.1-0.1,0.1c0,0-0.1,0.1-0.1,0.1c0,0,0,0.1-0.1,0.1c-0.1,0.1-0.1,0.2-0.2,0.3c0,0,0,0,0,0
		c0,0.1-0.1,0.1-0.1,0.2c0,0,0,0,0,0.1c-0.2,0.3-0.4,0.6-0.7,0.9l0,0c0,0.1-0.1,0.1-0.1,0.2c0,0-0.1,0.1-0.1,0.1c0,0,0,0,0,0
		c0,0-0.1,0.1-0.1,0.1c0,0,0,0,0,0c-1.1,1.2-2.4,2-3.9,2.7C9,18.6,7.3,17.5,6,15.8c0,0,0,0,0,0c0,0-0.1-0.1-0.1-0.1
		c-0.5-0.7-1-1.4-1.3-2.2c0,0,0,0,0-0.1C3.8,11.9,3.2,10.2,2.9,8c0-0.2-0.2-0.3-0.3-0.3c-0.2,0-0.3,0.2-0.3,0.3
		c0.3,2,0.8,3.8,1.5,5.4c-1.3,0.7-1.9,1.3-1.9,1.3c-0.1,0.1-0.1,0.2,0,0.3l0.3,0.6l-2.1,1.4C0,17.2,0,17.3,0,17.4
		c0,0.1,0.1,0.2,0.2,0.3l1.7,0.9v1.9c0,0.1,0.1,0.2,0.2,0.3c0,0,0.1,0,0.2,0c0.1,0,0.1,0,0.2,0l3.4-2c0,0,0,0,0,0c0,0,0,0,0,0
		c0,0,0,0,0,0c0,0,0,0,0,0l0,0l0,0c0,0,0,0,0,0v0c0,0,0,0,0,0c0,0,0,0,0,0l0,0c0,0,0,0,0,0c0,0,0,0,0,0c0,0,0,0,0,0c0,0,0,0,0,0
		c0,0,0,0,0,0v0c0,0,0,0,0,0v0c0,0,0,0,0,0v0c0,0,0,0,0,0l0,0c0,0,0,0,0,0l-0.4-0.9c0.3-0.1,0.5-0.3,0.9-0.4c1.1,1.2,2.5,2,4,2.7
		c0,0,0.1,0,0.1,0c0,0,0.1,0,0.1,0c1.5-0.6,2.9-1.5,4-2.7c0.3,0.1,0.6,0.2,0.9,0.4L15,18.4c0,0,0,0,0,0l0,0c0,0,0,0,0,0c0,0,0,0,0,0
		c0,0,0,0,0,0v0c0,0,0,0,0,0c0,0,0,0,0,0c0,0,0,0,0,0c0,0,0,0,0,0c0,0,0,0,0,0l0,0c0,0,0,0,0,0c0,0,0,0,0,0c0,0,0,0,0,0c0,0,0,0,0,0
		l0,0c0,0,0,0,0,0c0,0,0,0,0,0c0,0,0,0,0,0c0,0,0,0,0,0c0,0,0,0,0,0c0,0,0,0,0,0c0,0,0,0,0,0l3.4,2c0,0,0.1,0,0.2,0
		c0.1,0,0.1,0,0.2,0c0.1-0.1,0.2-0.2,0.2-0.3v-1.9l1.7-0.9c0.1-0.1,0.2-0.1,0.2-0.3C20.9,17.3,20.9,17.2,20.8,17.1 M2.5,20v-1.5
		c0-0.1-0.1-0.2-0.2-0.3l-1.4-0.8l1.6-1.1l1.1,2.1c0,0,0,0,0,0c0,0,0,0,0,0c0,0,0,0,0,0c0,0,0,0,0,0c0,0,0,0,0,0c0,0,0,0,0,0
		c0,0,0,0,0,0c0,0,0,0,0,0c0,0,0,0,0,0c0,0,0,0,0,0c0,0,0,0,0,0c0,0,0,0,0,0c0,0,0,0,0,0c0,0,0,0,0,0l0.9,0.1L2.5,20z M4.6,18
		C4.6,18,4.6,18,4.6,18C4.6,18,4.6,18,4.6,18c0.1-0.1,0.1-0.1,0.1-0.1c0,0,0,0,0.1,0c0,0,0,0,0,0c0,0,0,0,0.1,0c0,0,0,0,0,0
		c0,0,0,0,0.1,0c0,0,0,0,0,0L5,18.1L4.6,18z M4.9,17.1L4.9,17.1C4.9,17.1,4.9,17.1,4.9,17.1L4.9,17.1L4.9,17.1L4.9,17.1l-0.1,0.1
		c0,0,0,0,0,0c0,0,0,0,0,0c0,0,0,0,0,0c0,0-0.1,0-0.1,0.1c0,0,0,0,0,0c0,0,0,0-0.1,0c0,0,0,0,0,0l0,0c-0.2,0.1-0.4,0.3-0.6,0.4
		l-1-1.9L2.6,15c0.2-0.2,0.7-0.6,1.5-1c0,0.1,0.1,0.1,0.1,0.2c0,0,0,0.1,0.1,0.1c0,0.1,0.1,0.2,0.1,0.2c0,0,0,0,0,0.1
		c0.3,0.6,0.7,1.1,1.1,1.6c0,0,0,0,0,0c0,0,0.1,0.1,0.1,0.1c0,0,0,0,0,0.1c0,0,0.1,0.1,0.1,0.1c0,0.1,0.1,0.1,0.1,0.2
		C5.5,16.8,5.2,16.9,4.9,17.1 M15,16.6C15,16.6,15,16.6,15,16.6C15.1,16.6,15.1,16.6,15,16.6c0.1-0.1,0.1-0.1,0.1-0.1
		c0,0,0.1-0.1,0.1-0.1c0,0,0,0,0,0c0.2-0.2,0.4-0.5,0.6-0.7c0,0,0-0.1,0.1-0.1c0,0,0.1-0.1,0.1-0.1c0,0,0.1-0.1,0.1-0.1l0.1-0.1
		c0-0.1,0.1-0.1,0.1-0.2c0,0,0.1-0.1,0.1-0.1c0-0.1,0.1-0.1,0.1-0.2c0-0.1,0.1-0.1,0.1-0.2c0,0,0-0.1,0.1-0.1c0-0.1,0.1-0.2,0.1-0.2
		c0,0,0-0.1,0-0.1c0,0,0,0,0-0.1c0.8,0.4,1.3,0.8,1.5,1l-1.4,2.7c-0.1-0.1-0.3-0.3-0.6-0.4l0,0c0,0,0,0,0,0c0,0,0,0-0.1,0
		c0,0,0,0,0,0c0,0-0.1,0-0.1-0.1c0,0,0,0,0,0c0,0,0,0,0,0c0,0,0,0,0,0l-0.1,0l0,0l0,0l0,0c0,0,0,0,0,0C15.7,16.9,15.4,16.8,15,16.6
		 M15.9,17.9l0.1-0.1c0,0,0,0,0,0c0,0,0,0,0.1,0c0,0,0,0,0,0c0,0,0,0,0.1,0c0,0,0,0,0,0c0,0,0,0,0.1,0l0,0l0,0l0,0l-0.5,0.1
		L15.9,17.9z M18.6,18.2c-0.1,0.1-0.2,0.2-0.2,0.3V20l-2.2-1.3l0.9-0.1c0,0,0,0,0,0c0,0,0,0,0,0c0,0,0,0,0,0s0,0,0,0c0,0,0,0,0,0
		c0,0,0,0,0,0c0,0,0,0,0,0c0,0,0,0,0,0c0,0,0,0,0,0c0,0,0,0,0,0c0,0,0,0,0,0c0,0,0,0,0,0c0,0,0,0,0,0c0,0,0,0,0,0l1.1-2.1l1.6,1.1
		L18.6,18.2z"/>
	<path class="st0" d="M16.8,4.9c0-0.1-0.1-0.3-0.3-0.3c-3.5-0.4-5.9-2.3-5.9-2.3c-0.1-0.1-0.3-0.1-0.4,0c0,0-2.4,1.9-5.9,2.3
		c-0.1,0-0.3,0.1-0.3,0.3c0,0.1-0.1,1.4,0.1,3.3c0.2,1.7,0.7,4.2,2.2,6.2c0.1,0.1,0.2,0.1,0.2,0.1c0.1,0,0.1,0,0.2-0.1
		c0.1-0.1,0.2-0.3,0.1-0.4C5.5,12.1,5,9.8,4.8,8.1C4.6,6.8,4.7,5.7,4.7,5.2c3-0.4,5.1-1.8,5.8-2.3c0.6,0.5,2.7,1.9,5.8,2.3
		c0,0.3,0,1,0,1.9c0,0.2,0.1,0.3,0.3,0.3c0.2,0,0.3-0.1,0.3-0.3C16.9,5.8,16.8,5,16.8,4.9"/>
	<path class="st0" d="M16.4,8.1c-0.2,0-0.3,0.1-0.3,0.3c-0.7,5.4-3.4,7.6-5.7,8.5c-1.1-0.4-2-1.1-2.8-1.9c-0.1-0.1-0.3-0.1-0.4,0
		c-0.1,0.1-0.1,0.3,0,0.4c0.9,0.9,1.9,1.6,3.1,2.1c0,0,0.1,0,0.1,0c0,0,0.1,0,0.1,0c2-0.8,3.5-2.2,4.6-4.1c0.8-1.4,1.3-3.1,1.6-5
		C16.7,8.2,16.6,8.1,16.4,8.1"/>
	<path class="st0" d="M13.9,7.3c-0.4-0.4-1.1-0.4-1.5,0l-2.7,2.7l-1-1c-0.4-0.4-1.1-0.4-1.5,0c-0.4,0.4-0.4,1.1,0,1.5l1.7,1.7
		c0.2,0.2,0.5,0.3,0.8,0.3c0.3,0,0.6-0.1,0.8-0.3l3.5-3.5C14.3,8.4,14.3,7.7,13.9,7.3 M13.4,8.4L10,11.9C9.9,12,9.8,12,9.6,12
		s-0.2,0-0.3-0.1l-1.7-1.7c-0.2-0.2-0.2-0.5,0-0.7c0.1-0.1,0.2-0.1,0.3-0.1c0.1,0,0.2,0,0.3,0.1l1.2,1.2c0.1,0.1,0.1,0.1,0.2,0.1
		s0.2,0,0.2-0.1l2.9-2.9c0.2-0.2,0.5-0.2,0.7,0C13.6,7.9,13.6,8.2,13.4,8.4"/>
</g>
</svg>
