<?xml version="1.0" encoding="utf-8"?>
<!-- Generator: Adobe Illustrator 19.0.1, SVG Export Plug-In . SVG Version: 6.00 Build 0)  -->
<svg version="1.1" id="Слой_1" xmlns="http://www.w3.org/2000/svg" xmlns:xlink="http://www.w3.org/1999/xlink" x="0px" y="0px"
	 viewBox="0 0 409.6 409.3" style="enable-background:new 0 0 409.6 409.3;" xml:space="preserve">
<style type="text/css">
	.st0{fill:#84298B;}
	.st1{clip-path:url(#SVGID_2_);fill-rule:evenodd;clip-rule:evenodd;fill:#84298B;}
</style>
<path d="M158.1,308.9l9.7,9.7l-26.9,26.9l9.9,9.9l26.9-26.9l9.7,9.7l8.9-8.9L167,300L158.1,308.9z M94.9,299.4l9.5,9.5l19.4-19.4
	l-5.2,33.6l8.1,8.1l35.7-35.8L153,286l-18.8,18.8l5-32.5l-8.6-8.6L94.9,299.4z M65.9,270.5l23.3,23.3l8.5-8.5l-13.5-13.5l5.3-5.3
	l11.7,11.7l8.1-8.1l-11.7-11.7l5.3-5.3l13.1,13.1l8.5-8.5l-22.9-22.9L65.9,270.5z M39.5,244l9.2,9.2l49.4-22.1l-11.2-11.2L57.6,235
	l14.9-29.5l-11.2-11.2L39.5,244z M0,204.5l23.3,23.3l8.5-8.5l-13.5-13.5l5.3-5.3l11.7,11.7l8.1-8.1l-11.7-11.7l5.3-5.3l13.1,13.1
	l8.5-8.5l-22.9-22.9L0,204.5z"/>
<rect x="185.7" y="363.1" transform="matrix(-0.7071 -0.7071 0.7071 -0.7071 79.3974 797.3315)" class="st0" width="38.3" height="38.3"/>
<polygon points="213.4,329.2 242.7,299.9 251.6,308.8 241.9,318.5 268.7,345.4 258.9,355.3 232,328.4 222.3,338.1 "/>
<path d="M249.6,293l35.8,35.8l23.3-23.3l-8.5-8.5l-13.5,13.5l-5.3-5.3l11.7-11.7l-8.1-8.1L273.2,297l-5.3-5.3l13.1-13.1l-8.5-8.5
	L249.6,293z M311.1,253.8l15,7.1l-7.9,7.9L311.1,253.8z M295.1,247.5l21.7,49.8l10.6-10.6l-3.8-7.8l12.7-12.7l7.8,3.8l10.8-10.8
	l-50.1-21.4L295.1,247.5z M358.6,184l11,27.9l-27.9-11l-9.8,9.8l30.3,41.2l10-10l-17.8-23.3l30.1,11.2l2.9-2.9l-11.2-30.1l23.4,17.8
	l9.9-9.9l-41.1-30.4L358.6,184z"/>
<g>
	<defs>
		<rect id="SVGID_1_" width="409.6" height="409.3"/>
	</defs>
	<clipPath id="SVGID_2_">
		<use xlink:href="#SVGID_1_"  style="overflow:visible;"/>
	</clipPath>
	<path class="st1" d="M44.7,160.2L204.9,0l160.2,160.2L204.9,320.4L44.7,160.2z M245.7,70.1l0,38.6l19.1-19.2l0.1,0.1l0.2-0.2
		l73.2,73.2l0,17.1l19.5-19.5L204.9,7.4L52,160.2l58.3,58.3l0-72.7l66.8-67.3l0-28.8l24.2-24.2L245.7,70.1z M264.8,92.6l-22.6,22.6
		l-1.5-1.5l0,0l35.8,35.8l-45.9,11.2l-6,6l17.1,17.1c2.8,2.8,4.7,5.7,5.6,8.7c1,3,1.2,6.1,0.4,9c-0.8,3-2.5,5.8-5.1,8.4
		c-2.6,2.6-5.4,4.4-8.5,5.3c-3,0.9-6,1-8.9,0.3c-3-0.8-5.7-2.4-8.2-4.8c-2.3-2.4-3.9-4.9-4.6-7.7c-0.7-2.8-0.7-5.6,0.2-8.5
		c0.9-2.9,2.5-5.6,4.9-8.3l-27.4-27.4c-5.3,5.7-9.3,11.8-11.9,18.3c-2.6,6.5-3.8,13.1-3.6,19.8c0.2,6.7,1.8,13.4,4.7,19.9
		c3,6.5,7.3,12.6,13.1,18.4c5.9,5.9,12.2,10.3,18.9,13.4c6.7,3,13.6,4.7,20.5,5c6.9,0.3,13.6-0.9,20.1-3.4c6.5-2.6,12.5-6.6,18-12
		c5.5-5.6,9.5-11.6,11.9-18.1c2.4-6.5,3.2-13.1,2.5-19.9c-0.7-6.8-2.9-13.4-6.8-19.8l55.7-12.9l3.2-3.2L264.8,92.6z M201.2,28.6
		L180,49.8c14.4,14.4,1,1,15.8,15.8l-84,84l27.2,27.2L244.1,71.6L201.2,28.6z"/>
</g>
</svg>
