<?xml version="1.0" encoding="utf-8"?>
<!-- Generator: Adobe Illustrator 19.0.1, SVG Export Plug-In . SVG Version: 6.00 Build 0)  -->
<svg version="1.1" id="Слой_1" xmlns="http://www.w3.org/2000/svg" xmlns:xlink="http://www.w3.org/1999/xlink" x="0px" y="0px"
	 viewBox="0 0 20.9 16.6" style="enable-background:new 0 0 20.9 16.6;" xml:space="preserve">
<style type="text/css">
	.st0{clip-path:url(#SVGID_2_);fill:#FFFFFF;}
</style>
<g>
	<defs>
		<rect id="SVGID_1_" y="0" width="20.9" height="16.6"/>
	</defs>
	<clipPath id="SVGID_2_">
		<use xlink:href="#SVGID_1_"  style="overflow:visible;"/>
	</clipPath>
	<path class="st0" d="M19.1,2.2h-3.8l-0.9-1.4C14.1,0.3,13.5,0,12.9,0H8C7.4,0,6.8,0.3,6.5,0.8L5.6,2.2H4.3V1.8
		c0-0.6-0.5-1.1-1.1-1.1H2.5c-0.6,0-1.1,0.5-1.1,1.1v0.4C0.6,2.4,0,3.1,0,4v10.8c0,1,0.8,1.8,1.8,1.8h17.4c1,0,1.8-0.8,1.8-1.8V4
		C20.9,3,20.1,2.2,19.1,2.2 M2.5,1.4h0.7c0.2,0,0.4,0.2,0.4,0.4v0.4H2.1V1.8C2.1,1.6,2.3,1.4,2.5,1.4 M20.2,14.8
		c0,0.6-0.5,1.1-1.1,1.1H1.8c-0.6,0-1.1-0.5-1.1-1.1V4c0-0.6,0.5-1.1,1.1-1.1h4C5.9,2.8,6,2.8,6,2.7l1-1.5C7.3,0.9,7.6,0.7,8,0.7h5
		c0.4,0,0.7,0.2,0.9,0.5l1,1.5c0.1,0.1,0.2,0.2,0.3,0.2h4c0.6,0,1.1,0.5,1.1,1.1V14.8z"/>
	<path class="st0" d="M10.5,3.3C7.3,3.3,4.7,5.8,4.7,9c0,3.2,2.6,5.8,5.8,5.8s5.8-2.6,5.8-5.8C16.2,5.8,13.6,3.3,10.5,3.3
		 M10.5,14.1c-2.8,0-5.1-2.3-5.1-5.1c0-2.8,2.3-5.1,5.1-5.1c2.8,0,5.1,2.3,5.1,5.1C15.5,11.8,13.3,14.1,10.5,14.1"/>
	<path class="st0" d="M13.6,6.6c-0.2,0.1-0.2,0.3-0.1,0.5c0.4,0.6,0.6,1.3,0.6,2c0,2-1.6,3.6-3.6,3.6S6.8,11,6.8,9
		c0-2,1.6-3.6,3.6-3.6c0.8,0,1.5,0.2,2.1,0.7C12.7,6.1,12.9,6.1,13,6c0.1-0.2,0.1-0.4-0.1-0.5c-0.7-0.5-1.6-0.8-2.5-0.8
		C8.1,4.7,6.1,6.6,6.1,9c0,2.4,1.9,4.3,4.3,4.3s4.3-1.9,4.3-4.3c0-0.8-0.2-1.7-0.7-2.4C14,6.5,13.8,6.5,13.6,6.6"/>
	<path class="st0" d="M11.9,9c0-0.8-0.6-1.4-1.4-1.4C9.7,7.6,9,8.2,9,9s0.6,1.4,1.4,1.4C11.2,10.4,11.9,9.8,11.9,9 M9.7,9
		c0-0.4,0.3-0.7,0.7-0.7c0.4,0,0.7,0.3,0.7,0.7c0,0.4-0.3,0.7-0.7,0.7C10,9.8,9.7,9.4,9.7,9"/>
	<path class="st0" d="M11.1,6.9C11.1,6.9,11.2,6.9,11.1,6.9c0.2,0,0.4-0.1,0.4-0.2c0.1-0.2,0-0.4-0.2-0.4c-0.3-0.1-0.5-0.1-0.8-0.1
		c-0.2,0-0.3,0.2-0.3,0.3c0,0.2,0.2,0.3,0.3,0.3C10.7,6.8,10.9,6.9,11.1,6.9"/>
	<path class="st0" d="M8.3,9c0-0.2-0.2-0.3-0.3-0.3C7.7,8.7,7.6,8.8,7.6,9c0,1.3,0.8,2.4,2,2.8c0,0,0.1,0,0.1,0
		c0.1,0,0.3-0.1,0.3-0.2c0.1-0.2,0-0.4-0.2-0.4C8.9,10.8,8.3,10,8.3,9"/>
	<path class="st0" d="M12.5,10.6c0.1,0,0.1,0,0.2,0c0.1,0,0.2-0.1,0.3-0.2c0.3-0.4,0.4-1,0.4-1.5c0-0.6-0.2-1.2-0.5-1.6
		c-0.1-0.2-0.3-0.2-0.5-0.1c-0.2,0.1-0.2,0.3-0.1,0.5c0.3,0.4,0.4,0.8,0.4,1.3c0,0.4-0.1,0.8-0.3,1.1C12.2,10.3,12.3,10.5,12.5,10.6
		"/>
	<path class="st0" d="M17.7,4c-0.8,0-1.4,0.6-1.4,1.4c0,0.8,0.6,1.4,1.4,1.4c0.8,0,1.4-0.6,1.4-1.4C19.1,4.6,18.5,4,17.7,4
		 M17.7,6.1c-0.4,0-0.7-0.3-0.7-0.7c0-0.4,0.3-0.7,0.7-0.7c0.4,0,0.7,0.3,0.7,0.7C18.4,5.8,18.1,6.1,17.7,6.1"/>
	<path class="st0" d="M2.9,5.8c-0.2,0-0.3,0.2-0.3,0.3v8.7c0,0.2,0.2,0.3,0.3,0.3c0.2,0,0.3-0.2,0.3-0.3V6.1
		C3.2,5.9,3.1,5.8,2.9,5.8"/>
	<path class="st0" d="M2.9,3.6C2.7,3.6,2.5,3.8,2.5,4v0.7C2.5,4.9,2.7,5,2.9,5c0.2,0,0.3-0.2,0.3-0.3V4C3.2,3.8,3.1,3.6,2.9,3.6"/>
</g>
</svg>
