<?xml version="1.0" encoding="utf-8"?>
<!-- Generator: Adobe Illustrator 19.0.1, SVG Export Plug-In . SVG Version: 6.00 Build 0)  -->
<svg version="1.1" id="Слой_1" xmlns="http://www.w3.org/2000/svg" xmlns:xlink="http://www.w3.org/1999/xlink" x="0px" y="0px"
	 viewBox="0 0 16.5 19.2" style="enable-background:new 0 0 16.5 19.2;" xml:space="preserve">
<style type="text/css">
	.st0{clip-path:url(#SVGID_2_);fill:#FFFFFF;}
</style>
<g>
	<defs>
		<rect id="SVGID_1_" y="0" width="16.5" height="19.2"/>
	</defs>
	<clipPath id="SVGID_2_">
		<use xlink:href="#SVGID_1_"  style="overflow:visible;"/>
	</clipPath>
	<path class="st0" d="M16.3,7.1l-0.4-0.3c-0.1-0.1-0.2-0.1-0.3-0.1c-0.1,0-0.2,0.1-0.3,0.2l-0.4,0.6l-0.1-0.1
		c-0.1-0.1-0.2-0.1-0.3-0.1c-0.1,0-0.2,0.1-0.3,0.2l-0.6,0.8L13.1,9l-5.1,6.9c0,0,0,0,0,0c0,0,0,0,0,0c0,0,0,0,0,0.1v0l-0.8,2.3
		c0,0.1,0,0.2,0,0.4H0.7c-0.1,0-0.2-0.1-0.2-0.2v-1.3c0-0.2-0.1-0.3-0.3-0.3C0.1,16.9,0,17,0,17.2v1.3c0,0.4,0.3,0.7,0.7,0.7h13
		c0.4,0,0.7-0.3,0.7-0.7v-6c0-0.1-0.1-0.3-0.3-0.3c-0.2,0-0.3,0.1-0.3,0.3v6c0,0.1-0.1,0.2-0.2,0.2H8.1l1.8-1.3c0,0,0,0,0,0
		c0,0,0,0,0,0c0,0,0,0,0,0c0,0,0,0,0,0l0,0c0,0,0,0,0,0l5.1-6.9l0.1-0.1l1-1.4c0.1-0.2,0.1-0.5-0.1-0.6L16,8.3l0.4-0.6
		C16.5,7.5,16.5,7.3,16.3,7.1 M7.9,18.2l0.5-1.6l0.9,0.6L7.9,18.2z M9.7,16.8l-0.1-0.1L8.7,16l4.7-6.5l1.1,0.8L9.7,16.8z M14.8,9.9
		l-1.1-0.8l0.2-0.2l1.1,0.8L14.8,9.9z M15.3,9.2l-1.1-0.8L14.6,8l0.2,0.2l0.6,0.5l0.2,0.2L15.3,9.2z M15.5,8l-0.2-0.1l0.3-0.5
		l0.2,0.1L15.5,8z"/>
	<path class="st0" d="M14.4,5.5C14.4,5.5,14.4,5.5,14.4,5.5C14.4,5.4,14.4,5.4,14.4,5.5L14.4,5.5C14.4,5.4,14.4,5.4,14.4,5.5
		L14.4,5.5c0-0.1,0-0.1,0-0.1c0,0,0,0,0,0c0,0,0,0,0,0l0,0c0,0,0,0,0,0v0L9.2,0.1c0,0,0,0,0,0c0,0,0,0,0,0c0,0,0,0,0,0l0,0
		c0,0,0,0,0,0c0,0,0,0,0,0C9,0,9,0,9,0c0,0,0,0,0,0h0H0.7C0.3,0,0,0.3,0,0.7v14.9c0,0.1,0.1,0.3,0.3,0.3c0.2,0,0.3-0.1,0.3-0.3V0.7
		c0-0.1,0.1-0.2,0.2-0.2h8V5c0,0.4,0.3,0.7,0.7,0.7h4.5v1.1c0,0.2,0.1,0.3,0.3,0.3c0.1,0,0.3-0.1,0.3-0.3V5.5L14.4,5.5z M9.4,5.2
		C9.3,5.2,9.3,5.1,9.3,5V0.9l4.3,4.3H9.4z"/>
	<path class="st0" d="M6.1,5.2H1.6c-0.2,0-0.3,0.1-0.3,0.3c0,0.2,0.1,0.3,0.3,0.3h4.5c0.2,0,0.3-0.1,0.3-0.3
		C6.4,5.3,6.2,5.2,6.1,5.2"/>
	<path class="st0" d="M7,14.3H1.6c-0.2,0-0.3,0.1-0.3,0.3c0,0.2,0.1,0.3,0.3,0.3H7c0.1,0,0.3-0.1,0.3-0.3C7.2,14.4,7.1,14.3,7,14.3"
		/>
	<path class="st0" d="M11.9,7H8.7C8.5,7,8.4,7.1,8.4,7.3c0,0.2,0.1,0.3,0.3,0.3h3.2c0.1,0,0.3-0.1,0.3-0.3C12.2,7.1,12.1,7,11.9,7"
		/>
	<path class="st0" d="M7.2,7H1.6C1.5,7,1.4,7.1,1.4,7.3c0,0.2,0.1,0.3,0.3,0.3h5.5c0.2,0,0.3-0.1,0.3-0.3C7.4,7.1,7.3,7,7.2,7"/>
	<path class="st0" d="M11.9,8.8H1.6c-0.2,0-0.3,0.1-0.3,0.3c0,0.2,0.1,0.3,0.3,0.3h10.3c0.1,0,0.3-0.1,0.3-0.3
		C12.2,8.9,12.1,8.8,11.9,8.8"/>
</g>
</svg>
