<?xml version="1.0" encoding="utf-8"?>
<!-- Generator: Adobe Illustrator 19.0.1, SVG Export Plug-In . SVG Version: 6.00 Build 0)  -->
<svg version="1.1" id="Слой_1" xmlns="http://www.w3.org/2000/svg" xmlns:xlink="http://www.w3.org/1999/xlink" x="0px" y="0px"
	 viewBox="0 0 19 17.4" style="enable-background:new 0 0 19 17.4;" xml:space="preserve">
<style type="text/css">
	.st0{clip-path:url(#SVGID_2_);fill:#FFFFFF;}
</style>
<g>
	<defs>
		<rect id="SVGID_1_" y="0" width="19" height="17.4"/>
	</defs>
	<clipPath id="SVGID_2_">
		<use xlink:href="#SVGID_1_"  style="overflow:visible;"/>
	</clipPath>
	<path class="st0" d="M18.7,8.3V0.3c0-0.2-0.1-0.3-0.3-0.3H0.6C0.4,0,0.3,0.1,0.3,0.3v8.1C0.1,8.4,0,8.6,0,8.8v0.6
		c0,0.2,0.1,0.4,0.3,0.5v7.3c0,0.2,0.1,0.3,0.3,0.3h17.9c0.2,0,0.3-0.1,0.3-0.3V9.9C18.9,9.8,19,9.6,19,9.4V8.8
		C19,8.6,18.9,8.4,18.7,8.3 M18,0.6c-0.1,0.2-0.3,0.4-0.6,0.6c0,0,0,0,0,0c0,0,0,0-0.1,0c0,0,0,0,0,0c0,0,0,0,0,0c0,0,0,0,0,0
		c0,0,0,0,0,0l0,0l0,0c0,0-0.1,0-0.1,0.1c0,0,0,0,0,0c0,0,0,0-0.1,0c0,0,0,0,0,0c0,0,0,0,0,0c0,0,0,0-0.1,0c0,0,0,0,0,0
		c0,0-0.1,0-0.1,0c0,0,0,0,0,0c-0.1,0.1-0.2,0.1-0.4,0.2c-0.2,0.1-0.3,0.1-0.5,0.2c-0.5,0.2-1.1,0.3-1.7,0.4c0,0,0,0,0,0
		c-0.6,0.1-1.1,0.2-1.7,0.3c0,0,0,0,0,0c-0.9,0.1-1.8,0.2-2.8,0.2c-0.9,0-1.9-0.1-2.8-0.2c0,0,0,0,0,0C6.1,2.5,5.5,2.4,5,2.3
		c0,0,0,0,0,0C4.3,2.2,3.8,2,3.3,1.9C3.1,1.8,2.9,1.7,2.7,1.7C2.6,1.6,2.5,1.6,2.4,1.5c0,0,0,0,0,0c0,0-0.1,0-0.1,0l0,0
		c0,0,0,0-0.1,0c0,0,0,0,0,0c0,0,0,0,0,0s0,0,0,0c0,0,0,0,0,0c0,0-0.1,0-0.1-0.1l0,0c0,0,0,0,0,0c0,0,0,0,0,0c0,0,0,0,0,0
		c0,0,0,0,0,0c0,0,0,0,0,0c0,0,0,0-0.1,0c0,0,0,0,0,0C1.3,0.9,1.1,0.7,1,0.6H18z M0.8,1.3C0.9,1.3,1,1.4,1.1,1.5
		c0.3,0.2,0.7,0.4,1.2,0.6c0,1.8-0.5,3.7-0.9,5c0,0.1,0,0.3,0.2,0.4c0.1,0,0.3,0,0.4-0.2c0.4-1.3,0.9-3.2,1-5c0.1,0,0.1,0,0.2,0.1
		C3.6,2.5,4,2.7,4.5,2.8C4,4.6,3,6.1,2.3,7.1C2.2,7.2,2.2,7.4,2.3,7.5c0.1,0,0.1,0.1,0.2,0.1c0.1,0,0.2,0,0.2-0.1
		c0.8-1,1.8-2.6,2.4-4.5C5.5,3,5.9,3,6.3,3.1C5.7,4.5,4.5,6,3.6,7.1c-0.1,0.1-0.1,0.3,0,0.4c0.1,0.1,0.3,0.1,0.4,0
		c1.7-1.9,2.5-3.3,2.8-4.3c0.9,0.1,1.8,0.1,2.7,0.1c0.9,0,1.8-0.1,2.7-0.1C12.8,4.7,14,6.3,15,7.4c0.1,0.1,0.3,0.1,0.4,0
		c0.1-0.1,0.1-0.3,0-0.4c-0.9-1-2.1-2.5-2.7-4C13.1,3,13.5,3,13.9,2.9c0.6,1.9,1.6,3.5,2.4,4.5c0.1,0.1,0.1,0.1,0.2,0.1
		c0.1,0,0.1,0,0.2-0.1c0.1-0.1,0.1-0.3,0.1-0.4c-0.7-1-1.7-2.5-2.3-4.3c0.5-0.1,1-0.2,1.4-0.4c0.1,0,0.1,0,0.2-0.1
		c0,1.8,0.5,3.7,1,5c0,0.1,0.2,0.2,0.4,0.2c0.1,0,0.2-0.2,0.2-0.4c-0.4-1.3-0.9-3.3-0.9-5c0.5-0.2,0.9-0.4,1.2-0.6
		c0.1-0.1,0.2-0.2,0.3-0.2v7h-1.5c-0.3,0-0.5,0.2-0.5,0.5v0.6c0,0.1,0.1,0.3,0.2,0.4c-0.2,0.5-0.4,1.2-0.6,1.9H3.3
		C3.2,10.9,3,10.3,2.8,9.8c0.1-0.1,0.2-0.2,0.2-0.4V8.8c0-0.3-0.2-0.5-0.5-0.5H0.8V1.3z M0.6,8.8h1.8v0.5H0.6V8.8z M2,16.8
		c0,0.1-0.1,0.1-0.2,0.1h-1V9.9h0.3C2.1,13.4,2.5,15.9,2,16.8 M3.4,16.9v-1.5c0-0.3,0.3-0.6,0.6-0.6h1.4C5.7,14.7,6,15,6,15.3v1.5
		H3.4z M6.6,16.9v-1.5c0-0.3,0.3-0.6,0.6-0.6h1.4c0.3,0,0.6,0.3,0.6,0.6v1.5H6.6z M9.8,16.9v-1.5c0-0.3,0.3-0.6,0.6-0.6h1.4
		c0.3,0,0.6,0.3,0.6,0.6v1.5H9.8z M15.6,16.9H13v-1.5c0-0.3,0.3-0.6,0.6-0.6H15c0.3,0,0.6,0.3,0.6,0.6V16.9z M16.2,16.9v-1.5
		c0-0.6-0.5-1.2-1.2-1.2h-1.4c-0.4,0-0.7,0.2-0.9,0.4c-0.2-0.2-0.5-0.4-0.9-0.4h-1.4c-0.4,0-0.7,0.2-0.9,0.4
		c-0.2-0.2-0.5-0.4-0.9-0.4H7.2c-0.4,0-0.7,0.2-0.9,0.4c-0.2-0.2-0.5-0.4-0.9-0.4H4c-0.6,0-1.2,0.5-1.2,1.2v1.5H2.6
		c0.6-1.4-0.2-4.8-0.9-6.9h0.6c0.3,0.8,0.6,1.9,0.9,3.1c0,0.2,0.2,0.2,0.3,0.2c0.1,0,0.2-0.2,0.2-0.3c-0.1-0.2-0.1-0.5-0.2-0.7h12
		c-0.1,0.2-0.1,0.5-0.2,0.7c0,0.1,0.1,0.3,0.2,0.3c0,0,0,0,0.1,0c0.1,0,0.2-0.1,0.3-0.2c0.3-1.1,0.6-2.3,0.9-3.1h0.6
		c-0.6,2.1-1.4,5.5-0.9,6.9H16.2z M18.2,16.9h-1c-0.1,0-0.1,0-0.2-0.1c-0.5-0.8-0.1-3.4,0.9-6.8h0.3V16.9z M18.4,9.4h-1.8V8.8h1.8
		V9.4z"/>
</g>
</svg>
