<?xml version="1.0" encoding="utf-8"?>
<!-- Generator: Adobe Illustrator 19.0.1, SVG Export Plug-In . SVG Version: 6.00 Build 0)  -->
<svg version="1.1" id="Слой_1" xmlns="http://www.w3.org/2000/svg" xmlns:xlink="http://www.w3.org/1999/xlink" x="0px" y="0px"
	 viewBox="0 0 16.3 21.5" style="enable-background:new 0 0 16.3 21.5;" xml:space="preserve">
<style type="text/css">
	.st0{clip-path:url(#SVGID_2_);fill:#FFFFFF;}
</style>
<g>
	<defs>
		<rect id="SVGID_1_" y="0" width="16.3" height="21.5"/>
	</defs>
	<clipPath id="SVGID_2_">
		<use xlink:href="#SVGID_1_"  style="overflow:visible;"/>
	</clipPath>
	<path class="st0" d="M16.2,3.4c0.2-0.2,0.2-0.5,0.1-0.7c-0.1-0.2-0.4-0.4-0.6-0.4H13c0-0.5-0.2-1-0.6-1.2l0.2-0.5
		c0.1-0.2,0-0.4-0.2-0.5C12.2,0,12,0,11.9,0.2l-0.2,0.5c-0.6-0.1-1.3,0.3-1.5,0.9L10,2.2H0.7c-0.3,0-0.5,0.2-0.6,0.4
		C0,2.9,0,3.2,0.2,3.4l7.7,9.7v5.5c0,1.2-1,2.3-2.3,2.3H4.4c-0.2,0-0.3,0.2-0.3,0.3c0,0.2,0.2,0.3,0.3,0.3h7.4
		c0.2,0,0.3-0.2,0.3-0.3c0-0.2-0.2-0.3-0.3-0.3h-1.1c-1.2,0-2.3-1-2.3-2.3v-5.5L16.2,3.4z M9.9,6.6c0.4,0,0.5,0.1,0.7,0.2
		c0.2,0.1,0.5,0.2,1,0.2c0.4,0,0.7-0.1,0.9-0.2l-4.4,5.6L3.8,6.8C4,6.9,4.2,7,4.7,7c0.5,0,0.8-0.1,1-0.2c0.2-0.1,0.4-0.2,0.7-0.2
		c0.4,0,0.5,0.1,0.7,0.2C7.4,6.9,7.7,7,8.2,7c0.5,0,0.8-0.1,1-0.2C9.4,6.7,9.5,6.6,9.9,6.6 M10.8,1.9c0.2-0.4,0.6-0.6,1-0.4
		c0.3,0.1,0.5,0.4,0.5,0.7h-1.6L10.8,1.9z M0.7,2.9l14.9,0c0,0,0,0,0,0l-2.4,3c-0.4,0-0.7,0.1-0.9,0.2c-0.2,0.1-0.4,0.2-0.7,0.2
		c-0.4,0-0.5-0.1-0.7-0.2C10.8,6.1,10.6,6,10.4,6l0.7-1.8c0.1-0.2,0-0.4-0.2-0.5c-0.2-0.1-0.4,0-0.5,0.2L9.7,6
		C9.3,6,9.1,6.1,8.9,6.2C8.7,6.3,8.5,6.3,8.2,6.3c-0.4,0-0.5-0.1-0.7-0.2C7.2,6.1,6.9,6,6.4,6c-0.5,0-0.8,0.1-1,0.2
		C5.2,6.3,5,6.3,4.7,6.3C4.3,6.3,4.2,6.3,4,6.2C3.7,6.1,3.5,6,3.1,6L0.7,2.9C0.7,2.9,0.7,2.9,0.7,2.9 M8.9,20.8H7.5
		C7.7,20.6,8,20.3,8.2,20C8.3,20.3,8.6,20.6,8.9,20.8"/>
	<path class="st0" d="M9,7.7l-1.2,3c-0.1,0.2,0,0.4,0.2,0.5c0,0,0.1,0,0.1,0c0.1,0,0.3-0.1,0.3-0.2l1.2-3c0.1-0.2,0-0.4-0.2-0.5
		C9.3,7.4,9.1,7.5,9,7.7"/>
</g>
</svg>
