<?xml version="1.0" encoding="utf-8"?>
<!-- Generator: Adobe Illustrator 19.0.1, SVG Export Plug-In . SVG Version: 6.00 Build 0)  -->
<svg version="1.1" id="Слой_1" xmlns="http://www.w3.org/2000/svg" xmlns:xlink="http://www.w3.org/1999/xlink" x="0px" y="0px"
	 viewBox="0 0 21.5 16.9" style="enable-background:new 0 0 21.5 16.9;" xml:space="preserve">
<style type="text/css">
	.st0{clip-path:url(#SVGID_2_);fill:#FFFFFF;}
</style>
<g>
	<defs>
		<rect id="SVGID_1_" y="0" width="21.5" height="16.9"/>
	</defs>
	<clipPath id="SVGID_2_">
		<use xlink:href="#SVGID_1_"  style="overflow:visible;"/>
	</clipPath>
	<path class="st0" d="M15.5,9.2c-0.1-0.2-0.4-0.3-0.6-0.3H6.6C6.4,8.9,6.2,9,6.1,9.2C5.9,9.3,5.9,9.6,5.9,9.8l0.2,0.8
		c0.1,0.3,0.4,0.6,0.7,0.6h7.9c0.3,0,0.6-0.2,0.7-0.6l0.2-0.8C15.7,9.6,15.6,9.3,15.5,9.2 M14.9,9.6l-0.2,0.8c0,0,0,0,0,0H6.8
		c0,0,0,0,0,0L6.6,9.6c0,0,0,0,0,0c0,0,0,0,0,0L14.9,9.6C14.9,9.6,14.9,9.6,14.9,9.6C14.9,9.6,14.9,9.6,14.9,9.6"/>
	<path class="st0" d="M20.4,6.9c0.6,0,1.1-0.5,1.1-1.1S21,4.6,20.4,4.6H20c-0.6,0-1,0.4-1.1,1l-1-2.7c-0.2-0.6-0.8-1-1.4-1h-2.8
		l-0.2-1C13.5,0.4,13,0,12.5,0H9.1C8.6,0,8.1,0.4,8,0.9l-0.2,1H5c-0.6,0-1.2,0.4-1.4,1l-1,2.7c-0.1-0.5-0.6-1-1.1-1H1.1
		C0.5,4.6,0,5.1,0,5.8s0.5,1.1,1.1,1.1h0.4c0.2,0,0.3,0,0.5-0.1l-0.8,1C0.9,8.1,0.8,8.6,0.8,9v7.2c0,0.4,0.3,0.7,0.7,0.7h1.2
		c0.4,0,0.7-0.3,0.7-0.7v-1.6h14.7v1.6c0,0.4,0.3,0.7,0.7,0.7H20c0.4,0,0.7-0.3,0.7-0.7V9c0-0.4-0.1-0.9-0.4-1.2l-0.8-1
		c0.1,0.1,0.3,0.1,0.5,0.1H20.4z M1.5,6.2H1.1C0.9,6.2,0.7,6,0.7,5.8c0-0.2,0.2-0.4,0.4-0.4h0.4c0.2,0,0.4,0.2,0.4,0.4
		C1.9,6,1.7,6.2,1.5,6.2 M8.7,1.1c0-0.2,0.2-0.3,0.4-0.3h3.4c0.2,0,0.4,0.1,0.4,0.3L13,1.9H8.5L8.7,1.1z M2.7,16.2
		C2.7,16.2,2.7,16.2,2.7,16.2l-1.2,0c0,0,0,0,0,0v-1.8c0.2,0.1,0.5,0.2,0.8,0.2h0.4V16.2z M15,13.9H6.5v-0.8c0,0,0,0,0,0H15
		c0,0,0,0,0,0V13.9z M20.1,16.2C20.1,16.2,20,16.2,20.1,16.2l-1.2,0c0,0,0,0,0,0v-1.6h0.4c0.3,0,0.6-0.1,0.8-0.2V16.2z M19.8,8.3
		C20,8.5,20.1,8.7,20.1,9v4.1c0,0.4-0.4,0.8-0.8,0.8h-3.5v-0.8c0-0.4-0.3-0.7-0.7-0.7H6.5c-0.4,0-0.7,0.3-0.7,0.7v0.8H2.3
		c-0.4,0-0.8-0.4-0.8-0.8V9c0-0.3,0.1-0.5,0.3-0.7l1.1-1.4h10.2c0.2,0,0.4-0.2,0.4-0.4c0-0.2-0.2-0.4-0.4-0.4H3.2l1.1-3
		C4.4,2.9,4.7,2.7,5,2.7h11.5c0.3,0,0.6,0.2,0.7,0.5l1.1,3h-1.4c-0.2,0-0.4,0.2-0.4,0.4c0,0.2,0.2,0.4,0.4,0.4h1.8L19.8,8.3z
		 M19.6,5.8c0-0.2,0.2-0.4,0.4-0.4h0.4c0.2,0,0.4,0.2,0.4,0.4c0,0.2-0.2,0.4-0.4,0.4H20C19.8,6.2,19.6,6,19.6,5.8"/>
	<path class="st0" d="M3.8,11.6c-0.4,0-0.7,0.3-0.7,0.7s0.3,0.7,0.7,0.7s0.7-0.3,0.7-0.7S4.2,11.6,3.8,11.6"/>
	<path class="st0" d="M17.7,11.6c-0.4,0-0.7,0.3-0.7,0.7s0.3,0.7,0.7,0.7c0.4,0,0.7-0.3,0.7-0.7S18.1,11.6,17.7,11.6"/>
	<path class="st0" d="M3.6,8.5c-0.7,0-1.3,0.6-1.3,1.3c0,0.7,0.6,1.3,1.3,1.3c0.7,0,1.3-0.6,1.3-1.3C5,9.1,4.4,8.5,3.6,8.5
		 M3.6,10.4C3.3,10.4,3,10.1,3,9.8c0-0.3,0.3-0.6,0.6-0.6c0.3,0,0.6,0.3,0.6,0.6C4.2,10.1,4,10.4,3.6,10.4"/>
	<path class="st0" d="M17.9,8.5c-0.7,0-1.3,0.6-1.3,1.3c0,0.7,0.6,1.3,1.3,1.3c0.7,0,1.3-0.6,1.3-1.3C19.2,9.1,18.6,8.5,17.9,8.5
		 M17.9,10.4c-0.3,0-0.6-0.3-0.6-0.6c0-0.3,0.3-0.6,0.6-0.6c0.3,0,0.6,0.3,0.6,0.6C18.5,10.1,18.2,10.4,17.9,10.4"/>
</g>
</svg>
