<?xml version="1.0" encoding="utf-8"?>
<!-- Generator: Adobe Illustrator 19.0.1, SVG Export Plug-In . SVG Version: 6.00 Build 0)  -->
<svg version="1.1" id="Слой_1" xmlns="http://www.w3.org/2000/svg" xmlns:xlink="http://www.w3.org/1999/xlink" x="0px" y="0px"
	 viewBox="0 0 14.3 18.6" style="enable-background:new 0 0 14.3 18.6;" xml:space="preserve">
<style type="text/css">
	.st0{clip-path:url(#SVGID_2_);fill:#FFFFFF;}
</style>
<g>
	<defs>
		<rect id="SVGID_1_" y="0" width="14.3" height="18.6"/>
	</defs>
	<clipPath id="SVGID_2_">
		<use xlink:href="#SVGID_1_"  style="overflow:visible;"/>
	</clipPath>
	<path class="st0" d="M7.2,14.5c0.8,0,1.4-0.6,1.4-1.4c0-0.8-0.6-1.4-1.4-1.4c-0.8,0-1.4,0.6-1.4,1.4C5.8,13.9,6.4,14.5,7.2,14.5
		 M7.2,12.2c0.5,0,0.9,0.4,0.9,0.9c0,0.5-0.4,0.9-0.9,0.9c-0.5,0-0.9-0.4-0.9-0.9C6.3,12.6,6.7,12.2,7.2,12.2"/>
	<path class="st0" d="M10.9,9H9.2V8.1H8.6V9h-1l0.6-1.3h0.8L9.5,8v0.5H10V7.8L9.3,7.1H8.5c0.4-0.4,0.6-0.8,0.6-1.4
		c0-1.1-0.9-1.9-1.9-1.9c-1.1,0-1.9,0.9-1.9,1.9c0,0.5,0.2,1,0.6,1.4H5L4.3,7.8v0.8h0.5V8l0.4-0.4H6L6.7,9h-1V8.1H5.1V9H3.4v1.6H4v8
		h6.3v-8h0.6V9z M5.8,5.7c0-0.8,0.6-1.4,1.4-1.4c0.8,0,1.4,0.6,1.4,1.4c0,0.8-0.6,1.4-1.4,1.4C6.4,7.1,5.8,6.4,5.8,5.7 M6.6,7.6h1
		L7.2,8.7L6.6,7.6z M9.8,18H4.5v-0.5h2.4V17H4.5v-6.4h5.3V18z M10.3,10H4V9.5h6.4V10z"/>
	<polygon class="st0" points="0,0 0,9.5 3,9.5 3,9 0.5,9 0.5,0.5 13.8,0.5 13.8,9 11.3,9 11.3,9.5 14.3,9.5 14.3,0 	"/>
	<rect x="2" y="1.4" class="st0" width="4.9" height="0.5"/>
	<rect x="2" y="2.5" class="st0" width="9.4" height="0.5"/>
	<rect x="8.6" y="3.6" class="st0" width="2.7" height="0.5"/>
	<rect x="2" y="3.6" class="st0" width="3.7" height="0.5"/>
	<rect x="2" y="4.6" class="st0" width="3" height="0.5"/>
	<rect x="2" y="5.7" class="st0" width="2.8" height="0.5"/>
	<rect x="3.8" y="6.8" class="st0" width="0.5" height="0.5"/>
	<rect x="2" y="6.8" class="st0" width="0.5" height="0.5"/>
	<rect x="2.9" y="6.8" class="st0" width="0.5" height="0.5"/>
	<rect x="12.5" y="1.2" class="st0" width="0.5" height="0.5"/>
	<rect x="12.5" y="2.1" class="st0" width="0.5" height="0.5"/>
	<rect x="12.5" y="3" class="st0" width="0.5" height="3.5"/>
	<rect x="8.9" y="13.3" class="st0" width="0.5" height="0.5"/>
	<rect x="8.9" y="15.1" class="st0" width="0.5" height="2.5"/>
	<rect x="8.9" y="14.2" class="st0" width="0.5" height="0.5"/>
	<rect x="9.5" y="5.7" class="st0" width="1.8" height="0.5"/>
	<rect x="9.3" y="4.6" class="st0" width="2" height="0.5"/>
	<rect x="1.1" y="18" class="st0" width="2.4" height="0.5"/>
	<rect x="10.8" y="18" class="st0" width="2.4" height="0.5"/>
</g>
</svg>
