<?xml version="1.0" encoding="utf-8"?>
<!-- Generator: Adobe Illustrator 19.0.1, SVG Export Plug-In . SVG Version: 6.00 Build 0)  -->
<svg version="1.1" id="Слой_1" xmlns="http://www.w3.org/2000/svg" xmlns:xlink="http://www.w3.org/1999/xlink" x="0px" y="0px"
	 viewBox="0 0 16.3 17.1" style="enable-background:new 0 0 16.3 17.1;" xml:space="preserve">
<style type="text/css">
	.st0{clip-path:url(#SVGID_2_);fill:#FFFFFF;}
</style>
<g>
	<defs>
		<rect id="SVGID_1_" y="0" width="16.3" height="17.1"/>
	</defs>
	<clipPath id="SVGID_2_">
		<use xlink:href="#SVGID_1_"  style="overflow:visible;"/>
	</clipPath>
	<path class="st0" d="M15.7,0.3c-0.4-0.3-0.9-0.4-1.3-0.2l-8,2.5c-0.6,0.2-1,0.8-1,1.4v9.9c-0.1-0.1-0.2-0.2-0.3-0.3
		c-0.5-0.4-1.3-0.6-2-0.6s-1.5,0.2-2,0.6C0.3,14,0,14.5,0,15.1c0,0.6,0.3,1.1,0.9,1.5c0.5,0.4,1.3,0.6,2,0.6s1.5-0.2,2-0.6
		c0.6-0.4,0.9-0.9,0.9-1.5V5.2l5.7-1.8c0.1,0,0.2-0.2,0.2-0.3c0-0.1-0.2-0.2-0.3-0.2L5.9,4.6V4c0-0.4,0.3-0.7,0.6-0.9l8-2.5
		c0.3-0.1,0.6,0,0.8,0.1c0.2,0.2,0.4,0.4,0.4,0.7v0.1L14.4,2c-0.1,0-0.2,0.2-0.2,0.3c0,0.1,0.1,0.2,0.3,0.2c0,0,0.1,0,0.1,0l1.1-0.4
		v8.5c-0.1-0.1-0.2-0.2-0.3-0.3c-0.5-0.4-1.3-0.6-2-0.6c-0.8,0-1.5,0.2-2,0.6c-0.6,0.4-0.9,0.9-0.9,1.5c0,0.6,0.3,1.1,0.9,1.5
		c0.5,0.4,1.3,0.6,2,0.6c0.8,0,1.5-0.2,2-0.6c0.6-0.4,0.9-0.9,0.9-1.5V1.5C16.2,1,16,0.6,15.7,0.3 M2.9,16.6c-1.3,0-2.4-0.7-2.4-1.5
		c0-0.8,1.1-1.5,2.4-1.5c1.3,0,2.4,0.7,2.4,1.5C5.3,15.9,4.2,16.6,2.9,16.6 M13.3,13.3c-1.3,0-2.4-0.7-2.4-1.5
		c0-0.8,1.1-1.5,2.4-1.5c1.3,0,2.4,0.7,2.4,1.5C15.7,12.6,14.6,13.3,13.3,13.3"/>
	<path class="st0" d="M12.7,3.1C12.7,3.1,12.8,3.1,12.7,3.1l0.7-0.2c0.1,0,0.2-0.2,0.2-0.3c0-0.1-0.2-0.2-0.3-0.2l-0.6,0.2
		c-0.1,0-0.2,0.2-0.2,0.3C12.5,3,12.6,3.1,12.7,3.1"/>
	<path class="st0" d="M13.3,11c-0.4,0-0.8,0.1-1.2,0.2c-0.5,0.2-0.6,0.5-0.6,0.7c0,0.2,0.1,0.3,0.3,0.3c0.2,0,0.3-0.1,0.3-0.3
		c0,0,0.1-0.1,0.3-0.2c0.2-0.1,0.6-0.1,0.9-0.1c0.2,0,0.3-0.1,0.3-0.3C13.6,11.1,13.5,11,13.3,11"/>
	<path class="st0" d="M14.6,11.2c-0.1-0.1-0.3,0-0.4,0.1c-0.1,0.1,0,0.3,0.1,0.4c0.1,0.1,0.1,0.1,0.2,0.1c0,0.1,0.1,0.3,0.3,0.3
		c0.2,0,0.3-0.1,0.3-0.3C15.1,11.7,15,11.4,14.6,11.2"/>
	<path class="st0" d="M2.9,14.2c-0.4,0-0.8,0.1-1.1,0.2c-0.5,0.2-0.6,0.5-0.6,0.7c0,0.2,0.1,0.3,0.3,0.3c0.2,0,0.3-0.1,0.3-0.3
		c0,0,0.1-0.1,0.3-0.2c0.2-0.1,0.6-0.1,0.9-0.1c0.2,0,0.3-0.1,0.3-0.3C3.2,14.3,3.1,14.2,2.9,14.2"/>
	<path class="st0" d="M4.3,14.5c-0.1-0.1-0.3,0-0.4,0.1c-0.1,0.1,0,0.3,0.1,0.4c0.1,0.1,0.1,0.1,0.2,0.1c0,0.2,0.1,0.3,0.3,0.3
		c0.2,0,0.3-0.1,0.3-0.3C4.7,14.9,4.6,14.7,4.3,14.5"/>
</g>
</svg>
